<ttFont>
    <TTGlyph name=".notdef" xMin="0" yMin="0" xMax="500" yMax="700">
      <contour>
        <pt x="0" y="700" on="1"/>
        <pt x="500" y="700" on="1"/>
        <pt x="500" y="0" on="1"/>
        <pt x="0" y="0" on="1"/>
      </contour>
      <contour>
        <pt x="50" y="650" on="1"/>
        <pt x="50" y="50" on="1"/>
        <pt x="450" y="50" on="1"/>
        <pt x="450" y="650" on="1"/>
      </contour>
      <contour>
        <pt x="229" y="278" on="1"/>
        <pt x="229" y="307" on="0"/>
        <pt x="256" y="345" on="0"/>
        <pt x="283" y="367" on="1"/>
        <pt x="311" y="390" on="0"/>
        <pt x="339" y="431" on="0"/>
        <pt x="339" y="465" on="1"/>
        <pt x="339" y="496" on="0"/>
        <pt x="301" y="552" on="0"/>
        <pt x="250" y="552" on="1"/>
        <pt x="192" y="552" on="0"/>
        <pt x="152" y="485" on="0"/>
        <pt x="152" y="452" on="1"/>
        <pt x="152" y="424" on="1"/>
        <pt x="103" y="424" on="1"/>
        <pt x="99" y="436" on="0"/>
        <pt x="99" y="455" on="1"/>
        <pt x="99" y="478" on="0"/>
        <pt x="120" y="544" on="0"/>
        <pt x="187" y="602" on="0"/>
        <pt x="250" y="602" on="1"/>
        <pt x="313" y="602" on="0"/>
        <pt x="376" y="546" on="0"/>
        <pt x="393" y="486" on="0"/>
        <pt x="393" y="467" on="1"/>
        <pt x="393" y="422" on="0"/>
        <pt x="356" y="364" on="0"/>
        <pt x="326" y="338" on="1"/>
        <pt x="304" y="320" on="0"/>
        <pt x="282" y="290" on="0"/>
        <pt x="282" y="268" on="1"/>
        <pt x="282" y="215" on="1"/>
        <pt x="229" y="215" on="1"/>
      </contour>
      <contour>
        <pt x="225" y="169" on="1"/>
        <pt x="285" y="169" on="1"/>
        <pt x="285" y="99" on="1"/>
        <pt x="225" y="99" on="1"/>
      </contour>
    </TTGlyph>
    <TTGlyph name="A" xMin="18" yMin="0" xMax="575" yMax="688">
      <contour>
        <pt x="417" y="174" on="1"/>
        <pt x="173" y="174" on="1"/>
        <pt x="122" y="0" on="1"/>
        <pt x="18" y="0" on="1"/>
        <pt x="228" y="688" on="1"/>
        <pt x="365" y="688" on="1"/>
        <pt x="575" y="0" on="1"/>
        <pt x="469" y="0" on="1"/>
      </contour>
      <contour>
        <pt x="292" y="583" on="1"/>
        <pt x="198" y="262" on="1"/>
        <pt x="391" y="262" on="1"/>
        <pt x="297" y="583" on="1"/>
      </contour>
    </TTGlyph>
    <TTGlyph name="A.ss01" xMin="72" yMin="0" xMax="538" yMax="696">
      <contour>
        <pt x="435" y="227" on="1"/>
        <pt x="175" y="227" on="1"/>
        <pt x="175" y="0" on="1"/>
        <pt x="72" y="0" on="1"/>
        <pt x="72" y="386" on="1"/>
        <pt x="72" y="520" on="0"/>
        <pt x="102" y="645" on="0"/>
        <pt x="199" y="696" on="0"/>
        <pt x="305" y="696" on="1"/>
        <pt x="411" y="696" on="0"/>
        <pt x="508" y="645" on="0"/>
        <pt x="538" y="520" on="0"/>
        <pt x="538" y="386" on="1"/>
        <pt x="538" y="0" on="1"/>
        <pt x="435" y="0" on="1"/>
      </contour>
      <contour>
        <pt x="435" y="509" on="0"/>
        <pt x="421" y="580" on="0"/>
        <pt x="369" y="607" on="0"/>
        <pt x="305" y="607" on="1"/>
        <pt x="241" y="607" on="0"/>
        <pt x="189" y="580" on="0"/>
        <pt x="175" y="509" on="0"/>
        <pt x="175" y="421" on="1"/>
        <pt x="175" y="319" on="1"/>
        <pt x="435" y="319" on="1"/>
        <pt x="435" y="421" on="1"/>
      </contour>
    </TTGlyph>
    <TTGlyph name="AE" xMin="-9" yMin="0" xMax="778" yMax="688">
      <contour>
        <pt x="407" y="174" on="1"/>
        <pt x="164" y="174" on="1"/>
        <pt x="94" y="0" on="1"/>
        <pt x="-9" y="0" on="1"/>
        <pt x="273" y="688" on="1"/>
        <pt x="778" y="688" on="1"/>
        <pt x="778" y="599" on="1"/>
        <pt x="428" y="599" on="1"/>
        <pt x="470" y="391" on="1"/>
        <pt x="739" y="391" on="1"/>
        <pt x="739" y="303" on="1"/>
        <pt x="486" y="303" on="1"/>
        <pt x="529" y="88" on="1"/>
        <pt x="778" y="88" on="1"/>
        <pt x="778" y="0" on="1"/>
        <pt x="441" y="0" on="1"/>
      </contour>
      <contour>
        <pt x="326" y="583" on="1"/>
        <pt x="199" y="262" on="1"/>
        <pt x="391" y="262" on="1"/>
        <pt x="331" y="583" on="1"/>
      </contour>
    </TTGlyph>
    <TTGlyph name="AEacute" xMin="-9" yMin="0" xMax="778" yMax="888">
      <component glyphName="AE" x="0" y="0" flags="0x0"/>
      <component glyphName="acutecomb.case" x="560" y="0" flags="0x0"/>
    </TTGlyph>
    <TTGlyph name="Aacute" xMin="18" yMin="0" xMax="575" yMax="892">
      <component glyphName="A" x="0" y="0" flags="0x0"/>
      <component glyphName="acute" x="226" y="149" flags="0x4"/>
    </TTGlyph>
    <TTGlyph name="Aacute.ss01" xMin="72" yMin="0" xMax="538" yMax="892">
      <component glyphName="A.ss01" x="0" y="0" flags="0x0"/>
      <component glyphName="acute" x="249" y="149" flags="0x4"/>
    </TTGlyph>
    <TTGlyph name="Abreve" xMin="18" yMin="0" xMax="575" yMax="888">
      <component glyphName="A" x="0" y="0" flags="0x0"/>
      <component glyphName="uni0306.case" x="440" y="0" flags="0x0"/>
    </TTGlyph>
    <TTGlyph name="Abreve.ss01" xMin="72" yMin="0" xMax="538" yMax="888">
      <component glyphName="A.ss01" x="0" y="0" flags="0x0"/>
      <component glyphName="uni0306.case" x="449" y="0" flags="0x0"/>
    </TTGlyph>
    <TTGlyph name="Acircumflex" xMin="18" yMin="0" xMax="575" yMax="890">
      <component glyphName="A" x="0" y="0" flags="0x0"/>
      <component glyphName="circumflex" x="145" y="147" flags="0x4"/>
    </TTGlyph>
    <TTGlyph name="Acircumflex.ss01" xMin="72" yMin="0" xMax="538" yMax="890">
      <component glyphName="A.ss01" x="0" y="0" flags="0x0"/>
      <component glyphName="circumflex" x="156" y="147" flags="0x4"/>
    </TTGlyph>
    <TTGlyph name="Adieresis" xMin="18" yMin="0" xMax="575" yMax="864">
      <component glyphName="A" x="0" y="0" flags="0x0"/>
      <component glyphName="dieresis" x="139" y="134" flags="0x4"/>
    </TTGlyph>
    <TTGlyph name="Adieresis.ss01" xMin="72" yMin="0" xMax="538" yMax="862">
      <component glyphName="A.ss01" x="0" y="0" flags="0x0"/>
      <component glyphName="dieresis" x="153" y="132" flags="0x4"/>
    </TTGlyph>
    <TTGlyph name="Agrave" xMin="18" yMin="0" xMax="575" yMax="892">
      <component glyphName="A" x="0" y="0" flags="0x0"/>
      <component glyphName="grave" x="161" y="149" flags="0x4"/>
    </TTGlyph>
    <TTGlyph name="Agrave.ss01" xMin="72" yMin="0" xMax="538" yMax="892">
      <component glyphName="A.ss01" x="0" y="0" flags="0x0"/>
      <component glyphName="grave" x="163" y="149" flags="0x4"/>
    </TTGlyph>
    <TTGlyph name="Amacron" xMin="18" yMin="0" xMax="575" yMax="887">
      <component glyphName="A" x="0" y="0" flags="0x0"/>
      <component glyphName="uni0304.case" x="466" y="0" flags="0x0"/>
    </TTGlyph>
    <TTGlyph name="Amacron.ss01" xMin="72" yMin="0" xMax="538" yMax="887">
      <component glyphName="A.ss01" x="0" y="0" flags="0x0"/>
      <component glyphName="uni0304.case" x="475" y="0" flags="0x0"/>
    </TTGlyph>
    <TTGlyph name="Aogonek" xMin="18" yMin="-196" xMax="574" yMax="688">
      <contour>
        <pt x="492" y="-115" on="0"/>
        <pt x="513" y="-135" on="0"/>
        <pt x="538" y="-135" on="1"/>
        <pt x="549" y="-135" on="0"/>
        <pt x="554" y="-134" on="1"/>
        <pt x="554" y="-193" on="1"/>
        <pt x="526" y="-196" on="0"/>
        <pt x="510" y="-196" on="1"/>
        <pt x="409" y="-196" on="0"/>
        <pt x="409" y="-117" on="1"/>
        <pt x="409" y="-89" on="0"/>
        <pt x="441" y="-25" on="0"/>
        <pt x="468" y="2" on="1"/>
        <pt x="417" y="174" on="1"/>
        <pt x="172" y="174" on="1"/>
        <pt x="122" y="0" on="1"/>
        <pt x="18" y="0" on="1"/>
        <pt x="227" y="688" on="1"/>
        <pt x="365" y="688" on="1"/>
        <pt x="574" y="0" on="1"/>
        <pt x="548" y="0" on="1"/>
        <pt x="527" y="-19" on="0"/>
        <pt x="492" y="-74" on="0"/>
        <pt x="492" y="-96" on="1"/>
      </contour>
      <contour>
        <pt x="390" y="262" on="1"/>
        <pt x="297" y="582" on="1"/>
        <pt x="292" y="582" on="1"/>
        <pt x="198" y="262" on="1"/>
      </contour>
    </TTGlyph>
    <TTGlyph name="Aogonek.ss01" xMin="72" yMin="-196" xMax="538" yMax="696">
      <contour>
        <pt x="494" y="-19" on="0"/>
        <pt x="459" y="-74" on="0"/>
        <pt x="459" y="-96" on="1"/>
        <pt x="459" y="-115" on="0"/>
        <pt x="480" y="-135" on="0"/>
        <pt x="505" y="-135" on="1"/>
        <pt x="515" y="-135" on="0"/>
        <pt x="521" y="-134" on="1"/>
        <pt x="521" y="-193" on="1"/>
        <pt x="500" y="-196" on="0"/>
        <pt x="477" y="-196" on="1"/>
        <pt x="376" y="-196" on="0"/>
        <pt x="376" y="-117" on="1"/>
        <pt x="376" y="-89" on="0"/>
        <pt x="408" y="-25" on="0"/>
        <pt x="435" y="2" on="1"/>
        <pt x="435" y="227" on="1"/>
        <pt x="175" y="227" on="1"/>
        <pt x="175" y="0" on="1"/>
        <pt x="72" y="0" on="1"/>
        <pt x="72" y="386" on="1"/>
        <pt x="72" y="520" on="0"/>
        <pt x="102" y="645" on="0"/>
        <pt x="199" y="696" on="0"/>
        <pt x="305" y="696" on="1"/>
        <pt x="411" y="696" on="0"/>
        <pt x="508" y="645" on="0"/>
        <pt x="538" y="520" on="0"/>
        <pt x="538" y="386" on="1"/>
        <pt x="538" y="0" on="1"/>
        <pt x="515" y="0" on="1"/>
      </contour>
      <contour>
        <pt x="435" y="319" on="1"/>
        <pt x="435" y="421" on="1"/>
        <pt x="435" y="509" on="0"/>
        <pt x="421" y="580" on="0"/>
        <pt x="369" y="607" on="0"/>
        <pt x="305" y="607" on="1"/>
        <pt x="241" y="607" on="0"/>
        <pt x="189" y="580" on="0"/>
        <pt x="175" y="509" on="0"/>
        <pt x="175" y="421" on="1"/>
        <pt x="175" y="319" on="1"/>
      </contour>
    </TTGlyph>
    <TTGlyph name="Aring" xMin="18" yMin="0" xMax="575" yMax="887">
      <contour>
        <pt x="575" y="0" on="1"/>
        <pt x="469" y="0" on="1"/>
        <pt x="417" y="174" on="1"/>
        <pt x="173" y="174" on="1"/>
        <pt x="122" y="0" on="1"/>
        <pt x="18" y="0" on="1"/>
        <pt x="225" y="683" on="1"/>
        <pt x="192" y="692" on="0"/>
        <pt x="174" y="735" on="0"/>
        <pt x="174" y="781" on="1"/>
        <pt x="174" y="823" on="0"/>
        <pt x="188" y="866" on="0"/>
        <pt x="240" y="887" on="0"/>
        <pt x="296" y="887" on="1"/>
        <pt x="353" y="887" on="0"/>
        <pt x="405" y="866" on="0"/>
        <pt x="419" y="823" on="0"/>
        <pt x="419" y="781" on="1"/>
        <pt x="419" y="735" on="0"/>
        <pt x="401" y="692" on="0"/>
        <pt x="368" y="683" on="1"/>
      </contour>
      <contour>
        <pt x="267" y="838" on="0"/>
        <pt x="241" y="828" on="0"/>
        <pt x="235" y="806" on="0"/>
        <pt x="235" y="781" on="1"/>
        <pt x="235" y="756" on="0"/>
        <pt x="241" y="734" on="0"/>
        <pt x="267" y="724" on="0"/>
        <pt x="296" y="724" on="1"/>
        <pt x="326" y="724" on="0"/>
        <pt x="351" y="734" on="0"/>
        <pt x="358" y="756" on="0"/>
        <pt x="358" y="781" on="1"/>
        <pt x="358" y="806" on="0"/>
        <pt x="351" y="828" on="0"/>
        <pt x="326" y="838" on="0"/>
        <pt x="296" y="838" on="1"/>
      </contour>
      <contour>
        <pt x="391" y="262" on="1"/>
        <pt x="297" y="583" on="1"/>
        <pt x="292" y="583" on="1"/>
        <pt x="198" y="262" on="1"/>
      </contour>
    </TTGlyph>
    <TTGlyph name="Aring.ss01" xMin="72" yMin="0" xMax="538" yMax="948">
      <component glyphName="A.ss01" x="0" y="0" flags="0x0"/>
      <component glyphName="ring" x="172" y="132" flags="0x4"/>
    </TTGlyph>
    <TTGlyph name="Aringacute" xMin="18" yMin="0" xMax="575" yMax="1087">
      <component glyphName="Aring" x="0" y="0" flags="0x0"/>
      <component glyphName="acutecomb.case" x="444" y="199" flags="0x4"/>
    </TTGlyph>
    <TTGlyph name="Aringacute.ss01" xMin="72" yMin="0" xMax="538" yMax="1101">
      <component glyphName="A.ss01" x="0" y="0" flags="0x0"/>
      <component glyphName="uni030A.case" x="442" y="0" flags="0x0"/>
      <component glyphName="acutecomb.case" x="456" y="213" flags="0x4"/>
    </TTGlyph>
    <TTGlyph name="Atilde" xMin="18" yMin="0" xMax="575" yMax="882">
      <component glyphName="A" x="0" y="0" flags="0x0"/>
      <component glyphName="tilde" x="117" y="138" flags="0x4"/>
    </TTGlyph>
    <TTGlyph name="Atilde.ss01" xMin="72" yMin="0" xMax="538" yMax="882">
      <component glyphName="A.ss01" x="0" y="0" flags="0x0"/>
      <component glyphName="tilde" x="128" y="138" flags="0x4"/>
    </TTGlyph>
    <TTGlyph name="B" xMin="79" yMin="0" xMax="534" yMax="688">
      <contour>
        <pt x="79" y="688" on="1"/>
        <pt x="352" y="688" on="1"/>
        <pt x="444" y="688" on="0"/>
        <pt x="527" y="600" on="0"/>
        <pt x="527" y="515" on="1"/>
        <pt x="527" y="445" on="0"/>
        <pt x="475" y="366" on="0"/>
        <pt x="418" y="353" on="1"/>
        <pt x="418" y="349" on="1"/>
        <pt x="482" y="336" on="0"/>
        <pt x="534" y="254" on="0"/>
        <pt x="534" y="182" on="1"/>
        <pt x="534" y="96" on="0"/>
        <pt x="453" y="0" on="0"/>
        <pt x="350" y="0" on="1"/>
        <pt x="79" y="0" on="1"/>
      </contour>
      <contour>
        <pt x="375" y="393" on="0"/>
        <pt x="423" y="441" on="0"/>
        <pt x="423" y="496" on="1"/>
        <pt x="423" y="537" on="0"/>
        <pt x="406" y="580" on="0"/>
        <pt x="361" y="599" on="0"/>
        <pt x="319" y="599" on="1"/>
        <pt x="182" y="599" on="1"/>
        <pt x="182" y="393" on="1"/>
        <pt x="319" y="393" on="1"/>
      </contour>
      <contour>
        <pt x="366" y="88" on="0"/>
        <pt x="411" y="108" on="0"/>
        <pt x="430" y="154" on="0"/>
        <pt x="430" y="195" on="1"/>
        <pt x="430" y="257" on="0"/>
        <pt x="384" y="304" on="0"/>
        <pt x="324" y="304" on="1"/>
        <pt x="182" y="304" on="1"/>
        <pt x="182" y="88" on="1"/>
        <pt x="324" y="88" on="1"/>
      </contour>
    </TTGlyph>
    <TTGlyph name="C" xMin="60" yMin="-8" xMax="447" yMax="696">
      <contour>
        <pt x="420" y="0" on="0"/>
        <pt x="339" y="-8" on="0"/>
        <pt x="304" y="-8" on="1"/>
        <pt x="195" y="-8" on="0"/>
        <pt x="94" y="49" on="0"/>
        <pt x="60" y="192" on="0"/>
        <pt x="60" y="344" on="1"/>
        <pt x="60" y="495" on="0"/>
        <pt x="94" y="639" on="0"/>
        <pt x="195" y="696" on="0"/>
        <pt x="304" y="696" on="1"/>
        <pt x="340" y="696" on="0"/>
        <pt x="419" y="687" on="0"/>
        <pt x="444" y="680" on="1"/>
        <pt x="444" y="598" on="1"/>
        <pt x="383" y="607" on="0"/>
        <pt x="329" y="607" on="1"/>
        <pt x="247" y="607" on="0"/>
        <pt x="183" y="575" on="0"/>
        <pt x="163" y="473" on="0"/>
        <pt x="163" y="344" on="1"/>
        <pt x="163" y="215" on="0"/>
        <pt x="183" y="113" on="0"/>
        <pt x="247" y="81" on="0"/>
        <pt x="329" y="81" on="1"/>
        <pt x="399" y="81" on="0"/>
        <pt x="447" y="90" on="1"/>
        <pt x="447" y="6" on="1"/>
      </contour>
    </TTGlyph>
    <TTGlyph name="Cacute" xMin="60" yMin="-8" xMax="447" yMax="888">
      <component glyphName="C" x="0" y="0" flags="0x0"/>
      <component glyphName="acutecomb.case" x="393" y="0" flags="0x0"/>
    </TTGlyph>
    <TTGlyph name="Cacute.loclPLK" xMin="60" yMin="-8" xMax="447" yMax="888">
      <component glyphName="C" x="0" y="0" flags="0x0"/>
      <component glyphName="acute.case.loclPLK" x="190" y="0" flags="0x0"/>
    </TTGlyph>
    <TTGlyph name="Ccaron" xMin="60" yMin="-8" xMax="447" yMax="888">
      <component glyphName="C" x="0" y="0" flags="0x0"/>
      <component glyphName="uni030C.case" x="396" y="0" flags="0x0"/>
    </TTGlyph>
    <TTGlyph name="Ccedilla" xMin="60" yMin="-190" xMax="447" yMax="696">
      <contour>
        <pt x="399" y="81" on="0"/>
        <pt x="447" y="90" on="1"/>
        <pt x="447" y="6" on="1"/>
        <pt x="420" y="0" on="0"/>
        <pt x="339" y="-8" on="0"/>
        <pt x="304" y="-8" on="1"/>
        <pt x="277" y="-8" on="1"/>
        <pt x="240" y="-190" on="1"/>
        <pt x="146" y="-190" on="1"/>
        <pt x="146" y="-185" on="1"/>
        <pt x="209" y="-1" on="1"/>
        <pt x="145" y="10" on="0"/>
        <pt x="82" y="81" on="0"/>
        <pt x="60" y="217" on="0"/>
        <pt x="60" y="344" on="1"/>
        <pt x="60" y="495" on="0"/>
        <pt x="94" y="639" on="0"/>
        <pt x="195" y="696" on="0"/>
        <pt x="304" y="696" on="1"/>
        <pt x="340" y="696" on="0"/>
        <pt x="419" y="687" on="0"/>
        <pt x="444" y="680" on="1"/>
        <pt x="444" y="598" on="1"/>
        <pt x="383" y="607" on="0"/>
        <pt x="329" y="607" on="1"/>
        <pt x="247" y="607" on="0"/>
        <pt x="183" y="575" on="0"/>
        <pt x="163" y="473" on="0"/>
        <pt x="163" y="344" on="1"/>
        <pt x="163" y="215" on="0"/>
        <pt x="183" y="113" on="0"/>
        <pt x="247" y="81" on="0"/>
        <pt x="329" y="81" on="1"/>
      </contour>
    </TTGlyph>
    <TTGlyph name="Ccircumflex" xMin="60" yMin="-8" xMax="447" yMax="888">
      <component glyphName="C" x="0" y="0" flags="0x0"/>
      <component glyphName="uni0302.case" x="396" y="0" flags="0x0"/>
    </TTGlyph>
    <TTGlyph name="Cdotaccent" xMin="60" yMin="-8" xMax="447" yMax="875">
      <component glyphName="C" x="0" y="0" flags="0x0"/>
      <component glyphName="uni0307.case" x="306" y="0" flags="0x0"/>
    </TTGlyph>
    <TTGlyph name="D" xMin="79" yMin="0" xMax="535" yMax="688">
      <contour>
        <pt x="79" y="688" on="1"/>
        <pt x="278" y="688" on="1"/>
        <pt x="402" y="688" on="0"/>
        <pt x="507" y="634" on="0"/>
        <pt x="535" y="501" on="0"/>
        <pt x="535" y="344" on="1"/>
        <pt x="535" y="187" on="0"/>
        <pt x="507" y="54" on="0"/>
        <pt x="402" y="0" on="0"/>
        <pt x="278" y="0" on="1"/>
        <pt x="79" y="0" on="1"/>
      </contour>
      <contour>
        <pt x="271" y="89" on="1"/>
        <pt x="355" y="89" on="0"/>
        <pt x="414" y="113" on="0"/>
        <pt x="432" y="210" on="0"/>
        <pt x="432" y="344" on="1"/>
        <pt x="432" y="477" on="0"/>
        <pt x="413" y="574" on="0"/>
        <pt x="354" y="599" on="0"/>
        <pt x="271" y="599" on="1"/>
        <pt x="182" y="599" on="1"/>
        <pt x="182" y="89" on="1"/>
      </contour>
    </TTGlyph>
    <TTGlyph name="Dcaron" xMin="79" yMin="0" xMax="535" yMax="888">
      <component glyphName="D" x="0" y="0" flags="0x0"/>
      <component glyphName="uni030C.case" x="449" y="0" flags="0x0"/>
    </TTGlyph>
    <TTGlyph name="Dcroat" xMin="17" yMin="0" xMax="535" yMax="688">
      <component glyphName="Eth" x="0" y="0" flags="0x0"/>
    </TTGlyph>
    <TTGlyph name="E" xMin="79" yMin="0" xMax="475" yMax="688">
      <contour>
        <pt x="79" y="688" on="1"/>
        <pt x="475" y="688" on="1"/>
        <pt x="475" y="599" on="1"/>
        <pt x="182" y="599" on="1"/>
        <pt x="182" y="392" on="1"/>
        <pt x="435" y="392" on="1"/>
        <pt x="435" y="303" on="1"/>
        <pt x="182" y="303" on="1"/>
        <pt x="182" y="89" on="1"/>
        <pt x="475" y="89" on="1"/>
        <pt x="475" y="0" on="1"/>
        <pt x="79" y="0" on="1"/>
      </contour>
    </TTGlyph>
    <TTGlyph name="Eacute" xMin="79" yMin="0" xMax="475" yMax="892">
      <component glyphName="E" x="0" y="0" flags="0x0"/>
      <component glyphName="acute" x="229" y="149" flags="0x4"/>
    </TTGlyph>
    <TTGlyph name="Ebreve" xMin="79" yMin="0" xMax="475" yMax="888">
      <component glyphName="E" x="0" y="0" flags="0x0"/>
      <component glyphName="uni0306.case" x="418" y="0" flags="0x0"/>
    </TTGlyph>
    <TTGlyph name="Ecaron" xMin="79" yMin="0" xMax="475" yMax="888">
      <component glyphName="E" x="0" y="0" flags="0x0"/>
      <component glyphName="uni030C.case" x="426" y="0" flags="0x0"/>
    </TTGlyph>
    <TTGlyph name="Ecircumflex" xMin="79" yMin="0" xMax="475" yMax="890">
      <component glyphName="E" x="0" y="0" flags="0x0"/>
      <component glyphName="circumflex" x="124" y="147" flags="0x4"/>
    </TTGlyph>
    <TTGlyph name="Edieresis" xMin="79" yMin="0" xMax="475" yMax="864">
      <component glyphName="E" x="0" y="0" flags="0x0"/>
      <component glyphName="dieresis" x="122" y="134" flags="0x4"/>
    </TTGlyph>
    <TTGlyph name="Edotaccent" xMin="79" yMin="0" xMax="475" yMax="875">
      <component glyphName="E" x="0" y="0" flags="0x0"/>
      <component glyphName="uni0307.case" x="336" y="0" flags="0x0"/>
    </TTGlyph>
    <TTGlyph name="Egrave" xMin="79" yMin="0" xMax="475" yMax="892">
      <component glyphName="E" x="0" y="0" flags="0x0"/>
      <component glyphName="grave" x="141" y="149" flags="0x4"/>
    </TTGlyph>
    <TTGlyph name="Emacron" xMin="79" yMin="0" xMax="475" yMax="887">
      <component glyphName="E" x="0" y="0" flags="0x0"/>
      <component glyphName="uni0304.case" x="444" y="0" flags="0x0"/>
    </TTGlyph>
    <TTGlyph name="Eng" xMin="78" yMin="-197" xMax="552" yMax="688">
      <contour>
        <pt x="552" y="688" on="1"/>
        <pt x="552" y="-42" on="1"/>
        <pt x="552" y="-114" on="0"/>
        <pt x="521" y="-178" on="0"/>
        <pt x="450" y="-197" on="0"/>
        <pt x="373" y="-197" on="1"/>
        <pt x="373" y="-121" on="1"/>
        <pt x="410" y="-121" on="0"/>
        <pt x="443" y="-111" on="0"/>
        <pt x="453" y="-90" on="0"/>
        <pt x="453" y="-67" on="1"/>
        <pt x="453" y="2" on="1"/>
        <pt x="182" y="492" on="1"/>
        <pt x="178" y="492" on="1"/>
        <pt x="178" y="0" on="1"/>
        <pt x="78" y="0" on="1"/>
        <pt x="78" y="688" on="1"/>
        <pt x="186" y="688" on="1"/>
        <pt x="449" y="212" on="1"/>
        <pt x="453" y="212" on="1"/>
        <pt x="453" y="688" on="1"/>
      </contour>
    </TTGlyph>
    <TTGlyph name="Eogonek" xMin="78" yMin="-196" xMax="474" yMax="688">
      <contour>
        <pt x="371" y="-196" on="0"/>
        <pt x="325" y="-154" on="0"/>
        <pt x="325" y="-120" on="1"/>
        <pt x="325" y="-60" on="0"/>
        <pt x="392" y="0" on="1"/>
        <pt x="78" y="0" on="1"/>
        <pt x="78" y="688" on="1"/>
        <pt x="474" y="688" on="1"/>
        <pt x="474" y="599" on="1"/>
        <pt x="182" y="599" on="1"/>
        <pt x="182" y="392" on="1"/>
        <pt x="435" y="392" on="1"/>
        <pt x="435" y="303" on="1"/>
        <pt x="182" y="303" on="1"/>
        <pt x="182" y="89" on="1"/>
        <pt x="474" y="89" on="1"/>
        <pt x="474" y="0" on="1"/>
        <pt x="450" y="-17" on="0"/>
        <pt x="407" y="-73" on="0"/>
        <pt x="407" y="-98" on="1"/>
        <pt x="407" y="-114" on="0"/>
        <pt x="428" y="-135" on="0"/>
        <pt x="452" y="-135" on="1"/>
        <pt x="466" y="-135" on="0"/>
        <pt x="469" y="-134" on="1"/>
        <pt x="469" y="-193" on="1"/>
        <pt x="451" y="-196" on="0"/>
        <pt x="425" y="-196" on="1"/>
      </contour>
    </TTGlyph>
    <TTGlyph name="Eth" xMin="17" yMin="0" xMax="535" yMax="688">
      <contour>
        <pt x="79" y="307" on="1"/>
        <pt x="17" y="307" on="1"/>
        <pt x="17" y="389" on="1"/>
        <pt x="79" y="389" on="1"/>
        <pt x="79" y="688" on="1"/>
        <pt x="278" y="688" on="1"/>
        <pt x="402" y="688" on="0"/>
        <pt x="507" y="634" on="0"/>
        <pt x="535" y="501" on="0"/>
        <pt x="535" y="344" on="1"/>
        <pt x="535" y="187" on="0"/>
        <pt x="507" y="54" on="0"/>
        <pt x="402" y="0" on="0"/>
        <pt x="278" y="0" on="1"/>
        <pt x="79" y="0" on="1"/>
      </contour>
      <contour>
        <pt x="355" y="89" on="0"/>
        <pt x="414" y="113" on="0"/>
        <pt x="432" y="210" on="0"/>
        <pt x="432" y="344" on="1"/>
        <pt x="432" y="477" on="0"/>
        <pt x="413" y="574" on="0"/>
        <pt x="354" y="599" on="0"/>
        <pt x="271" y="599" on="1"/>
        <pt x="182" y="599" on="1"/>
        <pt x="182" y="389" on="1"/>
        <pt x="279" y="389" on="1"/>
        <pt x="279" y="307" on="1"/>
        <pt x="182" y="307" on="1"/>
        <pt x="182" y="89" on="1"/>
        <pt x="271" y="89" on="1"/>
      </contour>
    </TTGlyph>
    <TTGlyph name="Euro" xMin="34" yMin="-8" xMax="487" yMax="696">
      <contour>
        <pt x="251" y="-8" on="0"/>
        <pt x="154" y="32" on="0"/>
        <pt x="110" y="135" on="0"/>
        <pt x="105" y="238" on="1"/>
        <pt x="34" y="238" on="1"/>
        <pt x="34" y="300" on="1"/>
        <pt x="103" y="300" on="1"/>
        <pt x="103" y="391" on="1"/>
        <pt x="34" y="391" on="1"/>
        <pt x="34" y="452" on="1"/>
        <pt x="106" y="452" on="1"/>
        <pt x="111" y="550" on="0"/>
        <pt x="155" y="653" on="0"/>
        <pt x="254" y="696" on="0"/>
        <pt x="345" y="696" on="1"/>
        <pt x="391" y="696" on="0"/>
        <pt x="470" y="685" on="0"/>
        <pt x="484" y="680" on="1"/>
        <pt x="484" y="598" on="1"/>
        <pt x="470" y="601" on="0"/>
        <pt x="398" y="607" on="0"/>
        <pt x="369" y="607" on="1"/>
        <pt x="302" y="607" on="0"/>
        <pt x="240" y="587" on="0"/>
        <pt x="212" y="523" on="0"/>
        <pt x="209" y="452" on="1"/>
        <pt x="440" y="452" on="1"/>
        <pt x="440" y="391" on="1"/>
        <pt x="207" y="391" on="1"/>
        <pt x="207" y="300" on="1"/>
        <pt x="440" y="300" on="1"/>
        <pt x="440" y="238" on="1"/>
        <pt x="209" y="238" on="1"/>
        <pt x="212" y="166" on="0"/>
        <pt x="240" y="101" on="0"/>
        <pt x="302" y="81" on="0"/>
        <pt x="369" y="81" on="1"/>
        <pt x="406" y="81" on="0"/>
        <pt x="475" y="87" on="0"/>
        <pt x="487" y="90" on="1"/>
        <pt x="487" y="5" on="1"/>
        <pt x="469" y="1" on="0"/>
        <pt x="389" y="-8" on="0"/>
        <pt x="345" y="-8" on="1"/>
      </contour>
    </TTGlyph>
    <TTGlyph name="F" xMin="79" yMin="0" xMax="457" yMax="688">
      <contour>
        <pt x="79" y="688" on="1"/>
        <pt x="457" y="688" on="1"/>
        <pt x="457" y="599" on="1"/>
        <pt x="182" y="599" on="1"/>
        <pt x="182" y="376" on="1"/>
        <pt x="426" y="376" on="1"/>
        <pt x="426" y="287" on="1"/>
        <pt x="182" y="287" on="1"/>
        <pt x="182" y="0" on="1"/>
        <pt x="79" y="0" on="1"/>
      </contour>
    </TTGlyph>
    <TTGlyph name="G" xMin="60" yMin="-8" xMax="513" yMax="696">
      <contour>
        <pt x="301" y="292" on="1"/>
        <pt x="301" y="378" on="1"/>
        <pt x="513" y="378" on="1"/>
        <pt x="513" y="12" on="1"/>
        <pt x="471" y="3" on="0"/>
        <pt x="361" y="-8" on="0"/>
        <pt x="318" y="-8" on="1"/>
        <pt x="207" y="-8" on="0"/>
        <pt x="100" y="47" on="0"/>
        <pt x="60" y="192" on="0"/>
        <pt x="60" y="344" on="1"/>
        <pt x="60" y="493" on="0"/>
        <pt x="101" y="639" on="0"/>
        <pt x="209" y="696" on="0"/>
        <pt x="319" y="696" on="1"/>
        <pt x="367" y="696" on="0"/>
        <pt x="478" y="683" on="0"/>
        <pt x="511" y="675" on="1"/>
        <pt x="511" y="593" on="1"/>
        <pt x="477" y="598" on="0"/>
        <pt x="388" y="607" on="0"/>
        <pt x="360" y="607" on="1"/>
        <pt x="265" y="607" on="0"/>
        <pt x="191" y="581" on="0"/>
        <pt x="163" y="476" on="0"/>
        <pt x="163" y="344" on="1"/>
        <pt x="163" y="223" on="0"/>
        <pt x="184" y="116" on="0"/>
        <pt x="248" y="78" on="0"/>
        <pt x="320" y="78" on="1"/>
        <pt x="370" y="78" on="0"/>
        <pt x="414" y="85" on="1"/>
        <pt x="414" y="292" on="1"/>
      </contour>
    </TTGlyph>
    <TTGlyph name="G.ss01" xMin="60" yMin="-8" xMax="540" yMax="696">
      <contour>
        <pt x="204" y="-8" on="0"/>
        <pt x="98" y="48" on="0"/>
        <pt x="60" y="193" on="0"/>
        <pt x="60" y="344" on="1"/>
        <pt x="60" y="493" on="0"/>
        <pt x="103" y="639" on="0"/>
        <pt x="213" y="696" on="0"/>
        <pt x="326" y="696" on="1"/>
        <pt x="370" y="696" on="0"/>
        <pt x="477" y="684" on="0"/>
        <pt x="519" y="675" on="1"/>
        <pt x="519" y="593" on="1"/>
        <pt x="419" y="607" on="0"/>
        <pt x="366" y="607" on="1"/>
        <pt x="268" y="607" on="0"/>
        <pt x="191" y="580" on="0"/>
        <pt x="162" y="475" on="0"/>
        <pt x="162" y="344" on="1"/>
        <pt x="162" y="220" on="0"/>
        <pt x="183" y="113" on="0"/>
        <pt x="243" y="80" on="0"/>
        <pt x="312" y="80" on="1"/>
        <pt x="376" y="80" on="0"/>
        <pt x="425" y="103" on="0"/>
        <pt x="438" y="175" on="0"/>
        <pt x="438" y="272" on="1"/>
        <pt x="438" y="300" on="1"/>
        <pt x="318" y="300" on="1"/>
        <pt x="318" y="387" on="1"/>
        <pt x="540" y="387" on="1"/>
        <pt x="540" y="292" on="1"/>
        <pt x="540" y="155" on="0"/>
        <pt x="518" y="42" on="0"/>
        <pt x="426" y="-8" on="0"/>
        <pt x="317" y="-8" on="1"/>
      </contour>
    </TTGlyph>
    <TTGlyph name="G_tilde.loclGUA" xMin="60" yMin="-8" xMax="513" yMax="889">
      <component glyphName="G" x="0" y="0" flags="0x0"/>
      <component glyphName="tildecomb.case" x="470" y="0" flags="0x0"/>
    </TTGlyph>
    <TTGlyph name="Gbreve" xMin="60" yMin="-8" xMax="513" yMax="888">
      <component glyphName="G" x="0" y="0" flags="0x0"/>
      <component glyphName="uni0306.case" x="434" y="0" flags="0x0"/>
    </TTGlyph>
    <TTGlyph name="Gbreve.ss01" xMin="60" yMin="-8" xMax="540" yMax="888">
      <component glyphName="G.ss01" x="0" y="0" flags="0x0"/>
      <component glyphName="uni0306.case" x="442" y="0" flags="0x0"/>
    </TTGlyph>
    <TTGlyph name="Gcaron" xMin="60" yMin="-8" xMax="513" yMax="888">
      <component glyphName="G" x="0" y="0" flags="0x0"/>
      <component glyphName="uni030C.case" x="442" y="0" flags="0x0"/>
    </TTGlyph>
    <TTGlyph name="Gcaron.ss01" xMin="60" yMin="-8" xMax="540" yMax="888">
      <component glyphName="G.ss01" x="0" y="0" flags="0x0"/>
      <component glyphName="uni030C.case" x="450" y="0" flags="0x0"/>
    </TTGlyph>
    <TTGlyph name="Gcircumflex" xMin="60" yMin="-8" xMax="513" yMax="888">
      <component glyphName="G" x="0" y="0" flags="0x0"/>
      <component glyphName="uni0302.case" x="442" y="0" flags="0x0"/>
    </TTGlyph>
    <TTGlyph name="Gcircumflex.ss01" xMin="60" yMin="-8" xMax="540" yMax="888">
      <component glyphName="G.ss01" x="0" y="0" flags="0x0"/>
      <component glyphName="uni0302.case" x="450" y="0" flags="0x0"/>
    </TTGlyph>
    <TTGlyph name="Gcommaaccent" xMin="60" yMin="-273" xMax="513" yMax="696">
      <component glyphName="G" x="0" y="0" flags="0x0"/>
      <component glyphName="uni0326" x="406" y="0" flags="0x0"/>
    </TTGlyph>
    <TTGlyph name="Gcommaaccent.ss01" xMin="60" yMin="-273" xMax="540" yMax="696">
      <component glyphName="G.ss01" x="0" y="0" flags="0x0"/>
      <component glyphName="uni0326" x="414" y="0" flags="0x0"/>
    </TTGlyph>
    <TTGlyph name="Gdotaccent" xMin="60" yMin="-8" xMax="513" yMax="875">
      <component glyphName="G" x="0" y="0" flags="0x0"/>
      <component glyphName="uni0307.case" x="352" y="0" flags="0x0"/>
    </TTGlyph>
    <TTGlyph name="Gdotaccent.ss01" xMin="60" yMin="-8" xMax="540" yMax="875">
      <component glyphName="G.ss01" x="0" y="0" flags="0x0"/>
      <component glyphName="uni0307.case" x="360" y="0" flags="0x0"/>
    </TTGlyph>
    <TTGlyph name="Gtilde.loclGUA.ss01" xMin="60" yMin="-8" xMax="540" yMax="889">
      <component glyphName="G.ss01" x="0" y="0" flags="0x0"/>
      <component glyphName="tildecomb.case" x="478" y="0" flags="0x0"/>
    </TTGlyph>
    <TTGlyph name="H" xMin="78" yMin="0" xMax="551" yMax="688">
      <contour>
        <pt x="448" y="301" on="1"/>
        <pt x="182" y="301" on="1"/>
        <pt x="182" y="0" on="1"/>
        <pt x="78" y="0" on="1"/>
        <pt x="78" y="688" on="1"/>
        <pt x="182" y="688" on="1"/>
        <pt x="182" y="393" on="1"/>
        <pt x="448" y="393" on="1"/>
        <pt x="448" y="688" on="1"/>
        <pt x="551" y="688" on="1"/>
        <pt x="551" y="0" on="1"/>
        <pt x="448" y="0" on="1"/>
      </contour>
    </TTGlyph>
    <TTGlyph name="Hbar" xMin="78" yMin="0" xMax="551" yMax="688">
      <contour>
        <pt x="551" y="688" on="1"/>
        <pt x="551" y="0" on="1"/>
        <pt x="448" y="0" on="1"/>
        <pt x="448" y="266" on="1"/>
        <pt x="182" y="266" on="1"/>
        <pt x="182" y="0" on="1"/>
        <pt x="78" y="0" on="1"/>
        <pt x="78" y="688" on="1"/>
        <pt x="182" y="688" on="1"/>
        <pt x="182" y="560" on="1"/>
        <pt x="448" y="560" on="1"/>
        <pt x="448" y="688" on="1"/>
      </contour>
      <contour>
        <pt x="448" y="358" on="1"/>
        <pt x="448" y="478" on="1"/>
        <pt x="182" y="478" on="1"/>
        <pt x="182" y="358" on="1"/>
      </contour>
    </TTGlyph>
    <TTGlyph name="Hcircumflex" xMin="78" yMin="0" xMax="551" yMax="888">
      <component glyphName="H" x="0" y="0" flags="0x0"/>
      <component glyphName="uni0302.case" x="466" y="0" flags="0x0"/>
    </TTGlyph>
    <TTGlyph name="I" xMin="80" yMin="0" xMax="183" yMax="688">
      <contour>
        <pt x="80" y="688" on="1"/>
        <pt x="183" y="688" on="1"/>
        <pt x="183" y="0" on="1"/>
        <pt x="80" y="0" on="1"/>
      </contour>
    </TTGlyph>
    <TTGlyph name="IJ" xMin="80" yMin="0" xMax="508" yMax="688">
      <component glyphName="I" x="0" y="0" flags="0x0"/>
      <component glyphName="J" x="263" y="0" flags="0x0"/>
    </TTGlyph>
    <TTGlyph name="Iacute" xMin="80" yMin="0" xMax="259" yMax="892">
      <component glyphName="I" x="0" y="0" flags="0x0"/>
      <component glyphName="acute" x="69" y="149" flags="0x4"/>
    </TTGlyph>
    <TTGlyph name="Iacute_J.loclNLD" xMin="80" yMin="0" xMax="592" yMax="888">
      <component glyphName="I" x="0" y="0" flags="0x0"/>
      <component glyphName="acutecomb.case" x="279" y="0" flags="0x0"/>
      <component glyphName="J" x="263" y="0" flags="0x0"/>
      <component glyphName="acutecomb.case" x="605" y="0" flags="0x0"/>
    </TTGlyph>
    <TTGlyph name="Ibreve" xMin="0" yMin="0" xMax="260" yMax="888">
      <component glyphName="I" x="0" y="0" flags="0x0"/>
      <component glyphName="uni0306.case" x="274" y="0" flags="0x0"/>
    </TTGlyph>
    <TTGlyph name="Icircumflex" xMin="-7" yMin="0" xMax="269" yMax="890">
      <component glyphName="I" x="0" y="0" flags="0x0"/>
      <component glyphName="circumflex" x="-20" y="147" flags="0x4"/>
    </TTGlyph>
    <TTGlyph name="Idieresis" xMin="-6" yMin="0" xMax="268" yMax="864">
      <component glyphName="I" x="0" y="0" flags="0x0"/>
      <component glyphName="dieresis" x="-25" y="134" flags="0x4"/>
    </TTGlyph>
    <TTGlyph name="Idotaccent" xMin="80" yMin="0" xMax="183" yMax="875">
      <component glyphName="I" x="0" y="0" flags="0x0"/>
      <component glyphName="uni0307.case" x="192" y="0" flags="0x0"/>
    </TTGlyph>
    <TTGlyph name="Igrave" xMin="8" yMin="0" xMax="185" yMax="892">
      <component glyphName="I" x="0" y="0" flags="0x0"/>
      <component glyphName="grave" x="-5" y="149" flags="0x4"/>
    </TTGlyph>
    <TTGlyph name="Imacron" xMin="17" yMin="0" xMax="245" yMax="887">
      <component glyphName="I" x="0" y="0" flags="0x0"/>
      <component glyphName="uni0304.case" x="300" y="0" flags="0x0"/>
    </TTGlyph>
    <TTGlyph name="Iogonek" xMin="39" yMin="-196" xMax="184" yMax="688">
      <contour>
        <pt x="39" y="-196" on="0"/>
        <pt x="39" y="-117" on="1"/>
        <pt x="39" y="-89" on="0"/>
        <pt x="73" y="-27" on="0"/>
        <pt x="100" y="0" on="1"/>
        <pt x="80" y="0" on="1"/>
        <pt x="80" y="688" on="1"/>
        <pt x="183" y="688" on="1"/>
        <pt x="183" y="0" on="1"/>
        <pt x="161" y="-16" on="0"/>
        <pt x="122" y="-73" on="0"/>
        <pt x="122" y="-96" on="1"/>
        <pt x="122" y="-115" on="0"/>
        <pt x="143" y="-135" on="0"/>
        <pt x="168" y="-135" on="1"/>
        <pt x="181" y="-135" on="0"/>
        <pt x="184" y="-134" on="1"/>
        <pt x="184" y="-193" on="1"/>
        <pt x="163" y="-196" on="0"/>
        <pt x="139" y="-196" on="1"/>
      </contour>
    </TTGlyph>
    <TTGlyph name="Itilde" xMin="-35" yMin="0" xMax="296" yMax="889">
      <component glyphName="I" x="0" y="0" flags="0x0"/>
      <component glyphName="tildecomb.case" x="310" y="0" flags="0x0"/>
    </TTGlyph>
    <TTGlyph name="J" xMin="22" yMin="0" xMax="245" yMax="688">
      <contour>
        <pt x="87" y="86" on="0"/>
        <pt x="131" y="104" on="0"/>
        <pt x="142" y="162" on="0"/>
        <pt x="142" y="248" on="1"/>
        <pt x="142" y="688" on="1"/>
        <pt x="245" y="688" on="1"/>
        <pt x="245" y="278" on="1"/>
        <pt x="245" y="133" on="0"/>
        <pt x="222" y="30" on="0"/>
        <pt x="138" y="1" on="0"/>
        <pt x="22" y="0" on="1"/>
        <pt x="22" y="84" on="1"/>
      </contour>
    </TTGlyph>
    <TTGlyph name="Jcircumflex" xMin="22" yMin="0" xMax="332" yMax="888">
      <component glyphName="J" x="0" y="0" flags="0x0"/>
      <component glyphName="uni0302.case" x="345" y="0" flags="0x0"/>
    </TTGlyph>
    <TTGlyph name="K" xMin="79" yMin="0" xMax="566" yMax="688">
      <contour>
        <pt x="263" y="305" on="1"/>
        <pt x="182" y="305" on="1"/>
        <pt x="182" y="0" on="1"/>
        <pt x="79" y="0" on="1"/>
        <pt x="79" y="688" on="1"/>
        <pt x="182" y="688" on="1"/>
        <pt x="182" y="394" on="1"/>
        <pt x="263" y="394" on="1"/>
        <pt x="452" y="688" on="1"/>
        <pt x="563" y="688" on="1"/>
        <pt x="347" y="356" on="1"/>
        <pt x="566" y="0" on="1"/>
        <pt x="449" y="0" on="1"/>
      </contour>
    </TTGlyph>
    <TTGlyph name="Kcommaaccent" xMin="79" yMin="-273" xMax="566" yMax="688">
      <component glyphName="K" x="0" y="0" flags="0x0"/>
      <component glyphName="uni0326" x="406" y="0" flags="0x0"/>
    </TTGlyph>
    <TTGlyph name="L" xMin="79" yMin="0" xMax="441" yMax="688">
      <contour>
        <pt x="79" y="688" on="1"/>
        <pt x="182" y="688" on="1"/>
        <pt x="182" y="92" on="1"/>
        <pt x="441" y="92" on="1"/>
        <pt x="441" y="0" on="1"/>
        <pt x="79" y="0" on="1"/>
      </contour>
    </TTGlyph>
    <TTGlyph name="Lacute" xMin="79" yMin="0" xMax="441" yMax="888">
      <component glyphName="L" x="0" y="0" flags="0x0"/>
      <component glyphName="acutecomb.case" x="299" y="0" flags="0x0"/>
    </TTGlyph>
    <TTGlyph name="Lcaron" xMin="79" yMin="0" xMax="441" yMax="721">
      <component glyphName="L" x="0" y="0" flags="0x0"/>
      <component glyphName="caron.loclCSY" x="285" y="33" flags="0x4"/>
    </TTGlyph>
    <TTGlyph name="Lcommaaccent" xMin="79" yMin="-273" xMax="441" yMax="688">
      <component glyphName="L" x="0" y="0" flags="0x0"/>
      <component glyphName="uni0326" x="359" y="0" flags="0x0"/>
    </TTGlyph>
    <TTGlyph name="Ldot" xMin="79" yMin="0" xMax="441" yMax="688">
      <component glyphName="L" x="0" y="0" flags="0x0"/>
      <component glyphName="periodcentered" x="253" y="65" flags="0x4"/>
    </TTGlyph>
    <TTGlyph name="Lslash" xMin="24" yMin="0" xMax="441" yMax="688">
      <contour>
        <pt x="441" y="92" on="1"/>
        <pt x="441" y="0" on="1"/>
        <pt x="79" y="0" on="1"/>
        <pt x="79" y="277" on="1"/>
        <pt x="24" y="257" on="1"/>
        <pt x="24" y="336" on="1"/>
        <pt x="79" y="357" on="1"/>
        <pt x="79" y="688" on="1"/>
        <pt x="182" y="688" on="1"/>
        <pt x="182" y="395" on="1"/>
        <pt x="336" y="453" on="1"/>
        <pt x="336" y="373" on="1"/>
        <pt x="182" y="316" on="1"/>
        <pt x="182" y="92" on="1"/>
      </contour>
    </TTGlyph>
    <TTGlyph name="M" xMin="78" yMin="0" xMax="710" yMax="688">
      <contour>
        <pt x="610" y="525" on="1"/>
        <pt x="606" y="525" on="1"/>
        <pt x="433" y="0" on="1"/>
        <pt x="352" y="0" on="1"/>
        <pt x="180" y="525" on="1"/>
        <pt x="176" y="525" on="1"/>
        <pt x="176" y="0" on="1"/>
        <pt x="78" y="0" on="1"/>
        <pt x="78" y="688" on="1"/>
        <pt x="224" y="688" on="1"/>
        <pt x="392" y="173" on="1"/>
        <pt x="398" y="173" on="1"/>
        <pt x="566" y="688" on="1"/>
        <pt x="710" y="688" on="1"/>
        <pt x="710" y="0" on="1"/>
        <pt x="610" y="0" on="1"/>
      </contour>
    </TTGlyph>
    <TTGlyph name="N" xMin="78" yMin="0" xMax="552" yMax="688">
      <contour>
        <pt x="182" y="492" on="1"/>
        <pt x="178" y="492" on="1"/>
        <pt x="178" y="0" on="1"/>
        <pt x="78" y="0" on="1"/>
        <pt x="78" y="688" on="1"/>
        <pt x="186" y="688" on="1"/>
        <pt x="449" y="211" on="1"/>
        <pt x="453" y="211" on="1"/>
        <pt x="453" y="688" on="1"/>
        <pt x="552" y="688" on="1"/>
        <pt x="552" y="0" on="1"/>
        <pt x="452" y="0" on="1"/>
      </contour>
    </TTGlyph>
    <TTGlyph name="Nacute" xMin="78" yMin="0" xMax="552" yMax="888">
      <component glyphName="N" x="0" y="0" flags="0x0"/>
      <component glyphName="acutecomb.case" x="463" y="0" flags="0x0"/>
    </TTGlyph>
    <TTGlyph name="Nacute.loclPLK" xMin="78" yMin="0" xMax="552" yMax="888">
      <component glyphName="N" x="0" y="0" flags="0x0"/>
      <component glyphName="acute.case.loclPLK" x="260" y="0" flags="0x0"/>
    </TTGlyph>
    <TTGlyph name="Ncaron" xMin="78" yMin="0" xMax="552" yMax="888">
      <component glyphName="N" x="0" y="0" flags="0x0"/>
      <component glyphName="uni030C.case" x="466" y="0" flags="0x0"/>
    </TTGlyph>
    <TTGlyph name="Ncommaaccent" xMin="78" yMin="-273" xMax="552" yMax="688">
      <component glyphName="N" x="0" y="0" flags="0x0"/>
      <component glyphName="uni0326" x="430" y="0" flags="0x0"/>
    </TTGlyph>
    <TTGlyph name="Ntilde" xMin="78" yMin="0" xMax="552" yMax="883">
      <component glyphName="N" x="0" y="0" flags="0x0"/>
      <component glyphName="tilde" x="136" y="139" flags="0x4"/>
    </TTGlyph>
    <TTGlyph name="O" xMin="60" yMin="-8" xMax="558" yMax="696">
      <contour>
        <pt x="189" y="-8" on="0"/>
        <pt x="87" y="48" on="0"/>
        <pt x="60" y="184" on="0"/>
        <pt x="60" y="344" on="1"/>
        <pt x="60" y="504" on="0"/>
        <pt x="87" y="640" on="0"/>
        <pt x="189" y="696" on="0"/>
        <pt x="308" y="696" on="1"/>
        <pt x="428" y="696" on="0"/>
        <pt x="530" y="640" on="0"/>
        <pt x="558" y="504" on="0"/>
        <pt x="558" y="344" on="1"/>
        <pt x="558" y="184" on="0"/>
        <pt x="530" y="48" on="0"/>
        <pt x="428" y="-8" on="0"/>
        <pt x="308" y="-8" on="1"/>
      </contour>
      <contour>
        <pt x="383" y="81" on="0"/>
        <pt x="437" y="107" on="0"/>
        <pt x="454" y="208" on="0"/>
        <pt x="454" y="344" on="1"/>
        <pt x="454" y="480" on="0"/>
        <pt x="437" y="581" on="0"/>
        <pt x="383" y="607" on="0"/>
        <pt x="308" y="607" on="1"/>
        <pt x="233" y="607" on="0"/>
        <pt x="180" y="581" on="0"/>
        <pt x="163" y="480" on="0"/>
        <pt x="163" y="344" on="1"/>
        <pt x="163" y="208" on="0"/>
        <pt x="180" y="107" on="0"/>
        <pt x="233" y="81" on="0"/>
        <pt x="308" y="81" on="1"/>
      </contour>
    </TTGlyph>
    <TTGlyph name="OE" xMin="59" yMin="0" xMax="840" yMax="688">
      <contour>
        <pt x="189" y="0" on="0"/>
        <pt x="87" y="54" on="0"/>
        <pt x="59" y="188" on="0"/>
        <pt x="59" y="344" on="1"/>
        <pt x="59" y="500" on="0"/>
        <pt x="87" y="633" on="0"/>
        <pt x="189" y="688" on="0"/>
        <pt x="308" y="688" on="1"/>
        <pt x="840" y="688" on="1"/>
        <pt x="840" y="599" on="1"/>
        <pt x="585" y="599" on="1"/>
        <pt x="550" y="599" on="0"/>
        <pt x="520" y="606" on="1"/>
        <pt x="541" y="576" on="0"/>
        <pt x="556" y="476" on="0"/>
        <pt x="557" y="392" on="1"/>
        <pt x="800" y="392" on="1"/>
        <pt x="800" y="303" on="1"/>
        <pt x="558" y="303" on="1"/>
        <pt x="556" y="212" on="0"/>
        <pt x="541" y="111" on="0"/>
        <pt x="519" y="82" on="1"/>
        <pt x="548" y="88" on="0"/>
        <pt x="585" y="88" on="1"/>
        <pt x="840" y="88" on="1"/>
        <pt x="840" y="0" on="1"/>
        <pt x="308" y="0" on="1"/>
      </contour>
      <contour>
        <pt x="383" y="88" on="0"/>
        <pt x="437" y="114" on="0"/>
        <pt x="454" y="212" on="0"/>
        <pt x="454" y="344" on="1"/>
        <pt x="454" y="476" on="0"/>
        <pt x="437" y="573" on="0"/>
        <pt x="383" y="599" on="0"/>
        <pt x="308" y="599" on="1"/>
        <pt x="234" y="599" on="0"/>
        <pt x="180" y="573" on="0"/>
        <pt x="163" y="476" on="0"/>
        <pt x="163" y="344" on="1"/>
        <pt x="163" y="212" on="0"/>
        <pt x="180" y="114" on="0"/>
        <pt x="234" y="88" on="0"/>
        <pt x="308" y="88" on="1"/>
      </contour>
    </TTGlyph>
    <TTGlyph name="Oacute" xMin="60" yMin="-8" xMax="558" yMax="892">
      <component glyphName="O" x="0" y="0" flags="0x0"/>
      <component glyphName="acute" x="248" y="149" flags="0x4"/>
    </TTGlyph>
    <TTGlyph name="Oacute.loclPLK" xMin="60" yMin="-8" xMax="558" yMax="888">
      <component glyphName="O" x="0" y="0" flags="0x0"/>
      <component glyphName="acute.case.loclPLK" x="254" y="0" flags="0x0"/>
    </TTGlyph>
    <TTGlyph name="Obreve" xMin="60" yMin="-8" xMax="558" yMax="888">
      <component glyphName="O" x="0" y="0" flags="0x0"/>
      <component glyphName="uni0306.case" x="452" y="0" flags="0x0"/>
    </TTGlyph>
    <TTGlyph name="Ocircumflex" xMin="60" yMin="-8" xMax="558" yMax="890">
      <component glyphName="O" x="0" y="0" flags="0x0"/>
      <component glyphName="circumflex" x="157" y="147" flags="0x4"/>
    </TTGlyph>
    <TTGlyph name="Odieresis" xMin="60" yMin="-8" xMax="558" yMax="864">
      <component glyphName="O" x="0" y="0" flags="0x0"/>
      <component glyphName="dieresis" x="152" y="134" flags="0x4"/>
    </TTGlyph>
    <TTGlyph name="Ograve" xMin="60" yMin="-8" xMax="558" yMax="892">
      <component glyphName="O" x="0" y="0" flags="0x0"/>
      <component glyphName="grave" x="161" y="149" flags="0x4"/>
    </TTGlyph>
    <TTGlyph name="Ohorn" xMin="60" yMin="-8" xMax="603" yMax="783">
      <contour>
        <pt x="603" y="783" on="1"/>
        <pt x="603" y="755" on="1"/>
        <pt x="603" y="714" on="0"/>
        <pt x="589" y="669" on="0"/>
        <pt x="549" y="648" on="0"/>
        <pt x="509" y="645" on="1"/>
        <pt x="540" y="611" on="0"/>
        <pt x="558" y="480" on="0"/>
        <pt x="558" y="344" on="1"/>
        <pt x="558" y="184" on="0"/>
        <pt x="530" y="48" on="0"/>
        <pt x="428" y="-8" on="0"/>
        <pt x="308" y="-8" on="1"/>
        <pt x="189" y="-8" on="0"/>
        <pt x="87" y="48" on="0"/>
        <pt x="60" y="184" on="0"/>
        <pt x="60" y="344" on="1"/>
        <pt x="60" y="504" on="0"/>
        <pt x="87" y="640" on="0"/>
        <pt x="189" y="696" on="0"/>
        <pt x="308" y="696" on="1"/>
        <pt x="379" y="696" on="0"/>
        <pt x="420" y="688" on="1"/>
        <pt x="477" y="688" on="1"/>
        <pt x="503" y="688" on="0"/>
        <pt x="528" y="698" on="0"/>
        <pt x="536" y="721" on="0"/>
        <pt x="536" y="744" on="1"/>
        <pt x="536" y="783" on="1"/>
      </contour>
      <contour>
        <pt x="383" y="81" on="0"/>
        <pt x="437" y="107" on="0"/>
        <pt x="454" y="208" on="0"/>
        <pt x="454" y="344" on="1"/>
        <pt x="454" y="480" on="0"/>
        <pt x="437" y="581" on="0"/>
        <pt x="383" y="607" on="0"/>
        <pt x="308" y="607" on="1"/>
        <pt x="233" y="607" on="0"/>
        <pt x="180" y="581" on="0"/>
        <pt x="163" y="480" on="0"/>
        <pt x="163" y="344" on="1"/>
        <pt x="163" y="208" on="0"/>
        <pt x="180" y="107" on="0"/>
        <pt x="233" y="81" on="0"/>
        <pt x="308" y="81" on="1"/>
      </contour>
    </TTGlyph>
    <TTGlyph name="Ohungarumlaut" xMin="60" yMin="-8" xMax="558" yMax="879">
      <component glyphName="O" x="0" y="0" flags="0x0"/>
      <component glyphName="uni030B.case" x="532" y="0" flags="0x0"/>
    </TTGlyph>
    <TTGlyph name="Omacron" xMin="60" yMin="-8" xMax="558" yMax="887">
      <component glyphName="O" x="0" y="0" flags="0x0"/>
      <component glyphName="uni0304.case" x="478" y="0" flags="0x0"/>
    </TTGlyph>
    <TTGlyph name="Oslash" xMin="60" yMin="-55" xMax="558" yMax="743">
      <contour>
        <pt x="539" y="614" on="0"/>
        <pt x="558" y="483" on="0"/>
        <pt x="558" y="344" on="1"/>
        <pt x="558" y="184" on="0"/>
        <pt x="530" y="48" on="0"/>
        <pt x="428" y="-8" on="0"/>
        <pt x="308" y="-8" on="1"/>
        <pt x="225" y="-8" on="0"/>
        <pt x="177" y="5" on="1"/>
        <pt x="146" y="-55" on="1"/>
        <pt x="60" y="-55" on="1"/>
        <pt x="110" y="42" on="1"/>
        <pt x="78" y="76" on="0"/>
        <pt x="60" y="207" on="0"/>
        <pt x="60" y="344" on="1"/>
        <pt x="60" y="504" on="0"/>
        <pt x="87" y="640" on="0"/>
        <pt x="189" y="696" on="0"/>
        <pt x="308" y="696" on="1"/>
        <pt x="394" y="696" on="0"/>
        <pt x="438" y="684" on="1"/>
        <pt x="468" y="743" on="1"/>
        <pt x="555" y="743" on="1"/>
        <pt x="506" y="648" on="1"/>
      </contour>
      <contour>
        <pt x="163" y="207" on="0"/>
        <pt x="170" y="161" on="1"/>
        <pt x="395" y="601" on="1"/>
        <pt x="381" y="605" on="0"/>
        <pt x="335" y="607" on="0"/>
        <pt x="308" y="607" on="1"/>
        <pt x="233" y="607" on="0"/>
        <pt x="180" y="581" on="0"/>
        <pt x="163" y="480" on="0"/>
        <pt x="163" y="344" on="1"/>
      </contour>
      <contour>
        <pt x="383" y="81" on="0"/>
        <pt x="437" y="107" on="0"/>
        <pt x="454" y="208" on="0"/>
        <pt x="454" y="344" on="1"/>
        <pt x="454" y="419" on="0"/>
        <pt x="451" y="504" on="0"/>
        <pt x="446" y="531" on="1"/>
        <pt x="219" y="88" on="1"/>
        <pt x="233" y="83" on="0"/>
        <pt x="271" y="81" on="0"/>
        <pt x="308" y="81" on="1"/>
      </contour>
    </TTGlyph>
    <TTGlyph name="Oslashacute" xMin="60" yMin="-55" xMax="558" yMax="888">
      <component glyphName="Oslash" x="0" y="0" flags="0x0"/>
      <component glyphName="acutecomb.case" x="456" y="0" flags="0x0"/>
    </TTGlyph>
    <TTGlyph name="Otilde" xMin="60" yMin="-8" xMax="558" yMax="882">
      <component glyphName="O" x="0" y="0" flags="0x0"/>
      <component glyphName="tilde" x="130" y="138" flags="0x4"/>
    </TTGlyph>
    <TTGlyph name="P" xMin="79" yMin="0" xMax="524" yMax="688">
      <contour>
        <pt x="79" y="688" on="1"/>
        <pt x="339" y="688" on="1"/>
        <pt x="417" y="688" on="0"/>
        <pt x="498" y="634" on="0"/>
        <pt x="524" y="541" on="0"/>
        <pt x="524" y="466" on="1"/>
        <pt x="524" y="394" on="0"/>
        <pt x="498" y="301" on="0"/>
        <pt x="417" y="245" on="0"/>
        <pt x="338" y="245" on="1"/>
        <pt x="182" y="245" on="1"/>
        <pt x="182" y="0" on="1"/>
        <pt x="79" y="0" on="1"/>
      </contour>
      <contour>
        <pt x="304" y="333" on="1"/>
        <pt x="357" y="333" on="0"/>
        <pt x="407" y="358" on="0"/>
        <pt x="421" y="411" on="0"/>
        <pt x="421" y="466" on="1"/>
        <pt x="421" y="521" on="0"/>
        <pt x="407" y="574" on="0"/>
        <pt x="358" y="599" on="0"/>
        <pt x="305" y="599" on="1"/>
        <pt x="182" y="599" on="1"/>
        <pt x="182" y="333" on="1"/>
      </contour>
    </TTGlyph>
    <TTGlyph name="Q" xMin="60" yMin="-115" xMax="578" yMax="696">
      <contour>
        <pt x="578" y="-112" on="1"/>
        <pt x="578" y="-115" on="1"/>
        <pt x="465" y="-115" on="1"/>
        <pt x="395" y="-4" on="1"/>
        <pt x="362" y="-8" on="0"/>
        <pt x="308" y="-8" on="1"/>
        <pt x="189" y="-8" on="0"/>
        <pt x="87" y="48" on="0"/>
        <pt x="60" y="184" on="0"/>
        <pt x="60" y="344" on="1"/>
        <pt x="60" y="504" on="0"/>
        <pt x="87" y="640" on="0"/>
        <pt x="189" y="696" on="0"/>
        <pt x="308" y="696" on="1"/>
        <pt x="428" y="696" on="0"/>
        <pt x="530" y="640" on="0"/>
        <pt x="558" y="504" on="0"/>
        <pt x="558" y="344" on="1"/>
        <pt x="558" y="241" on="0"/>
        <pt x="549" y="125" on="0"/>
        <pt x="519" y="47" on="0"/>
        <pt x="488" y="26" on="1"/>
      </contour>
      <contour>
        <pt x="342" y="81" on="1"/>
        <pt x="256" y="218" on="1"/>
        <pt x="362" y="218" on="1"/>
        <pt x="431" y="112" on="1"/>
        <pt x="445" y="135" on="0"/>
        <pt x="454" y="236" on="0"/>
        <pt x="454" y="344" on="1"/>
        <pt x="454" y="480" on="0"/>
        <pt x="437" y="581" on="0"/>
        <pt x="383" y="607" on="0"/>
        <pt x="308" y="607" on="1"/>
        <pt x="233" y="607" on="0"/>
        <pt x="180" y="581" on="0"/>
        <pt x="163" y="480" on="0"/>
        <pt x="163" y="344" on="1"/>
        <pt x="163" y="208" on="0"/>
        <pt x="180" y="107" on="0"/>
        <pt x="233" y="81" on="0"/>
        <pt x="308" y="81" on="1"/>
      </contour>
    </TTGlyph>
    <TTGlyph name="R" xMin="79" yMin="0" xMax="544" yMax="688">
      <contour>
        <pt x="435" y="0" on="1"/>
        <pt x="342" y="265" on="1"/>
        <pt x="336" y="265" on="1"/>
        <pt x="182" y="265" on="1"/>
        <pt x="182" y="0" on="1"/>
        <pt x="79" y="0" on="1"/>
        <pt x="79" y="688" on="1"/>
        <pt x="348" y="688" on="1"/>
        <pt x="427" y="688" on="0"/>
        <pt x="507" y="636" on="0"/>
        <pt x="532" y="547" on="0"/>
        <pt x="532" y="476" on="1"/>
        <pt x="532" y="403" on="0"/>
        <pt x="497" y="302" on="0"/>
        <pt x="442" y="281" on="1"/>
        <pt x="544" y="0" on="1"/>
      </contour>
      <contour>
        <pt x="365" y="353" on="0"/>
        <pt x="414" y="377" on="0"/>
        <pt x="429" y="427" on="0"/>
        <pt x="429" y="476" on="1"/>
        <pt x="429" y="526" on="0"/>
        <pt x="415" y="575" on="0"/>
        <pt x="367" y="599" on="0"/>
        <pt x="315" y="599" on="1"/>
        <pt x="182" y="599" on="1"/>
        <pt x="182" y="353" on="1"/>
        <pt x="312" y="353" on="1"/>
      </contour>
    </TTGlyph>
    <TTGlyph name="R.ss01" xMin="78" yMin="0" xMax="536" yMax="688">
      <contour>
        <pt x="536" y="0" on="1"/>
        <pt x="434" y="0" on="1"/>
        <pt x="424" y="151" on="1"/>
        <pt x="421" y="194" on="0"/>
        <pt x="409" y="239" on="0"/>
        <pt x="366" y="267" on="0"/>
        <pt x="320" y="267" on="1"/>
        <pt x="182" y="267" on="1"/>
        <pt x="182" y="0" on="1"/>
        <pt x="78" y="0" on="1"/>
        <pt x="78" y="688" on="1"/>
        <pt x="359" y="688" on="1"/>
        <pt x="455" y="688" on="0"/>
        <pt x="532" y="597" on="0"/>
        <pt x="532" y="501" on="1"/>
        <pt x="532" y="413" on="0"/>
        <pt x="481" y="334" on="0"/>
        <pt x="427" y="319" on="1"/>
        <pt x="427" y="315" on="1"/>
        <pt x="460" y="306" on="0"/>
        <pt x="500" y="277" on="0"/>
        <pt x="523" y="220" on="0"/>
        <pt x="526" y="170" on="1"/>
      </contour>
      <contour>
        <pt x="365" y="356" on="0"/>
        <pt x="411" y="381" on="0"/>
        <pt x="427" y="432" on="0"/>
        <pt x="427" y="477" on="1"/>
        <pt x="427" y="527" on="0"/>
        <pt x="415" y="575" on="0"/>
        <pt x="370" y="599" on="0"/>
        <pt x="321" y="599" on="1"/>
        <pt x="182" y="599" on="1"/>
        <pt x="182" y="356" on="1"/>
        <pt x="319" y="356" on="1"/>
      </contour>
    </TTGlyph>
    <TTGlyph name="Racute" xMin="79" yMin="0" xMax="544" yMax="888">
      <component glyphName="R" x="0" y="0" flags="0x0"/>
      <component glyphName="acutecomb.case" x="443" y="0" flags="0x0"/>
    </TTGlyph>
    <TTGlyph name="Racute.ss01" xMin="78" yMin="0" xMax="536" yMax="888">
      <component glyphName="R.ss01" x="0" y="0" flags="0x0"/>
      <component glyphName="acutecomb.case" x="445" y="0" flags="0x0"/>
    </TTGlyph>
    <TTGlyph name="Rcaron" xMin="79" yMin="0" xMax="544" yMax="888">
      <component glyphName="R" x="0" y="0" flags="0x0"/>
      <component glyphName="uni030C.case" x="446" y="0" flags="0x0"/>
    </TTGlyph>
    <TTGlyph name="Rcaron.ss01" xMin="78" yMin="0" xMax="536" yMax="888">
      <component glyphName="R.ss01" x="0" y="0" flags="0x0"/>
      <component glyphName="uni030C.case" x="448" y="0" flags="0x0"/>
    </TTGlyph>
    <TTGlyph name="Rcommaaccent" xMin="79" yMin="-273" xMax="544" yMax="688">
      <component glyphName="R" x="0" y="0" flags="0x0"/>
      <component glyphName="uni0326" x="410" y="0" flags="0x0"/>
    </TTGlyph>
    <TTGlyph name="Rcommaaccent.ss01" xMin="78" yMin="-273" xMax="536" yMax="688">
      <component glyphName="R.ss01" x="0" y="0" flags="0x0"/>
      <component glyphName="uni0326" x="412" y="0" flags="0x0"/>
    </TTGlyph>
    <TTGlyph name="S" xMin="49" yMin="-8" xMax="487" yMax="696">
      <contour>
        <pt x="169" y="-8" on="0"/>
        <pt x="66" y="6" on="1"/>
        <pt x="66" y="92" on="1"/>
        <pt x="174" y="81" on="0"/>
        <pt x="246" y="81" on="1"/>
        <pt x="292" y="81" on="0"/>
        <pt x="345" y="91" on="0"/>
        <pt x="361" y="103" on="1"/>
        <pt x="375" y="115" on="0"/>
        <pt x="384" y="156" on="0"/>
        <pt x="384" y="192" on="1"/>
        <pt x="384" y="237" on="0"/>
        <pt x="375" y="274" on="0"/>
        <pt x="345" y="291" on="0"/>
        <pt x="309" y="296" on="1"/>
        <pt x="175" y="314" on="1"/>
        <pt x="122" y="321" on="0"/>
        <pt x="68" y="367" on="0"/>
        <pt x="49" y="441" on="0"/>
        <pt x="49" y="499" on="1"/>
        <pt x="49" y="578" on="0"/>
        <pt x="100" y="664" on="0"/>
        <pt x="195" y="696" on="0"/>
        <pt x="270" y="696" on="1"/>
        <pt x="321" y="696" on="0"/>
        <pt x="421" y="687" on="0"/>
        <pt x="457" y="679" on="1"/>
        <pt x="457" y="595" on="1"/>
        <pt x="387" y="607" on="0"/>
        <pt x="293" y="607" on="1"/>
        <pt x="245" y="607" on="0"/>
        <pt x="191" y="597" on="0"/>
        <pt x="176" y="585" on="1"/>
        <pt x="161" y="573" on="0"/>
        <pt x="152" y="536" on="0"/>
        <pt x="152" y="503" on="1"/>
        <pt x="152" y="464" on="0"/>
        <pt x="161" y="428" on="0"/>
        <pt x="187" y="413" on="0"/>
        <pt x="218" y="409" on="1"/>
        <pt x="354" y="391" on="1"/>
        <pt x="400" y="385" on="0"/>
        <pt x="456" y="356" on="0"/>
        <pt x="471" y="320" on="1"/>
        <pt x="487" y="282" on="0"/>
        <pt x="487" y="202" on="1"/>
        <pt x="487" y="116" on="0"/>
        <pt x="440" y="25" on="0"/>
        <pt x="351" y="-8" on="0"/>
        <pt x="277" y="-8" on="1"/>
      </contour>
    </TTGlyph>
    <TTGlyph name="Sacute" xMin="49" yMin="-8" xMax="487" yMax="888">
      <component glyphName="S" x="0" y="0" flags="0x0"/>
      <component glyphName="acutecomb.case" x="416" y="0" flags="0x0"/>
    </TTGlyph>
    <TTGlyph name="Sacute.loclPLK" xMin="49" yMin="-8" xMax="487" yMax="888">
      <component glyphName="S" x="0" y="0" flags="0x0"/>
      <component glyphName="acute.case.loclPLK" x="213" y="0" flags="0x0"/>
    </TTGlyph>
    <TTGlyph name="Scaron" xMin="49" yMin="-8" xMax="487" yMax="890">
      <component glyphName="S" x="0" y="0" flags="0x0"/>
      <component glyphName="caron" x="123" y="147" flags="0x4"/>
    </TTGlyph>
    <TTGlyph name="Scedilla" xMin="49" yMin="-190" xMax="487" yMax="696">
      <contour>
        <pt x="487" y="120" on="0"/>
        <pt x="445" y="30" on="0"/>
        <pt x="365" y="-6" on="0"/>
        <pt x="300" y="-8" on="1"/>
        <pt x="263" y="-190" on="1"/>
        <pt x="169" y="-190" on="1"/>
        <pt x="169" y="-185" on="1"/>
        <pt x="230" y="-7" on="1"/>
        <pt x="143" y="-4" on="0"/>
        <pt x="66" y="6" on="1"/>
        <pt x="66" y="92" on="1"/>
        <pt x="174" y="81" on="0"/>
        <pt x="246" y="81" on="1"/>
        <pt x="292" y="81" on="0"/>
        <pt x="345" y="91" on="0"/>
        <pt x="361" y="103" on="1"/>
        <pt x="375" y="115" on="0"/>
        <pt x="384" y="156" on="0"/>
        <pt x="384" y="192" on="1"/>
        <pt x="384" y="237" on="0"/>
        <pt x="375" y="274" on="0"/>
        <pt x="345" y="291" on="0"/>
        <pt x="309" y="296" on="1"/>
        <pt x="175" y="314" on="1"/>
        <pt x="122" y="321" on="0"/>
        <pt x="68" y="367" on="0"/>
        <pt x="49" y="441" on="0"/>
        <pt x="49" y="499" on="1"/>
        <pt x="49" y="578" on="0"/>
        <pt x="100" y="664" on="0"/>
        <pt x="195" y="696" on="0"/>
        <pt x="270" y="696" on="1"/>
        <pt x="321" y="696" on="0"/>
        <pt x="421" y="687" on="0"/>
        <pt x="457" y="679" on="1"/>
        <pt x="457" y="595" on="1"/>
        <pt x="387" y="607" on="0"/>
        <pt x="293" y="607" on="1"/>
        <pt x="245" y="607" on="0"/>
        <pt x="191" y="597" on="0"/>
        <pt x="176" y="585" on="1"/>
        <pt x="161" y="573" on="0"/>
        <pt x="152" y="536" on="0"/>
        <pt x="152" y="503" on="1"/>
        <pt x="152" y="464" on="0"/>
        <pt x="161" y="428" on="0"/>
        <pt x="187" y="413" on="0"/>
        <pt x="218" y="409" on="1"/>
        <pt x="354" y="391" on="1"/>
        <pt x="400" y="385" on="0"/>
        <pt x="456" y="356" on="0"/>
        <pt x="471" y="320" on="1"/>
        <pt x="487" y="282" on="0"/>
        <pt x="487" y="202" on="1"/>
      </contour>
    </TTGlyph>
    <TTGlyph name="Scircumflex" xMin="49" yMin="-8" xMax="487" yMax="888">
      <component glyphName="S" x="0" y="0" flags="0x0"/>
      <component glyphName="uni0302.case" x="419" y="0" flags="0x0"/>
    </TTGlyph>
    <TTGlyph name="Scommaaccent" xMin="49" yMin="-273" xMax="487" yMax="696">
      <component glyphName="S" x="0" y="0" flags="0x0"/>
      <component glyphName="uni0326" x="383" y="0" flags="0x0"/>
    </TTGlyph>
    <TTGlyph name="T" xMin="20" yMin="0" xMax="480" yMax="688">
      <contour>
        <pt x="198" y="596" on="1"/>
        <pt x="20" y="596" on="1"/>
        <pt x="20" y="688" on="1"/>
        <pt x="480" y="688" on="1"/>
        <pt x="480" y="596" on="1"/>
        <pt x="302" y="596" on="1"/>
        <pt x="302" y="0" on="1"/>
        <pt x="198" y="0" on="1"/>
      </contour>
    </TTGlyph>
    <TTGlyph name="Tbar" xMin="20" yMin="0" xMax="480" yMax="688">
      <contour>
        <pt x="302" y="596" on="1"/>
        <pt x="302" y="375" on="1"/>
        <pt x="458" y="375" on="1"/>
        <pt x="458" y="294" on="1"/>
        <pt x="302" y="294" on="1"/>
        <pt x="302" y="0" on="1"/>
        <pt x="198" y="0" on="1"/>
        <pt x="198" y="294" on="1"/>
        <pt x="42" y="294" on="1"/>
        <pt x="42" y="375" on="1"/>
        <pt x="198" y="375" on="1"/>
        <pt x="198" y="596" on="1"/>
        <pt x="20" y="596" on="1"/>
        <pt x="20" y="688" on="1"/>
        <pt x="480" y="688" on="1"/>
        <pt x="480" y="596" on="1"/>
      </contour>
    </TTGlyph>
    <TTGlyph name="Tcaron" xMin="20" yMin="0" xMax="480" yMax="888">
      <component glyphName="T" x="0" y="0" flags="0x0"/>
      <component glyphName="uni030C.case" x="401" y="0" flags="0x0"/>
    </TTGlyph>
    <TTGlyph name="Thorn" xMin="79" yMin="0" xMax="524" yMax="688">
      <contour>
        <pt x="79" y="688" on="1"/>
        <pt x="182" y="688" on="1"/>
        <pt x="182" y="572" on="1"/>
        <pt x="339" y="572" on="1"/>
        <pt x="417" y="572" on="0"/>
        <pt x="498" y="518" on="0"/>
        <pt x="524" y="425" on="0"/>
        <pt x="524" y="351" on="1"/>
        <pt x="524" y="279" on="0"/>
        <pt x="498" y="186" on="0"/>
        <pt x="417" y="129" on="0"/>
        <pt x="338" y="129" on="1"/>
        <pt x="182" y="129" on="1"/>
        <pt x="182" y="0" on="1"/>
        <pt x="79" y="0" on="1"/>
      </contour>
      <contour>
        <pt x="304" y="217" on="1"/>
        <pt x="357" y="217" on="0"/>
        <pt x="407" y="242" on="0"/>
        <pt x="421" y="296" on="0"/>
        <pt x="421" y="351" on="1"/>
        <pt x="421" y="406" on="0"/>
        <pt x="407" y="459" on="0"/>
        <pt x="358" y="484" on="0"/>
        <pt x="305" y="484" on="1"/>
        <pt x="182" y="484" on="1"/>
        <pt x="182" y="217" on="1"/>
      </contour>
    </TTGlyph>
    <TTGlyph name="U" xMin="72" yMin="-8" xMax="538" yMax="688">
      <contour>
        <pt x="538" y="688" on="1"/>
        <pt x="538" y="302" on="1"/>
        <pt x="538" y="167" on="0"/>
        <pt x="508" y="43" on="0"/>
        <pt x="412" y="-8" on="0"/>
        <pt x="306" y="-8" on="1"/>
        <pt x="200" y="-8" on="0"/>
        <pt x="103" y="43" on="0"/>
        <pt x="72" y="168" on="0"/>
        <pt x="72" y="302" on="1"/>
        <pt x="72" y="688" on="1"/>
        <pt x="175" y="688" on="1"/>
        <pt x="175" y="267" on="1"/>
        <pt x="175" y="180" on="0"/>
        <pt x="190" y="108" on="0"/>
        <pt x="242" y="81" on="0"/>
        <pt x="306" y="81" on="1"/>
        <pt x="369" y="81" on="0"/>
        <pt x="421" y="108" on="0"/>
        <pt x="435" y="179" on="0"/>
        <pt x="435" y="267" on="1"/>
        <pt x="435" y="688" on="1"/>
      </contour>
    </TTGlyph>
    <TTGlyph name="Uacute" xMin="72" yMin="-8" xMax="538" yMax="892">
      <component glyphName="U" x="0" y="0" flags="0x0"/>
      <component glyphName="acute" x="255" y="149" flags="0x4"/>
    </TTGlyph>
    <TTGlyph name="Ubreve" xMin="72" yMin="-8" xMax="538" yMax="888">
      <component glyphName="U" x="0" y="0" flags="0x0"/>
      <component glyphName="uni0306.case" x="449" y="0" flags="0x0"/>
    </TTGlyph>
    <TTGlyph name="Ucircumflex" xMin="72" yMin="-8" xMax="538" yMax="890">
      <component glyphName="U" x="0" y="0" flags="0x0"/>
      <component glyphName="circumflex" x="156" y="147" flags="0x4"/>
    </TTGlyph>
    <TTGlyph name="Udieresis" xMin="72" yMin="-8" xMax="538" yMax="864">
      <component glyphName="U" x="0" y="0" flags="0x0"/>
      <component glyphName="dieresis" x="149" y="134" flags="0x4"/>
    </TTGlyph>
    <TTGlyph name="Ugrave" xMin="72" yMin="-8" xMax="538" yMax="892">
      <component glyphName="U" x="0" y="0" flags="0x0"/>
      <component glyphName="grave" x="166" y="149" flags="0x4"/>
    </TTGlyph>
    <TTGlyph name="Uhorn" xMin="72" yMin="-8" xMax="632" yMax="783">
      <contour>
        <pt x="632" y="783" on="1"/>
        <pt x="632" y="755" on="1"/>
        <pt x="632" y="714" on="0"/>
        <pt x="618" y="669" on="0"/>
        <pt x="578" y="648" on="0"/>
        <pt x="538" y="645" on="1"/>
        <pt x="538" y="302" on="1"/>
        <pt x="538" y="167" on="0"/>
        <pt x="508" y="43" on="0"/>
        <pt x="412" y="-8" on="0"/>
        <pt x="306" y="-8" on="1"/>
        <pt x="200" y="-8" on="0"/>
        <pt x="103" y="43" on="0"/>
        <pt x="72" y="168" on="0"/>
        <pt x="72" y="302" on="1"/>
        <pt x="72" y="688" on="1"/>
        <pt x="175" y="688" on="1"/>
        <pt x="175" y="267" on="1"/>
        <pt x="175" y="180" on="0"/>
        <pt x="190" y="108" on="0"/>
        <pt x="242" y="81" on="0"/>
        <pt x="306" y="81" on="1"/>
        <pt x="369" y="81" on="0"/>
        <pt x="421" y="108" on="0"/>
        <pt x="435" y="179" on="0"/>
        <pt x="435" y="267" on="1"/>
        <pt x="435" y="688" on="1"/>
        <pt x="506" y="688" on="1"/>
        <pt x="532" y="688" on="0"/>
        <pt x="557" y="698" on="0"/>
        <pt x="565" y="721" on="0"/>
        <pt x="565" y="744" on="1"/>
        <pt x="565" y="783" on="1"/>
      </contour>
    </TTGlyph>
    <TTGlyph name="Uhungarumlaut" xMin="72" yMin="-8" xMax="538" yMax="879">
      <component glyphName="U" x="0" y="0" flags="0x0"/>
      <component glyphName="uni030B.case" x="529" y="0" flags="0x0"/>
    </TTGlyph>
    <TTGlyph name="Umacron" xMin="72" yMin="-8" xMax="538" yMax="887">
      <component glyphName="U" x="0" y="0" flags="0x0"/>
      <component glyphName="uni0304.case" x="475" y="0" flags="0x0"/>
    </TTGlyph>
    <TTGlyph name="Uogonek" xMin="72" yMin="-196" xMax="538" yMax="688">
      <contour>
        <pt x="538" y="688" on="1"/>
        <pt x="538" y="302" on="1"/>
        <pt x="538" y="214" on="0"/>
        <pt x="527" y="107" on="0"/>
        <pt x="495" y="38" on="0"/>
        <pt x="464" y="20" on="1"/>
        <pt x="385" y="-27" on="0"/>
        <pt x="385" y="-96" on="1"/>
        <pt x="385" y="-115" on="0"/>
        <pt x="406" y="-135" on="0"/>
        <pt x="431" y="-135" on="1"/>
        <pt x="441" y="-135" on="0"/>
        <pt x="447" y="-134" on="1"/>
        <pt x="447" y="-193" on="1"/>
        <pt x="419" y="-196" on="0"/>
        <pt x="402" y="-196" on="1"/>
        <pt x="302" y="-196" on="0"/>
        <pt x="302" y="-117" on="1"/>
        <pt x="302" y="-64" on="0"/>
        <pt x="355" y="-6" on="1"/>
        <pt x="340" y="-8" on="0"/>
        <pt x="306" y="-8" on="1"/>
        <pt x="200" y="-8" on="0"/>
        <pt x="103" y="43" on="0"/>
        <pt x="72" y="168" on="0"/>
        <pt x="72" y="302" on="1"/>
        <pt x="72" y="688" on="1"/>
        <pt x="175" y="688" on="1"/>
        <pt x="175" y="267" on="1"/>
        <pt x="175" y="180" on="0"/>
        <pt x="190" y="108" on="0"/>
        <pt x="242" y="81" on="0"/>
        <pt x="306" y="81" on="1"/>
        <pt x="369" y="81" on="0"/>
        <pt x="421" y="108" on="0"/>
        <pt x="435" y="179" on="0"/>
        <pt x="435" y="267" on="1"/>
        <pt x="435" y="688" on="1"/>
      </contour>
    </TTGlyph>
    <TTGlyph name="Uring" xMin="72" yMin="-8" xMax="538" yMax="931">
      <component glyphName="U" x="0" y="0" flags="0x0"/>
      <component glyphName="uni030A.case" x="442" y="0" flags="0x0"/>
    </TTGlyph>
    <TTGlyph name="Utilde" xMin="72" yMin="-8" xMax="538" yMax="889">
      <component glyphName="U" x="0" y="0" flags="0x0"/>
      <component glyphName="tildecomb.case" x="485" y="0" flags="0x0"/>
    </TTGlyph>
    <TTGlyph name="V" xMin="16" yMin="0" xMax="551" yMax="688">
      <contour>
        <pt x="16" y="688" on="1"/>
        <pt x="122" y="688" on="1"/>
        <pt x="282" y="119" on="1"/>
        <pt x="288" y="119" on="1"/>
        <pt x="447" y="688" on="1"/>
        <pt x="551" y="688" on="1"/>
        <pt x="352" y="0" on="1"/>
        <pt x="215" y="0" on="1"/>
      </contour>
    </TTGlyph>
    <TTGlyph name="W" xMin="22" yMin="0" xMax="832" yMax="688">
      <contour>
        <pt x="429" y="526" on="1"/>
        <pt x="425" y="526" on="1"/>
        <pt x="303" y="0" on="1"/>
        <pt x="173" y="0" on="1"/>
        <pt x="22" y="688" on="1"/>
        <pt x="127" y="688" on="1"/>
        <pt x="241" y="130" on="1"/>
        <pt x="246" y="130" on="1"/>
        <pt x="373" y="688" on="1"/>
        <pt x="485" y="688" on="1"/>
        <pt x="613" y="130" on="1"/>
        <pt x="619" y="130" on="1"/>
        <pt x="729" y="688" on="1"/>
        <pt x="832" y="688" on="1"/>
        <pt x="681" y="0" on="1"/>
        <pt x="551" y="0" on="1"/>
      </contour>
    </TTGlyph>
    <TTGlyph name="Wacute" xMin="22" yMin="0" xMax="832" yMax="888">
      <component glyphName="W" x="0" y="0" flags="0x0"/>
      <component glyphName="acutecomb.case" x="573" y="0" flags="0x0"/>
    </TTGlyph>
    <TTGlyph name="Wcircumflex" xMin="22" yMin="0" xMax="832" yMax="888">
      <component glyphName="W" x="0" y="0" flags="0x0"/>
      <component glyphName="uni0302.case" x="576" y="0" flags="0x0"/>
    </TTGlyph>
    <TTGlyph name="Wdieresis" xMin="22" yMin="0" xMax="832" yMax="875">
      <component glyphName="W" x="0" y="0" flags="0x0"/>
      <component glyphName="uni0308.case" x="581" y="0" flags="0x0"/>
    </TTGlyph>
    <TTGlyph name="Wgrave" xMin="22" yMin="0" xMax="832" yMax="888">
      <component glyphName="W" x="0" y="0" flags="0x0"/>
      <component glyphName="gravecomb.case" x="479" y="0" flags="0x0"/>
    </TTGlyph>
    <TTGlyph name="X" xMin="19" yMin="0" xMax="565" yMax="688">
      <contour>
        <pt x="294" y="263" on="1"/>
        <pt x="286" y="263" on="1"/>
        <pt x="133" y="0" on="1"/>
        <pt x="19" y="0" on="1"/>
        <pt x="228" y="345" on="1"/>
        <pt x="22" y="688" on="1"/>
        <pt x="140" y="688" on="1"/>
        <pt x="290" y="432" on="1"/>
        <pt x="297" y="432" on="1"/>
        <pt x="448" y="688" on="1"/>
        <pt x="562" y="688" on="1"/>
        <pt x="357" y="348" on="1"/>
        <pt x="565" y="0" on="1"/>
        <pt x="447" y="0" on="1"/>
      </contour>
    </TTGlyph>
    <TTGlyph name="Y" xMin="4" yMin="0" xMax="525" yMax="688">
      <contour>
        <pt x="213" y="255" on="1"/>
        <pt x="4" y="688" on="1"/>
        <pt x="113" y="688" on="1"/>
        <pt x="264" y="365" on="1"/>
        <pt x="271" y="365" on="1"/>
        <pt x="421" y="688" on="1"/>
        <pt x="525" y="688" on="1"/>
        <pt x="316" y="255" on="1"/>
        <pt x="316" y="0" on="1"/>
        <pt x="213" y="0" on="1"/>
      </contour>
    </TTGlyph>
    <TTGlyph name="Y.loclGUA" xMin="33" yMin="0" xMax="499" yMax="688">
      <contour>
        <pt x="499" y="688" on="1"/>
        <pt x="499" y="505" on="1"/>
        <pt x="499" y="382" on="0"/>
        <pt x="475" y="260" on="0"/>
        <pt x="398" y="202" on="0"/>
        <pt x="316" y="196" on="1"/>
        <pt x="316" y="0" on="1"/>
        <pt x="213" y="0" on="1"/>
        <pt x="213" y="197" on="1"/>
        <pt x="133" y="202" on="0"/>
        <pt x="57" y="261" on="0"/>
        <pt x="33" y="383" on="0"/>
        <pt x="33" y="505" on="1"/>
        <pt x="33" y="688" on="1"/>
        <pt x="136" y="688" on="1"/>
        <pt x="136" y="469" on="1"/>
        <pt x="136" y="382" on="0"/>
        <pt x="150" y="310" on="0"/>
        <pt x="203" y="283" on="0"/>
        <pt x="266" y="283" on="1"/>
        <pt x="329" y="283" on="0"/>
        <pt x="382" y="310" on="0"/>
        <pt x="396" y="382" on="0"/>
        <pt x="396" y="469" on="1"/>
        <pt x="396" y="688" on="1"/>
      </contour>
    </TTGlyph>
    <TTGlyph name="Yacute" xMin="4" yMin="0" xMax="525" yMax="892">
      <component glyphName="Y" x="0" y="0" flags="0x0"/>
      <component glyphName="acute" x="218" y="149" flags="0x4"/>
    </TTGlyph>
    <TTGlyph name="Yacute.loclGUA" xMin="33" yMin="0" xMax="499" yMax="888">
      <component glyphName="Y.loclGUA" x="0" y="0" flags="0x0"/>
      <component glyphName="acutecomb.case" x="413" y="0" flags="0x0"/>
    </TTGlyph>
    <TTGlyph name="Ycircumflex" xMin="4" yMin="0" xMax="525" yMax="888">
      <component glyphName="Y" x="0" y="0" flags="0x0"/>
      <component glyphName="uni0302.case" x="416" y="0" flags="0x0"/>
    </TTGlyph>
    <TTGlyph name="Ycircumflex.loclGUA" xMin="33" yMin="0" xMax="499" yMax="888">
      <component glyphName="Y.loclGUA" x="0" y="0" flags="0x0"/>
      <component glyphName="uni0302.case" x="416" y="0" flags="0x0"/>
    </TTGlyph>
    <TTGlyph name="Ydieresis" xMin="4" yMin="0" xMax="525" yMax="864">
      <component glyphName="Y" x="0" y="0" flags="0x0"/>
      <component glyphName="dieresis" x="113" y="134" flags="0x4"/>
    </TTGlyph>
    <TTGlyph name="Ydieresis.loclGUA" xMin="33" yMin="0" xMax="499" yMax="875">
      <component glyphName="Y.loclGUA" x="0" y="0" flags="0x0"/>
      <component glyphName="uni0308.case" x="421" y="0" flags="0x0"/>
    </TTGlyph>
    <TTGlyph name="Ygrave" xMin="4" yMin="0" xMax="525" yMax="888">
      <component glyphName="Y" x="0" y="0" flags="0x0"/>
      <component glyphName="gravecomb.case" x="319" y="0" flags="0x0"/>
    </TTGlyph>
    <TTGlyph name="Ygrave.loclGUA" xMin="33" yMin="0" xMax="499" yMax="888">
      <component glyphName="Y.loclGUA" x="0" y="0" flags="0x0"/>
      <component glyphName="gravecomb.case" x="319" y="0" flags="0x0"/>
    </TTGlyph>
    <TTGlyph name="Z" xMin="40" yMin="0" xMax="483" yMax="688">
      <contour>
        <pt x="40" y="84" on="1"/>
        <pt x="353" y="599" on="1"/>
        <pt x="49" y="599" on="1"/>
        <pt x="49" y="688" on="1"/>
        <pt x="479" y="688" on="1"/>
        <pt x="479" y="605" on="1"/>
        <pt x="164" y="88" on="1"/>
        <pt x="483" y="88" on="1"/>
        <pt x="483" y="0" on="1"/>
        <pt x="40" y="0" on="1"/>
      </contour>
    </TTGlyph>
    <TTGlyph name="Zacute" xMin="40" yMin="0" xMax="483" yMax="888">
      <component glyphName="Z" x="0" y="0" flags="0x0"/>
      <component glyphName="acutecomb.case" x="409" y="0" flags="0x0"/>
    </TTGlyph>
    <TTGlyph name="Zacute.loclPLK" xMin="40" yMin="0" xMax="483" yMax="888">
      <component glyphName="Z" x="0" y="0" flags="0x0"/>
      <component glyphName="acute.case.loclPLK" x="206" y="0" flags="0x0"/>
    </TTGlyph>
    <TTGlyph name="Zcaron" xMin="40" yMin="0" xMax="483" yMax="890">
      <component glyphName="Z" x="0" y="0" flags="0x0"/>
      <component glyphName="caron" x="118" y="147" flags="0x4"/>
    </TTGlyph>
    <TTGlyph name="Zdotaccent" xMin="40" yMin="0" xMax="483" yMax="875">
      <component glyphName="Z" x="0" y="0" flags="0x0"/>
      <component glyphName="uni0307.case" x="322" y="0" flags="0x0"/>
    </TTGlyph>
    <TTGlyph name="a" xMin="41" yMin="-8" xMax="429" yMax="518">
      <contour>
        <pt x="110" y="-8" on="0"/>
        <pt x="41" y="60" on="0"/>
        <pt x="41" y="142" on="1"/>
        <pt x="41" y="201" on="0"/>
        <pt x="67" y="267" on="0"/>
        <pt x="129" y="297" on="0"/>
        <pt x="185" y="297" on="1"/>
        <pt x="236" y="297" on="0"/>
        <pt x="332" y="293" on="1"/>
        <pt x="332" y="320" on="1"/>
        <pt x="332" y="376" on="0"/>
        <pt x="314" y="422" on="0"/>
        <pt x="264" y="436" on="0"/>
        <pt x="205" y="436" on="1"/>
        <pt x="177" y="436" on="0"/>
        <pt x="93" y="430" on="0"/>
        <pt x="70" y="426" on="1"/>
        <pt x="70" y="504" on="1"/>
        <pt x="145" y="518" on="0"/>
        <pt x="236" y="518" on="1"/>
        <pt x="319" y="518" on="0"/>
        <pt x="401" y="480" on="0"/>
        <pt x="429" y="397" on="0"/>
        <pt x="429" y="318" on="1"/>
        <pt x="429" y="0" on="1"/>
        <pt x="341" y="0" on="1"/>
        <pt x="337" y="66" on="1"/>
        <pt x="331" y="66" on="1"/>
        <pt x="312" y="22" on="0"/>
        <pt x="235" y="-8" on="0"/>
        <pt x="184" y="-8" on="1"/>
      </contour>
      <contour>
        <pt x="260" y="73" on="0"/>
        <pt x="304" y="89" on="0"/>
        <pt x="316" y="111" on="1"/>
        <pt x="332" y="143" on="0"/>
        <pt x="332" y="205" on="1"/>
        <pt x="332" y="229" on="1"/>
        <pt x="209" y="229" on="1"/>
        <pt x="178" y="229" on="0"/>
        <pt x="148" y="218" on="0"/>
        <pt x="136" y="185" on="0"/>
        <pt x="136" y="150" on="1"/>
        <pt x="136" y="117" on="0"/>
        <pt x="149" y="85" on="0"/>
        <pt x="186" y="73" on="0"/>
        <pt x="225" y="73" on="1"/>
      </contour>
    </TTGlyph>
    <TTGlyph name="aacute" xMin="41" yMin="-8" xMax="429" yMax="743">
      <component glyphName="a" x="0" y="0" flags="0x0"/>
      <component glyphName="acute" x="190" y="0" flags="0x0"/>
    </TTGlyph>
    <TTGlyph name="abreve" xMin="41" yMin="-8" xMax="429" yMax="743">
      <component glyphName="a" x="0" y="0" flags="0x0"/>
      <component glyphName="uni0306" x="392" y="0" flags="0x0"/>
    </TTGlyph>
    <TTGlyph name="acircumflex" xMin="41" yMin="-8" xMax="429" yMax="743">
      <component glyphName="a" x="0" y="0" flags="0x0"/>
      <component glyphName="circumflex" x="99" y="0" flags="0x0"/>
    </TTGlyph>
    <TTGlyph name="acute" xMin="13" yMin="601" xMax="190" yMax="743">
      <contour>
        <pt x="13" y="606" on="1"/>
        <pt x="89" y="743" on="1"/>
        <pt x="190" y="743" on="1"/>
        <pt x="190" y="738" on="1"/>
        <pt x="85" y="601" on="1"/>
        <pt x="13" y="601" on="1"/>
      </contour>
    </TTGlyph>
    <TTGlyph name="acute.case.loclPLK" xMin="13" yMin="746" xMax="150" yMax="888">
      <contour>
        <pt x="13" y="751" on="1"/>
        <pt x="49" y="888" on="1"/>
        <pt x="150" y="888" on="1"/>
        <pt x="150" y="883" on="1"/>
        <pt x="85" y="746" on="1"/>
        <pt x="13" y="746" on="1"/>
      </contour>
    </TTGlyph>
    <TTGlyph name="acute.loclPLK" xMin="13" yMin="601" xMax="150" yMax="743">
      <contour>
        <pt x="13" y="606" on="1"/>
        <pt x="49" y="743" on="1"/>
        <pt x="150" y="743" on="1"/>
        <pt x="150" y="738" on="1"/>
        <pt x="85" y="601" on="1"/>
        <pt x="13" y="601" on="1"/>
      </contour>
    </TTGlyph>
    <TTGlyph name="acutecomb" xMin="-190" yMin="601" xMax="-13" yMax="743">
      <contour>
        <pt x="-190" y="606" on="1"/>
        <pt x="-114" y="743" on="1"/>
        <pt x="-13" y="743" on="1"/>
        <pt x="-13" y="738" on="1"/>
        <pt x="-118" y="601" on="1"/>
        <pt x="-190" y="601" on="1"/>
      </contour>
    </TTGlyph>
    <TTGlyph name="acutecomb.case" xMin="-190" yMin="746" xMax="-13" yMax="888">
      <contour>
        <pt x="-190" y="751" on="1"/>
        <pt x="-114" y="888" on="1"/>
        <pt x="-13" y="888" on="1"/>
        <pt x="-13" y="883" on="1"/>
        <pt x="-118" y="746" on="1"/>
        <pt x="-190" y="746" on="1"/>
      </contour>
    </TTGlyph>
    <TTGlyph name="adieresis" xMin="41" yMin="-8" xMax="429" yMax="728">
      <component glyphName="a" x="0" y="0" flags="0x0"/>
      <component glyphName="dieresis" x="93" y="-2" flags="0x4"/>
    </TTGlyph>
    <TTGlyph name="ae" xMin="41" yMin="-8" xMax="724" yMax="518">
      <contour>
        <pt x="724" y="225" on="1"/>
        <pt x="430" y="225" on="1"/>
        <pt x="430" y="155" on="0"/>
        <pt x="445" y="96" on="0"/>
        <pt x="500" y="73" on="0"/>
        <pt x="565" y="73" on="1"/>
        <pt x="619" y="73" on="0"/>
        <pt x="707" y="83" on="1"/>
        <pt x="707" y="7" on="1"/>
        <pt x="678" y="0" on="0"/>
        <pt x="587" y="-8" on="0"/>
        <pt x="544" y="-8" on="1"/>
        <pt x="471" y="-8" on="0"/>
        <pt x="390" y="23" on="0"/>
        <pt x="369" y="59" on="1"/>
        <pt x="342" y="18" on="0"/>
        <pt x="256" y="-8" on="0"/>
        <pt x="200" y="-8" on="1"/>
        <pt x="116" y="-8" on="0"/>
        <pt x="41" y="59" on="0"/>
        <pt x="41" y="141" on="1"/>
        <pt x="41" y="200" on="0"/>
        <pt x="67" y="266" on="0"/>
        <pt x="129" y="296" on="0"/>
        <pt x="185" y="296" on="1"/>
        <pt x="278" y="294" on="1"/>
        <pt x="332" y="293" on="1"/>
        <pt x="332" y="320" on="1"/>
        <pt x="332" y="376" on="0"/>
        <pt x="314" y="422" on="0"/>
        <pt x="264" y="436" on="0"/>
        <pt x="205" y="436" on="1"/>
        <pt x="177" y="436" on="0"/>
        <pt x="90" y="430" on="0"/>
        <pt x="69" y="426" on="1"/>
        <pt x="69" y="504" on="1"/>
        <pt x="157" y="518" on="0"/>
        <pt x="236" y="518" on="1"/>
        <pt x="294" y="518" on="0"/>
        <pt x="365" y="495" on="0"/>
        <pt x="385" y="469" on="1"/>
        <pt x="407" y="494" on="0"/>
        <pt x="481" y="518" on="0"/>
        <pt x="537" y="518" on="1"/>
        <pt x="625" y="518" on="0"/>
        <pt x="704" y="467" on="0"/>
        <pt x="724" y="365" on="0"/>
        <pt x="724" y="256" on="1"/>
      </contour>
      <contour>
        <pt x="487" y="437" on="0"/>
        <pt x="445" y="416" on="0"/>
        <pt x="431" y="358" on="0"/>
        <pt x="430" y="292" on="1"/>
        <pt x="631" y="292" on="1"/>
        <pt x="631" y="296" on="1"/>
        <pt x="631" y="359" on="0"/>
        <pt x="614" y="418" on="0"/>
        <pt x="576" y="437" on="0"/>
        <pt x="535" y="437" on="1"/>
      </contour>
      <contour>
        <pt x="332" y="226" on="1"/>
        <pt x="209" y="226" on="1"/>
        <pt x="177" y="226" on="0"/>
        <pt x="147" y="216" on="0"/>
        <pt x="135" y="184" on="0"/>
        <pt x="135" y="150" on="1"/>
        <pt x="135" y="116" on="0"/>
        <pt x="148" y="84" on="0"/>
        <pt x="185" y="72" on="0"/>
        <pt x="224" y="72" on="1"/>
        <pt x="263" y="72" on="0"/>
        <pt x="309" y="91" on="0"/>
        <pt x="320" y="119" on="1"/>
        <pt x="332" y="152" on="0"/>
        <pt x="332" y="205" on="1"/>
      </contour>
    </TTGlyph>
    <TTGlyph name="aeacute" xMin="41" yMin="-8" xMax="724" yMax="743">
      <component glyphName="ae" x="0" y="0" flags="0x0"/>
      <component glyphName="acutecomb" x="535" y="0" flags="0x0"/>
    </TTGlyph>
    <TTGlyph name="agrave" xMin="41" yMin="-8" xMax="429" yMax="743">
      <component glyphName="a" x="0" y="0" flags="0x0"/>
      <component glyphName="grave" x="103" y="0" flags="0x0"/>
    </TTGlyph>
    <TTGlyph name="amacron" xMin="41" yMin="-8" xMax="429" yMax="742">
      <component glyphName="a" x="0" y="0" flags="0x0"/>
      <component glyphName="uni0304" x="418" y="0" flags="0x0"/>
    </TTGlyph>
    <TTGlyph name="ampersand" xMin="55" yMin="-8" xMax="612" yMax="696">
      <contour>
        <pt x="612" y="389" on="1"/>
        <pt x="612" y="306" on="1"/>
        <pt x="514" y="306" on="1"/>
        <pt x="514" y="11" on="1"/>
        <pt x="472" y="3" on="0"/>
        <pt x="361" y="-8" on="0"/>
        <pt x="316" y="-8" on="1"/>
        <pt x="208" y="-8" on="0"/>
        <pt x="94" y="37" on="0"/>
        <pt x="55" y="119" on="0"/>
        <pt x="55" y="184" on="1"/>
        <pt x="55" y="264" on="0"/>
        <pt x="108" y="334" on="0"/>
        <pt x="166" y="349" on="1"/>
        <pt x="166" y="353" on="1"/>
        <pt x="111" y="368" on="0"/>
        <pt x="60" y="442" on="0"/>
        <pt x="60" y="515" on="1"/>
        <pt x="60" y="573" on="0"/>
        <pt x="103" y="651" on="0"/>
        <pt x="215" y="696" on="0"/>
        <pt x="315" y="696" on="1"/>
        <pt x="358" y="696" on="0"/>
        <pt x="468" y="685" on="0"/>
        <pt x="511" y="677" on="1"/>
        <pt x="511" y="599" on="1"/>
        <pt x="471" y="605" on="0"/>
        <pt x="374" y="613" on="0"/>
        <pt x="340" y="613" on="1"/>
        <pt x="260" y="613" on="0"/>
        <pt x="184" y="592" on="0"/>
        <pt x="159" y="546" on="0"/>
        <pt x="159" y="499" on="1"/>
        <pt x="159" y="463" on="0"/>
        <pt x="173" y="417" on="0"/>
        <pt x="220" y="389" on="0"/>
        <pt x="267" y="389" on="1"/>
        <pt x="337" y="389" on="1"/>
        <pt x="337" y="306" on="1"/>
        <pt x="267" y="306" on="1"/>
        <pt x="218" y="306" on="0"/>
        <pt x="170" y="282" on="0"/>
        <pt x="154" y="234" on="0"/>
        <pt x="154" y="190" on="1"/>
        <pt x="154" y="141" on="0"/>
        <pt x="187" y="91" on="0"/>
        <pt x="255" y="74" on="0"/>
        <pt x="318" y="74" on="1"/>
        <pt x="373" y="74" on="0"/>
        <pt x="418" y="81" on="1"/>
        <pt x="418" y="389" on="1"/>
      </contour>
    </TTGlyph>
    <TTGlyph name="aogonek" xMin="41" yMin="-196" xMax="432" yMax="518">
      <contour>
        <pt x="427" y="-135" on="0"/>
        <pt x="432" y="-134" on="1"/>
        <pt x="432" y="-193" on="1"/>
        <pt x="402" y="-196" on="0"/>
        <pt x="387" y="-196" on="1"/>
        <pt x="287" y="-196" on="0"/>
        <pt x="287" y="-119" on="1"/>
        <pt x="287" y="-89" on="0"/>
        <pt x="320" y="-27" on="0"/>
        <pt x="347" y="0" on="1"/>
        <pt x="341" y="0" on="1"/>
        <pt x="337" y="66" on="1"/>
        <pt x="331" y="66" on="1"/>
        <pt x="312" y="22" on="0"/>
        <pt x="235" y="-8" on="0"/>
        <pt x="184" y="-8" on="1"/>
        <pt x="110" y="-8" on="0"/>
        <pt x="41" y="60" on="0"/>
        <pt x="41" y="142" on="1"/>
        <pt x="41" y="201" on="0"/>
        <pt x="67" y="267" on="0"/>
        <pt x="129" y="297" on="0"/>
        <pt x="185" y="297" on="1"/>
        <pt x="236" y="297" on="0"/>
        <pt x="332" y="293" on="1"/>
        <pt x="332" y="320" on="1"/>
        <pt x="332" y="376" on="0"/>
        <pt x="314" y="422" on="0"/>
        <pt x="264" y="436" on="0"/>
        <pt x="205" y="436" on="1"/>
        <pt x="177" y="436" on="0"/>
        <pt x="92" y="430" on="0"/>
        <pt x="70" y="426" on="1"/>
        <pt x="70" y="504" on="1"/>
        <pt x="145" y="518" on="0"/>
        <pt x="236" y="518" on="1"/>
        <pt x="319" y="518" on="0"/>
        <pt x="401" y="480" on="0"/>
        <pt x="429" y="397" on="0"/>
        <pt x="429" y="318" on="1"/>
        <pt x="429" y="0" on="1"/>
        <pt x="407" y="-15" on="0"/>
        <pt x="369" y="-72" on="0"/>
        <pt x="369" y="-98" on="1"/>
        <pt x="369" y="-135" on="0"/>
        <pt x="414" y="-135" on="1"/>
      </contour>
      <contour>
        <pt x="332" y="229" on="1"/>
        <pt x="209" y="229" on="1"/>
        <pt x="178" y="229" on="0"/>
        <pt x="148" y="218" on="0"/>
        <pt x="136" y="185" on="0"/>
        <pt x="136" y="150" on="1"/>
        <pt x="136" y="117" on="0"/>
        <pt x="149" y="85" on="0"/>
        <pt x="186" y="73" on="0"/>
        <pt x="225" y="73" on="1"/>
        <pt x="260" y="73" on="0"/>
        <pt x="304" y="89" on="0"/>
        <pt x="316" y="111" on="1"/>
        <pt x="332" y="143" on="0"/>
        <pt x="332" y="205" on="1"/>
      </contour>
    </TTGlyph>
    <TTGlyph name="approxequal" xMin="59" yMin="97" xMax="409" yMax="409">
      <contour>
        <pt x="59" y="325" on="0"/>
        <pt x="69" y="373" on="0"/>
        <pt x="102" y="399" on="0"/>
        <pt x="137" y="399" on="1"/>
        <pt x="162" y="399" on="0"/>
        <pt x="211" y="387" on="0"/>
        <pt x="247" y="376" on="1"/>
        <pt x="252" y="375" on="0"/>
        <pt x="306" y="359" on="0"/>
        <pt x="325" y="359" on="1"/>
        <pt x="345" y="359" on="0"/>
        <pt x="354" y="378" on="0"/>
        <pt x="354" y="409" on="1"/>
        <pt x="409" y="409" on="1"/>
        <pt x="409" y="364" on="0"/>
        <pt x="399" y="315" on="0"/>
        <pt x="366" y="290" on="0"/>
        <pt x="332" y="290" on="1"/>
        <pt x="293" y="290" on="0"/>
        <pt x="223" y="312" on="1"/>
        <pt x="216" y="314" on="0"/>
        <pt x="163" y="329" on="0"/>
        <pt x="144" y="329" on="1"/>
        <pt x="125" y="329" on="0"/>
        <pt x="115" y="310" on="0"/>
        <pt x="115" y="279" on="1"/>
        <pt x="59" y="279" on="1"/>
      </contour>
      <contour>
        <pt x="59" y="143" on="0"/>
        <pt x="69" y="192" on="0"/>
        <pt x="102" y="218" on="0"/>
        <pt x="137" y="218" on="1"/>
        <pt x="162" y="218" on="0"/>
        <pt x="211" y="206" on="0"/>
        <pt x="247" y="195" on="1"/>
        <pt x="252" y="194" on="0"/>
        <pt x="306" y="178" on="0"/>
        <pt x="325" y="178" on="1"/>
        <pt x="345" y="178" on="0"/>
        <pt x="354" y="197" on="0"/>
        <pt x="354" y="228" on="1"/>
        <pt x="409" y="228" on="1"/>
        <pt x="409" y="182" on="0"/>
        <pt x="399" y="134" on="0"/>
        <pt x="366" y="108" on="0"/>
        <pt x="332" y="108" on="1"/>
        <pt x="308" y="108" on="0"/>
        <pt x="259" y="120" on="0"/>
        <pt x="223" y="131" on="1"/>
        <pt x="216" y="133" on="0"/>
        <pt x="163" y="148" on="0"/>
        <pt x="144" y="148" on="1"/>
        <pt x="125" y="148" on="0"/>
        <pt x="115" y="128" on="0"/>
        <pt x="115" y="97" on="1"/>
        <pt x="59" y="97" on="1"/>
      </contour>
    </TTGlyph>
    <TTGlyph name="aring" xMin="41" yMin="-8" xMax="429" yMax="803">
      <component glyphName="a" x="0" y="0" flags="0x0"/>
      <component glyphName="ring" x="112" y="-13" flags="0x4"/>
    </TTGlyph>
    <TTGlyph name="aringacute" xMin="41" yMin="-8" xMax="429" yMax="989">
      <component glyphName="a" x="0" y="0" flags="0x0"/>
      <component glyphName="uni030A" x="385" y="0" flags="0x0"/>
      <component glyphName="acutecomb" x="397" y="246" flags="0x4"/>
    </TTGlyph>
    <TTGlyph name="arrowboth" xMin="55" yMin="170" xMax="828" yMax="439">
      <contour>
        <pt x="55" y="304" on="1"/>
        <pt x="332" y="439" on="1"/>
        <pt x="297" y="342" on="1"/>
        <pt x="586" y="342" on="1"/>
        <pt x="551" y="439" on="1"/>
        <pt x="828" y="304" on="1"/>
        <pt x="551" y="170" on="1"/>
        <pt x="586" y="266" on="1"/>
        <pt x="297" y="266" on="1"/>
        <pt x="332" y="170" on="1"/>
      </contour>
    </TTGlyph>
    <TTGlyph name="arrowdown" xMin="63" yMin="-85" xMax="332" yMax="688">
      <contour>
        <pt x="63" y="192" on="1"/>
        <pt x="160" y="157" on="1"/>
        <pt x="160" y="688" on="1"/>
        <pt x="236" y="688" on="1"/>
        <pt x="236" y="157" on="1"/>
        <pt x="332" y="192" on="1"/>
        <pt x="198" y="-85" on="1"/>
      </contour>
    </TTGlyph>
    <TTGlyph name="arrowdown.ss01" xMin="30" yMin="171" xMax="315" yMax="456">
      <contour>
        <pt x="30" y="456" on="1"/>
        <pt x="315" y="456" on="1"/>
        <pt x="173" y="171" on="1"/>
      </contour>
    </TTGlyph>
    <TTGlyph name="arrowleft" xMin="55" yMin="170" xMax="828" yMax="439">
      <contour>
        <pt x="330" y="170" on="1"/>
        <pt x="55" y="304" on="1"/>
        <pt x="330" y="439" on="1"/>
        <pt x="294" y="342" on="1"/>
        <pt x="828" y="342" on="1"/>
        <pt x="828" y="266" on="1"/>
        <pt x="294" y="266" on="1"/>
      </contour>
    </TTGlyph>
    <TTGlyph name="arrowleft.ss01" xMin="30" yMin="201" xMax="315" yMax="486">
      <contour>
        <pt x="30" y="343" on="1"/>
        <pt x="315" y="486" on="1"/>
        <pt x="315" y="201" on="1"/>
      </contour>
    </TTGlyph>
    <TTGlyph name="arrowright" xMin="55" yMin="170" xMax="828" yMax="439">
      <contour>
        <pt x="586" y="266" on="1"/>
        <pt x="55" y="266" on="1"/>
        <pt x="55" y="342" on="1"/>
        <pt x="586" y="342" on="1"/>
        <pt x="551" y="439" on="1"/>
        <pt x="828" y="304" on="1"/>
        <pt x="551" y="170" on="1"/>
      </contour>
    </TTGlyph>
    <TTGlyph name="arrowright.ss01" xMin="48" yMin="201" xMax="333" yMax="486">
      <contour>
        <pt x="48" y="486" on="1"/>
        <pt x="333" y="343" on="1"/>
        <pt x="48" y="201" on="1"/>
      </contour>
    </TTGlyph>
    <TTGlyph name="arrowup" xMin="63" yMin="-82" xMax="332" yMax="691">
      <contour>
        <pt x="160" y="449" on="1"/>
        <pt x="63" y="414" on="1"/>
        <pt x="198" y="691" on="1"/>
        <pt x="332" y="414" on="1"/>
        <pt x="236" y="449" on="1"/>
        <pt x="236" y="-82" on="1"/>
        <pt x="160" y="-82" on="1"/>
      </contour>
    </TTGlyph>
    <TTGlyph name="arrowup.ss01" xMin="30" yMin="231" xMax="315" yMax="516">
      <contour>
        <pt x="173" y="516" on="1"/>
        <pt x="315" y="231" on="1"/>
        <pt x="30" y="231" on="1"/>
      </contour>
    </TTGlyph>
    <TTGlyph name="arrowupdn" xMin="63" yMin="-85" xMax="332" yMax="696">
      <contour>
        <pt x="63" y="192" on="1"/>
        <pt x="160" y="157" on="1"/>
        <pt x="160" y="454" on="1"/>
        <pt x="63" y="419" on="1"/>
        <pt x="198" y="696" on="1"/>
        <pt x="332" y="419" on="1"/>
        <pt x="236" y="454" on="1"/>
        <pt x="236" y="157" on="1"/>
        <pt x="332" y="192" on="1"/>
        <pt x="198" y="-85" on="1"/>
      </contour>
    </TTGlyph>
    <TTGlyph name="arrowupdnbse" xMin="55" yMin="-192" xMax="340" yMax="696">
      <contour>
        <pt x="63" y="192" on="1"/>
        <pt x="160" y="157" on="1"/>
        <pt x="160" y="454" on="1"/>
        <pt x="63" y="419" on="1"/>
        <pt x="198" y="696" on="1"/>
        <pt x="332" y="419" on="1"/>
        <pt x="236" y="454" on="1"/>
        <pt x="236" y="157" on="1"/>
        <pt x="332" y="192" on="1"/>
        <pt x="198" y="-85" on="1"/>
      </contour>
      <contour>
        <pt x="55" y="-122" on="1"/>
        <pt x="340" y="-122" on="1"/>
        <pt x="340" y="-192" on="1"/>
        <pt x="55" y="-192" on="1"/>
      </contour>
    </TTGlyph>
    <TTGlyph name="asciicircum" xMin="38" yMin="459" xMax="389" yMax="749">
      <contour>
        <pt x="214" y="679" on="1"/>
        <pt x="117" y="459" on="1"/>
        <pt x="38" y="459" on="1"/>
        <pt x="172" y="749" on="1"/>
        <pt x="256" y="749" on="1"/>
        <pt x="389" y="459" on="1"/>
        <pt x="311" y="459" on="1"/>
      </contour>
    </TTGlyph>
    <TTGlyph name="asciitilde" xMin="59" yMin="237" xMax="409" yMax="368">
      <contour>
        <pt x="409" y="322" on="0"/>
        <pt x="399" y="274" on="0"/>
        <pt x="366" y="248" on="0"/>
        <pt x="332" y="248" on="1"/>
        <pt x="307" y="248" on="0"/>
        <pt x="257" y="259" on="0"/>
        <pt x="223" y="270" on="1"/>
        <pt x="202" y="277" on="0"/>
        <pt x="159" y="288" on="0"/>
        <pt x="144" y="288" on="1"/>
        <pt x="125" y="288" on="0"/>
        <pt x="115" y="268" on="0"/>
        <pt x="115" y="237" on="1"/>
        <pt x="59" y="237" on="1"/>
        <pt x="59" y="283" on="0"/>
        <pt x="69" y="331" on="0"/>
        <pt x="102" y="357" on="0"/>
        <pt x="137" y="357" on="1"/>
        <pt x="161" y="357" on="0"/>
        <pt x="206" y="347" on="0"/>
        <pt x="247" y="335" on="1"/>
        <pt x="268" y="328" on="0"/>
        <pt x="310" y="317" on="0"/>
        <pt x="325" y="317" on="1"/>
        <pt x="345" y="317" on="0"/>
        <pt x="354" y="337" on="0"/>
        <pt x="354" y="368" on="1"/>
        <pt x="409" y="368" on="1"/>
      </contour>
    </TTGlyph>
    <TTGlyph name="asterisk" xMin="46" yMin="339" xMax="380" yMax="688">
      <contour>
        <pt x="244" y="339" on="1"/>
        <pt x="182" y="339" on="1"/>
        <pt x="191" y="474" on="1"/>
        <pt x="77" y="398" on="1"/>
        <pt x="46" y="453" on="1"/>
        <pt x="168" y="513" on="1"/>
        <pt x="46" y="574" on="1"/>
        <pt x="77" y="628" on="1"/>
        <pt x="191" y="552" on="1"/>
        <pt x="182" y="688" on="1"/>
        <pt x="244" y="688" on="1"/>
        <pt x="235" y="553" on="1"/>
        <pt x="349" y="629" on="1"/>
        <pt x="380" y="574" on="1"/>
        <pt x="258" y="513" on="1"/>
        <pt x="380" y="453" on="1"/>
        <pt x="349" y="398" on="1"/>
        <pt x="235" y="474" on="1"/>
      </contour>
    </TTGlyph>
    <TTGlyph name="asterisk.ss02" xMin="35" yMin="-14" xMax="782" yMax="705">
      <contour>
        <pt x="269" y="262" on="1"/>
        <pt x="35" y="436" on="1"/>
        <pt x="322" y="436" on="1"/>
        <pt x="409" y="705" on="1"/>
        <pt x="494" y="436" on="1"/>
        <pt x="782" y="436" on="1"/>
        <pt x="550" y="262" on="1"/>
        <pt x="640" y="-14" on="1"/>
        <pt x="409" y="156" on="1"/>
        <pt x="178" y="-14" on="1"/>
      </contour>
    </TTGlyph>
    <TTGlyph name="at" xMin="70" yMin="-108" xMax="744" yMax="696">
      <contour>
        <pt x="237" y="-108" on="0"/>
        <pt x="104" y="-53" on="0"/>
        <pt x="70" y="98" on="0"/>
        <pt x="70" y="294" on="1"/>
        <pt x="70" y="491" on="0"/>
        <pt x="104" y="641" on="0"/>
        <pt x="237" y="696" on="0"/>
        <pt x="407" y="696" on="1"/>
        <pt x="577" y="696" on="0"/>
        <pt x="710" y="642" on="0"/>
        <pt x="744" y="492" on="0"/>
        <pt x="744" y="294" on="1"/>
        <pt x="744" y="189" on="0"/>
        <pt x="722" y="97" on="0"/>
        <pt x="678" y="75" on="0"/>
        <pt x="628" y="75" on="1"/>
        <pt x="493" y="75" on="1"/>
        <pt x="488" y="131" on="1"/>
        <pt x="482" y="131" on="1"/>
        <pt x="466" y="93" on="0"/>
        <pt x="406" y="68" on="0"/>
        <pt x="364" y="68" on="1"/>
        <pt x="299" y="68" on="0"/>
        <pt x="242" y="126" on="0"/>
        <pt x="242" y="197" on="1"/>
        <pt x="242" y="248" on="0"/>
        <pt x="263" y="304" on="0"/>
        <pt x="313" y="328" on="0"/>
        <pt x="360" y="328" on="1"/>
        <pt x="405" y="328" on="0"/>
        <pt x="485" y="324" on="1"/>
        <pt x="485" y="349" on="1"/>
        <pt x="485" y="396" on="0"/>
        <pt x="471" y="434" on="0"/>
        <pt x="431" y="445" on="0"/>
        <pt x="382" y="445" on="1"/>
        <pt x="354" y="445" on="0"/>
        <pt x="282" y="440" on="0"/>
        <pt x="266" y="438" on="1"/>
        <pt x="266" y="506" on="1"/>
        <pt x="341" y="518" on="0"/>
        <pt x="410" y="518" on="1"/>
        <pt x="481" y="518" on="0"/>
        <pt x="550" y="485" on="0"/>
        <pt x="573" y="415" on="0"/>
        <pt x="573" y="347" on="1"/>
        <pt x="573" y="122" on="1"/>
        <pt x="637" y="122" on="1"/>
        <pt x="661" y="122" on="0"/>
        <pt x="682" y="139" on="0"/>
        <pt x="692" y="210" on="0"/>
        <pt x="692" y="294" on="1"/>
        <pt x="692" y="440" on="0"/>
        <pt x="680" y="565" on="0"/>
        <pt x="631" y="629" on="0"/>
        <pt x="573" y="639" on="1"/>
        <pt x="545" y="645" on="0"/>
        <pt x="469" y="648" on="0"/>
        <pt x="406" y="648" on="1"/>
        <pt x="303" y="648" on="0"/>
        <pt x="255" y="642" on="1"/>
        <pt x="190" y="633" on="0"/>
        <pt x="135" y="572" on="0"/>
        <pt x="121" y="444" on="0"/>
        <pt x="121" y="294" on="1"/>
        <pt x="121" y="134" on="0"/>
        <pt x="139" y="3" on="0"/>
        <pt x="209" y="-52" on="0"/>
        <pt x="294" y="-57" on="1"/>
        <pt x="323" y="-59" on="0"/>
        <pt x="407" y="-59" on="1"/>
        <pt x="450" y="-59" on="0"/>
        <pt x="545" y="-57" on="0"/>
        <pt x="573" y="-56" on="1"/>
        <pt x="573" y="-105" on="1"/>
        <pt x="511" y="-108" on="0"/>
        <pt x="407" y="-108" on="1"/>
      </contour>
      <contour>
        <pt x="433" y="137" on="0"/>
        <pt x="470" y="155" on="0"/>
        <pt x="485" y="200" on="0"/>
        <pt x="485" y="243" on="1"/>
        <pt x="485" y="270" on="1"/>
        <pt x="383" y="270" on="1"/>
        <pt x="358" y="270" on="0"/>
        <pt x="335" y="261" on="0"/>
        <pt x="326" y="234" on="0"/>
        <pt x="326" y="204" on="1"/>
        <pt x="326" y="175" on="0"/>
        <pt x="336" y="148" on="0"/>
        <pt x="366" y="137" on="0"/>
        <pt x="397" y="137" on="1"/>
      </contour>
    </TTGlyph>
    <TTGlyph name="atilde" xMin="41" yMin="-8" xMax="429" yMax="743">
      <component glyphName="a" x="0" y="0" flags="0x0"/>
      <component glyphName="tilde" x="70" y="-1" flags="0x4"/>
    </TTGlyph>
    <TTGlyph name="b" xMin="69" yMin="-8" xMax="468" yMax="743">
      <contour>
        <pt x="256" y="-8" on="0"/>
        <pt x="185" y="23" on="0"/>
        <pt x="168" y="67" on="1"/>
        <pt x="161" y="67" on="1"/>
        <pt x="157" y="0" on="1"/>
        <pt x="69" y="0" on="1"/>
        <pt x="69" y="743" on="1"/>
        <pt x="166" y="743" on="1"/>
        <pt x="166" y="451" on="1"/>
        <pt x="172" y="451" on="1"/>
        <pt x="190" y="488" on="0"/>
        <pt x="257" y="518" on="0"/>
        <pt x="309" y="518" on="1"/>
        <pt x="372" y="518" on="0"/>
        <pt x="439" y="471" on="0"/>
        <pt x="468" y="359" on="0"/>
        <pt x="468" y="255" on="1"/>
        <pt x="468" y="151" on="0"/>
        <pt x="438" y="38" on="0"/>
        <pt x="369" y="-8" on="0"/>
        <pt x="306" y="-8" on="1"/>
      </contour>
      <contour>
        <pt x="316" y="79" on="0"/>
        <pt x="357" y="101" on="0"/>
        <pt x="371" y="172" on="0"/>
        <pt x="371" y="255" on="1"/>
        <pt x="371" y="338" on="0"/>
        <pt x="357" y="408" on="0"/>
        <pt x="316" y="431" on="0"/>
        <pt x="268" y="431" on="1"/>
        <pt x="233" y="431" on="0"/>
        <pt x="192" y="410" on="0"/>
        <pt x="182" y="387" on="1"/>
        <pt x="172" y="366" on="0"/>
        <pt x="166" y="306" on="0"/>
        <pt x="166" y="255" on="1"/>
        <pt x="166" y="206" on="0"/>
        <pt x="172" y="146" on="0"/>
        <pt x="181" y="125" on="1"/>
        <pt x="191" y="101" on="0"/>
        <pt x="232" y="79" on="0"/>
        <pt x="268" y="79" on="1"/>
      </contour>
    </TTGlyph>
    <TTGlyph name="backslash" xMin="5" yMin="-55" xMax="334" yMax="743">
      <contour>
        <pt x="5" y="743" on="1"/>
        <pt x="92" y="743" on="1"/>
        <pt x="334" y="-55" on="1"/>
        <pt x="247" y="-55" on="1"/>
      </contour>
    </TTGlyph>
    <TTGlyph name="bar" xMin="85" yMin="-161" xMax="173" yMax="743">
      <contour>
        <pt x="85" y="743" on="1"/>
        <pt x="173" y="743" on="1"/>
        <pt x="173" y="-161" on="1"/>
        <pt x="85" y="-161" on="1"/>
      </contour>
    </TTGlyph>
    <TTGlyph name="bar.ss02" xMin="-1" yMin="0" xMax="499" yMax="696">
      <contour>
        <pt x="-1" y="696" on="1"/>
        <pt x="499" y="696" on="1"/>
        <pt x="499" y="0" on="1"/>
        <pt x="-1" y="0" on="1"/>
      </contour>
    </TTGlyph>
    <TTGlyph name="braceleft" xMin="23" yMin="-150" xMax="287" yMax="743">
      <contour>
        <pt x="197" y="-139" on="0"/>
        <pt x="148" y="-89" on="0"/>
        <pt x="109" y="-14" on="0"/>
        <pt x="109" y="31" on="1"/>
        <pt x="109" y="148" on="1"/>
        <pt x="109" y="270" on="0"/>
        <pt x="23" y="271" on="1"/>
        <pt x="23" y="321" on="1"/>
        <pt x="109" y="322" on="0"/>
        <pt x="109" y="444" on="1"/>
        <pt x="109" y="561" on="1"/>
        <pt x="109" y="625" on="0"/>
        <pt x="182" y="721" on="0"/>
        <pt x="216" y="743" on="1"/>
        <pt x="287" y="743" on="1"/>
        <pt x="255" y="709" on="0"/>
        <pt x="200" y="619" on="0"/>
        <pt x="200" y="566" on="1"/>
        <pt x="200" y="446" on="1"/>
        <pt x="200" y="322" on="0"/>
        <pt x="106" y="300" on="1"/>
        <pt x="106" y="293" on="1"/>
        <pt x="200" y="271" on="0"/>
        <pt x="200" y="146" on="1"/>
        <pt x="200" y="26" on="1"/>
        <pt x="200" y="-26" on="0"/>
        <pt x="255" y="-116" on="0"/>
        <pt x="287" y="-150" on="1"/>
        <pt x="216" y="-150" on="1"/>
      </contour>
    </TTGlyph>
    <TTGlyph name="braceright" xMin="17" yMin="-150" xMax="281" yMax="743">
      <contour>
        <pt x="105" y="-59" on="0"/>
        <pt x="105" y="26" on="1"/>
        <pt x="105" y="146" on="1"/>
        <pt x="105" y="271" on="0"/>
        <pt x="199" y="293" on="1"/>
        <pt x="199" y="300" on="1"/>
        <pt x="105" y="322" on="0"/>
        <pt x="105" y="446" on="1"/>
        <pt x="105" y="566" on="1"/>
        <pt x="105" y="652" on="0"/>
        <pt x="17" y="743" on="1"/>
        <pt x="88" y="743" on="1"/>
        <pt x="107" y="731" on="0"/>
        <pt x="156" y="682" on="0"/>
        <pt x="196" y="606" on="0"/>
        <pt x="196" y="561" on="1"/>
        <pt x="196" y="444" on="1"/>
        <pt x="196" y="322" on="0"/>
        <pt x="281" y="321" on="1"/>
        <pt x="281" y="271" on="1"/>
        <pt x="196" y="270" on="0"/>
        <pt x="196" y="148" on="1"/>
        <pt x="196" y="31" on="1"/>
        <pt x="196" y="-13" on="0"/>
        <pt x="156" y="-89" on="0"/>
        <pt x="107" y="-138" on="0"/>
        <pt x="88" y="-150" on="1"/>
        <pt x="17" y="-150" on="1"/>
      </contour>
    </TTGlyph>
    <TTGlyph name="bracketleft" xMin="79" yMin="-150" xMax="272" yMax="743">
      <contour>
        <pt x="79" y="743" on="1"/>
        <pt x="272" y="743" on="1"/>
        <pt x="272" y="675" on="1"/>
        <pt x="169" y="671" on="1"/>
        <pt x="169" y="-78" on="1"/>
        <pt x="272" y="-82" on="1"/>
        <pt x="272" y="-150" on="1"/>
        <pt x="79" y="-150" on="1"/>
      </contour>
    </TTGlyph>
    <TTGlyph name="bracketleft.ss02" xMin="45" yMin="0" xMax="397" yMax="696">
      <contour>
        <pt x="45" y="0" on="1"/>
        <pt x="45" y="348" on="1"/>
        <pt x="45" y="449" on="0"/>
        <pt x="135" y="608" on="0"/>
        <pt x="295" y="696" on="0"/>
        <pt x="397" y="696" on="1"/>
        <pt x="397" y="0" on="1"/>
      </contour>
    </TTGlyph>
    <TTGlyph name="bracketright" xMin="36" yMin="-150" xMax="230" yMax="743">
      <contour>
        <pt x="36" y="-82" on="1"/>
        <pt x="139" y="-78" on="1"/>
        <pt x="139" y="671" on="1"/>
        <pt x="36" y="675" on="1"/>
        <pt x="36" y="743" on="1"/>
        <pt x="230" y="743" on="1"/>
        <pt x="230" y="-150" on="1"/>
        <pt x="36" y="-150" on="1"/>
      </contour>
    </TTGlyph>
    <TTGlyph name="bracketright.ss02" xMin="0" yMin="0" xMax="352" yMax="696">
      <contour>
        <pt x="0" y="696" on="1"/>
        <pt x="102" y="696" on="0"/>
        <pt x="262" y="608" on="0"/>
        <pt x="352" y="449" on="0"/>
        <pt x="352" y="348" on="1"/>
        <pt x="352" y="0" on="1"/>
        <pt x="0" y="0" on="1"/>
      </contour>
    </TTGlyph>
    <TTGlyph name="breve" xMin="13" yMin="599" xMax="273" yMax="743">
      <contour>
        <pt x="273" y="694" on="0"/>
        <pt x="256" y="634" on="0"/>
        <pt x="200" y="599" on="0"/>
        <pt x="142" y="599" on="1"/>
        <pt x="85" y="599" on="0"/>
        <pt x="29" y="634" on="0"/>
        <pt x="13" y="693" on="0"/>
        <pt x="13" y="743" on="1"/>
        <pt x="75" y="743" on="1"/>
        <pt x="75" y="710" on="0"/>
        <pt x="81" y="678" on="0"/>
        <pt x="110" y="659" on="0"/>
        <pt x="142" y="659" on="1"/>
        <pt x="175" y="659" on="0"/>
        <pt x="205" y="678" on="0"/>
        <pt x="212" y="711" on="0"/>
        <pt x="212" y="743" on="1"/>
        <pt x="273" y="743" on="1"/>
      </contour>
    </TTGlyph>
    <TTGlyph name="brokenbar" xMin="85" yMin="-161" xMax="173" yMax="743">
      <contour>
        <pt x="85" y="743" on="1"/>
        <pt x="173" y="743" on="1"/>
        <pt x="173" y="390" on="1"/>
        <pt x="85" y="390" on="1"/>
      </contour>
      <contour>
        <pt x="85" y="192" on="1"/>
        <pt x="173" y="192" on="1"/>
        <pt x="173" y="-161" on="1"/>
        <pt x="85" y="-161" on="1"/>
      </contour>
    </TTGlyph>
    <TTGlyph name="bullet" xMin="66" yMin="239" xMax="273" yMax="448">
      <contour>
        <pt x="273" y="293" on="0"/>
        <pt x="262" y="253" on="0"/>
        <pt x="220" y="239" on="0"/>
        <pt x="168" y="239" on="1"/>
        <pt x="117" y="239" on="0"/>
        <pt x="77" y="253" on="0"/>
        <pt x="66" y="293" on="0"/>
        <pt x="66" y="342" on="1"/>
        <pt x="66" y="393" on="0"/>
        <pt x="77" y="433" on="0"/>
        <pt x="118" y="448" on="0"/>
        <pt x="168" y="448" on="1"/>
        <pt x="220" y="448" on="0"/>
        <pt x="262" y="433" on="0"/>
        <pt x="273" y="393" on="0"/>
        <pt x="273" y="342" on="1"/>
      </contour>
    </TTGlyph>
    <TTGlyph name="bullet.ss02" xMin="40" yMin="-8" xMax="743" yMax="696">
      <contour>
        <pt x="343" y="421" on="0"/>
        <pt x="279" y="480" on="0"/>
        <pt x="279" y="533" on="1"/>
        <pt x="279" y="575" on="0"/>
        <pt x="318" y="650" on="0"/>
        <pt x="373" y="696" on="0"/>
        <pt x="392" y="696" on="1"/>
        <pt x="411" y="696" on="0"/>
        <pt x="465" y="650" on="0"/>
        <pt x="504" y="575" on="0"/>
        <pt x="504" y="533" on="1"/>
        <pt x="504" y="480" on="0"/>
        <pt x="441" y="421" on="0"/>
        <pt x="392" y="421" on="1"/>
      </contour>
      <contour>
        <pt x="415" y="481" on="0"/>
        <pt x="444" y="508" on="0"/>
        <pt x="444" y="533" on="1"/>
        <pt x="444" y="560" on="0"/>
        <pt x="426" y="607" on="0"/>
        <pt x="401" y="636" on="0"/>
        <pt x="392" y="636" on="1"/>
        <pt x="383" y="636" on="0"/>
        <pt x="358" y="607" on="0"/>
        <pt x="339" y="560" on="0"/>
        <pt x="339" y="533" on="1"/>
        <pt x="339" y="508" on="0"/>
        <pt x="369" y="481" on="0"/>
        <pt x="392" y="481" on="1"/>
      </contour>
      <contour>
        <pt x="161" y="231" on="0"/>
        <pt x="86" y="270" on="0"/>
        <pt x="40" y="325" on="0"/>
        <pt x="40" y="344" on="1"/>
        <pt x="40" y="363" on="0"/>
        <pt x="86" y="417" on="0"/>
        <pt x="161" y="456" on="0"/>
        <pt x="203" y="456" on="1"/>
        <pt x="256" y="456" on="0"/>
        <pt x="315" y="393" on="0"/>
        <pt x="315" y="344" on="1"/>
        <pt x="315" y="295" on="0"/>
        <pt x="256" y="231" on="0"/>
        <pt x="203" y="231" on="1"/>
      </contour>
      <contour>
        <pt x="527" y="231" on="0"/>
        <pt x="468" y="295" on="0"/>
        <pt x="468" y="344" on="1"/>
        <pt x="468" y="393" on="0"/>
        <pt x="527" y="456" on="0"/>
        <pt x="581" y="456" on="1"/>
        <pt x="622" y="456" on="0"/>
        <pt x="697" y="417" on="0"/>
        <pt x="743" y="363" on="0"/>
        <pt x="743" y="344" on="1"/>
        <pt x="743" y="325" on="0"/>
        <pt x="697" y="270" on="0"/>
        <pt x="623" y="231" on="0"/>
        <pt x="581" y="231" on="1"/>
      </contour>
      <contour>
        <pt x="228" y="291" on="0"/>
        <pt x="255" y="321" on="0"/>
        <pt x="255" y="344" on="1"/>
        <pt x="255" y="367" on="0"/>
        <pt x="228" y="396" on="0"/>
        <pt x="203" y="396" on="1"/>
        <pt x="176" y="396" on="0"/>
        <pt x="129" y="378" on="0"/>
        <pt x="100" y="353" on="0"/>
        <pt x="100" y="344" on="1"/>
        <pt x="100" y="335" on="0"/>
        <pt x="129" y="310" on="0"/>
        <pt x="176" y="291" on="0"/>
        <pt x="203" y="291" on="1"/>
      </contour>
      <contour>
        <pt x="607" y="291" on="0"/>
        <pt x="654" y="310" on="0"/>
        <pt x="683" y="335" on="0"/>
        <pt x="683" y="344" on="1"/>
        <pt x="683" y="353" on="0"/>
        <pt x="654" y="378" on="0"/>
        <pt x="607" y="396" on="0"/>
        <pt x="581" y="396" on="1"/>
        <pt x="556" y="396" on="0"/>
        <pt x="528" y="367" on="0"/>
        <pt x="528" y="344" on="1"/>
        <pt x="528" y="321" on="0"/>
        <pt x="556" y="291" on="0"/>
        <pt x="581" y="291" on="1"/>
      </contour>
      <contour>
        <pt x="373" y="-8" on="0"/>
        <pt x="318" y="38" on="0"/>
        <pt x="279" y="113" on="0"/>
        <pt x="279" y="155" on="1"/>
        <pt x="279" y="208" on="0"/>
        <pt x="343" y="267" on="0"/>
        <pt x="392" y="267" on="1"/>
        <pt x="441" y="267" on="0"/>
        <pt x="504" y="208" on="0"/>
        <pt x="504" y="155" on="1"/>
        <pt x="504" y="113" on="0"/>
        <pt x="465" y="38" on="0"/>
        <pt x="411" y="-8" on="0"/>
        <pt x="392" y="-8" on="1"/>
      </contour>
      <contour>
        <pt x="401" y="52" on="0"/>
        <pt x="426" y="81" on="0"/>
        <pt x="444" y="128" on="0"/>
        <pt x="444" y="155" on="1"/>
        <pt x="444" y="180" on="0"/>
        <pt x="415" y="207" on="0"/>
        <pt x="392" y="207" on="1"/>
        <pt x="369" y="207" on="0"/>
        <pt x="339" y="180" on="0"/>
        <pt x="339" y="155" on="1"/>
        <pt x="339" y="128" on="0"/>
        <pt x="358" y="81" on="0"/>
        <pt x="383" y="52" on="0"/>
        <pt x="392" y="52" on="1"/>
      </contour>
    </TTGlyph>
    <TTGlyph name="c" xMin="51" yMin="-8" xMax="367" yMax="518">
      <contour>
        <pt x="343" y="0" on="0"/>
        <pt x="272" y="-8" on="0"/>
        <pt x="240" y="-8" on="1"/>
        <pt x="155" y="-8" on="0"/>
        <pt x="74" y="46" on="0"/>
        <pt x="51" y="152" on="0"/>
        <pt x="51" y="255" on="1"/>
        <pt x="51" y="356" on="0"/>
        <pt x="78" y="465" on="0"/>
        <pt x="158" y="518" on="0"/>
        <pt x="238" y="518" on="1"/>
        <pt x="270" y="518" on="0"/>
        <pt x="340" y="510" on="0"/>
        <pt x="363" y="504" on="1"/>
        <pt x="363" y="427" on="1"/>
        <pt x="313" y="436" on="0"/>
        <pt x="262" y="436" on="1"/>
        <pt x="211" y="436" on="0"/>
        <pt x="164" y="408" on="0"/>
        <pt x="149" y="335" on="0"/>
        <pt x="149" y="255" on="1"/>
        <pt x="149" y="174" on="0"/>
        <pt x="165" y="100" on="0"/>
        <pt x="212" y="74" on="0"/>
        <pt x="264" y="74" on="1"/>
        <pt x="318" y="74" on="0"/>
        <pt x="367" y="83" on="1"/>
        <pt x="367" y="6" on="1"/>
      </contour>
    </TTGlyph>
    <TTGlyph name="cacute" xMin="51" yMin="-8" xMax="367" yMax="743">
      <component glyphName="c" x="0" y="0" flags="0x0"/>
      <component glyphName="acutecomb" x="350" y="0" flags="0x0"/>
    </TTGlyph>
    <TTGlyph name="cacute.loclPLK" xMin="51" yMin="-8" xMax="367" yMax="743">
      <component glyphName="c" x="0" y="0" flags="0x0"/>
      <component glyphName="acute.loclPLK" x="147" y="0" flags="0x0"/>
    </TTGlyph>
    <TTGlyph name="caron" xMin="13" yMin="602" xMax="289" yMax="743">
      <contour>
        <pt x="13" y="736" on="1"/>
        <pt x="13" y="743" on="1"/>
        <pt x="79" y="743" on="1"/>
        <pt x="150" y="652" on="1"/>
        <pt x="222" y="743" on="1"/>
        <pt x="289" y="743" on="1"/>
        <pt x="289" y="736" on="1"/>
        <pt x="200" y="602" on="1"/>
        <pt x="101" y="602" on="1"/>
      </contour>
    </TTGlyph>
    <TTGlyph name="caron.loclCSY" xMin="42" yMin="439" xMax="149" yMax="688">
      <contour>
        <pt x="57" y="618" on="1"/>
        <pt x="57" y="688" on="1"/>
        <pt x="149" y="688" on="1"/>
        <pt x="149" y="618" on="1"/>
        <pt x="109" y="439" on="1"/>
        <pt x="42" y="439" on="1"/>
      </contour>
    </TTGlyph>
    <TTGlyph name="ccaron" xMin="51" yMin="-8" xMax="367" yMax="743">
      <component glyphName="c" x="0" y="0" flags="0x0"/>
      <component glyphName="uni030C" x="355" y="0" flags="0x0"/>
    </TTGlyph>
    <TTGlyph name="ccedilla" xMin="51" yMin="-190" xMax="367" yMax="518">
      <contour>
        <pt x="318" y="74" on="0"/>
        <pt x="367" y="83" on="1"/>
        <pt x="367" y="6" on="1"/>
        <pt x="343" y="0" on="0"/>
        <pt x="272" y="-8" on="0"/>
        <pt x="240" y="-8" on="1"/>
        <pt x="236" y="-8" on="1"/>
        <pt x="199" y="-190" on="1"/>
        <pt x="105" y="-190" on="1"/>
        <pt x="105" y="-185" on="1"/>
        <pt x="168" y="-2" on="1"/>
        <pt x="116" y="9" on="0"/>
        <pt x="66" y="70" on="0"/>
        <pt x="51" y="169" on="0"/>
        <pt x="51" y="255" on="1"/>
        <pt x="51" y="356" on="0"/>
        <pt x="78" y="465" on="0"/>
        <pt x="158" y="518" on="0"/>
        <pt x="238" y="518" on="1"/>
        <pt x="270" y="518" on="0"/>
        <pt x="340" y="510" on="0"/>
        <pt x="363" y="504" on="1"/>
        <pt x="363" y="427" on="1"/>
        <pt x="313" y="436" on="0"/>
        <pt x="262" y="436" on="1"/>
        <pt x="211" y="436" on="0"/>
        <pt x="164" y="408" on="0"/>
        <pt x="149" y="335" on="0"/>
        <pt x="149" y="255" on="1"/>
        <pt x="149" y="174" on="0"/>
        <pt x="165" y="100" on="0"/>
        <pt x="212" y="74" on="0"/>
        <pt x="264" y="74" on="1"/>
      </contour>
    </TTGlyph>
    <TTGlyph name="ccircumflex" xMin="51" yMin="-8" xMax="367" yMax="743">
      <component glyphName="c" x="0" y="0" flags="0x0"/>
      <component glyphName="uni0302" x="355" y="0" flags="0x0"/>
    </TTGlyph>
    <TTGlyph name="cdotaccent" xMin="51" yMin="-8" xMax="367" yMax="730">
      <component glyphName="c" x="0" y="0" flags="0x0"/>
      <component glyphName="uni0307" x="265" y="0" flags="0x0"/>
    </TTGlyph>
    <TTGlyph name="cedilla" xMin="18" yMin="-190" xMax="151" yMax="8">
      <contour>
        <pt x="18" y="-185" on="1"/>
        <pt x="84" y="8" on="1"/>
        <pt x="151" y="8" on="1"/>
        <pt x="151" y="3" on="1"/>
        <pt x="112" y="-190" on="1"/>
        <pt x="18" y="-190" on="1"/>
      </contour>
    </TTGlyph>
    <TTGlyph name="cent" xMin="54" yMin="-8" xMax="374" yMax="696">
      <contour>
        <pt x="374" y="82" on="1"/>
        <pt x="335" y="71" on="0"/>
        <pt x="280" y="68" on="1"/>
        <pt x="280" y="-8" on="1"/>
        <pt x="206" y="-8" on="1"/>
        <pt x="206" y="68" on="1"/>
        <pt x="143" y="74" on="0"/>
        <pt x="77" y="136" on="0"/>
        <pt x="54" y="248" on="0"/>
        <pt x="54" y="342" on="1"/>
        <pt x="54" y="436" on="0"/>
        <pt x="81" y="550" on="0"/>
        <pt x="147" y="610" on="0"/>
        <pt x="206" y="616" on="1"/>
        <pt x="206" y="696" on="1"/>
        <pt x="280" y="696" on="1"/>
        <pt x="280" y="617" on="1"/>
        <pt x="333" y="614" on="0"/>
        <pt x="371" y="604" on="1"/>
        <pt x="371" y="524" on="1"/>
        <pt x="319" y="532" on="0"/>
        <pt x="280" y="533" on="1"/>
        <pt x="280" y="152" on="1"/>
        <pt x="328" y="154" on="0"/>
        <pt x="374" y="162" on="1"/>
      </contour>
      <contour>
        <pt x="156" y="251" on="0"/>
        <pt x="176" y="173" on="0"/>
        <pt x="206" y="161" on="1"/>
        <pt x="206" y="525" on="1"/>
        <pt x="185" y="517" on="0"/>
        <pt x="163" y="477" on="0"/>
        <pt x="156" y="406" on="0"/>
        <pt x="156" y="343" on="1"/>
      </contour>
    </TTGlyph>
    <TTGlyph name="circumflex" xMin="13" yMin="603" xMax="289" yMax="743">
      <contour>
        <pt x="13" y="609" on="1"/>
        <pt x="101" y="743" on="1"/>
        <pt x="201" y="743" on="1"/>
        <pt x="289" y="609" on="1"/>
        <pt x="289" y="603" on="1"/>
        <pt x="222" y="603" on="1"/>
        <pt x="150" y="694" on="1"/>
        <pt x="79" y="603" on="1"/>
        <pt x="13" y="603" on="1"/>
      </contour>
    </TTGlyph>
    <TTGlyph name="colon" xMin="60" yMin="0" xMax="169" yMax="510">
      <contour>
        <pt x="60" y="510" on="1"/>
        <pt x="169" y="510" on="1"/>
        <pt x="169" y="401" on="1"/>
        <pt x="60" y="401" on="1"/>
      </contour>
      <contour>
        <pt x="60" y="109" on="1"/>
        <pt x="169" y="109" on="1"/>
        <pt x="169" y="0" on="1"/>
        <pt x="60" y="0" on="1"/>
      </contour>
    </TTGlyph>
    <TTGlyph name="comma" xMin="44" yMin="-128" xMax="169" yMax="109">
      <contour>
        <pt x="80" y="-83" on="0"/>
        <pt x="102" y="-58" on="0"/>
        <pt x="102" y="-17" on="1"/>
        <pt x="102" y="0" on="1"/>
        <pt x="59" y="0" on="1"/>
        <pt x="59" y="109" on="1"/>
        <pt x="169" y="109" on="1"/>
        <pt x="169" y="23" on="1"/>
        <pt x="169" y="-42" on="0"/>
        <pt x="151" y="-103" on="0"/>
        <pt x="100" y="-128" on="0"/>
        <pt x="44" y="-128" on="1"/>
        <pt x="44" y="-83" on="1"/>
      </contour>
    </TTGlyph>
    <TTGlyph name="copyright" xMin="75" yMin="-8" xMax="584" yMax="696">
      <contour>
        <pt x="203" y="-8" on="0"/>
        <pt x="101" y="42" on="0"/>
        <pt x="75" y="175" on="0"/>
        <pt x="75" y="344" on="1"/>
        <pt x="75" y="513" on="0"/>
        <pt x="101" y="646" on="0"/>
        <pt x="203" y="696" on="0"/>
        <pt x="329" y="696" on="1"/>
        <pt x="455" y="696" on="0"/>
        <pt x="557" y="646" on="0"/>
        <pt x="584" y="512" on="0"/>
        <pt x="584" y="344" on="1"/>
        <pt x="584" y="175" on="0"/>
        <pt x="557" y="42" on="0"/>
        <pt x="456" y="-8" on="0"/>
        <pt x="329" y="-8" on="1"/>
      </contour>
      <contour>
        <pt x="438" y="36" on="0"/>
        <pt x="516" y="69" on="0"/>
        <pt x="537" y="183" on="0"/>
        <pt x="537" y="344" on="1"/>
        <pt x="537" y="504" on="0"/>
        <pt x="516" y="618" on="0"/>
        <pt x="438" y="651" on="0"/>
        <pt x="329" y="651" on="1"/>
        <pt x="220" y="651" on="0"/>
        <pt x="142" y="618" on="0"/>
        <pt x="121" y="504" on="0"/>
        <pt x="121" y="344" on="1"/>
        <pt x="121" y="183" on="0"/>
        <pt x="142" y="69" on="0"/>
        <pt x="220" y="36" on="0"/>
        <pt x="329" y="36" on="1"/>
      </contour>
      <contour>
        <pt x="291" y="154" on="0"/>
        <pt x="236" y="185" on="0"/>
        <pt x="218" y="262" on="0"/>
        <pt x="218" y="343" on="1"/>
        <pt x="218" y="422" on="0"/>
        <pt x="237" y="500" on="0"/>
        <pt x="291" y="532" on="0"/>
        <pt x="349" y="532" on="1"/>
        <pt x="401" y="532" on="0"/>
        <pt x="425" y="524" on="1"/>
        <pt x="425" y="473" on="1"/>
        <pt x="393" y="478" on="0"/>
        <pt x="362" y="478" on="1"/>
        <pt x="321" y="478" on="0"/>
        <pt x="289" y="462" on="0"/>
        <pt x="280" y="410" on="0"/>
        <pt x="280" y="343" on="1"/>
        <pt x="280" y="275" on="0"/>
        <pt x="289" y="223" on="0"/>
        <pt x="321" y="207" on="0"/>
        <pt x="362" y="207" on="1"/>
        <pt x="397" y="207" on="0"/>
        <pt x="427" y="212" on="1"/>
        <pt x="427" y="160" on="1"/>
        <pt x="400" y="154" on="0"/>
        <pt x="349" y="154" on="1"/>
      </contour>
    </TTGlyph>
    <TTGlyph name="currency" xMin="51" yMin="-3" xMax="570" yMax="690">
      <contour>
        <pt x="52" y="53" on="1"/>
        <pt x="133" y="134" on="1"/>
        <pt x="117" y="163" on="0"/>
        <pt x="107" y="258" on="0"/>
        <pt x="107" y="345" on="1"/>
        <pt x="107" y="431" on="0"/>
        <pt x="117" y="525" on="0"/>
        <pt x="132" y="554" on="1"/>
        <pt x="51" y="634" on="1"/>
        <pt x="107" y="690" on="1"/>
        <pt x="195" y="603" on="1"/>
        <pt x="234" y="617" on="0"/>
        <pt x="310" y="617" on="1"/>
        <pt x="388" y="617" on="0"/>
        <pt x="426" y="602" on="1"/>
        <pt x="514" y="690" on="1"/>
        <pt x="570" y="635" on="1"/>
        <pt x="488" y="553" on="1"/>
        <pt x="503" y="524" on="0"/>
        <pt x="513" y="430" on="0"/>
        <pt x="513" y="345" on="1"/>
        <pt x="513" y="259" on="0"/>
        <pt x="503" y="164" on="0"/>
        <pt x="488" y="135" on="1"/>
        <pt x="570" y="53" on="1"/>
        <pt x="514" y="-3" on="1"/>
        <pt x="426" y="86" on="1"/>
        <pt x="388" y="71" on="0"/>
        <pt x="310" y="71" on="1"/>
        <pt x="234" y="71" on="0"/>
        <pt x="195" y="85" on="1"/>
        <pt x="108" y="-2" on="1"/>
      </contour>
      <contour>
        <pt x="364" y="153" on="0"/>
        <pt x="405" y="179" on="0"/>
        <pt x="415" y="249" on="0"/>
        <pt x="415" y="345" on="1"/>
        <pt x="415" y="440" on="0"/>
        <pt x="405" y="510" on="0"/>
        <pt x="364" y="536" on="0"/>
        <pt x="310" y="536" on="1"/>
        <pt x="256" y="536" on="0"/>
        <pt x="214" y="510" on="0"/>
        <pt x="204" y="439" on="0"/>
        <pt x="204" y="345" on="1"/>
        <pt x="204" y="250" on="0"/>
        <pt x="214" y="179" on="0"/>
        <pt x="256" y="153" on="0"/>
        <pt x="310" y="153" on="1"/>
      </contour>
    </TTGlyph>
    <TTGlyph name="d" xMin="51" yMin="-8" xMax="451" yMax="743">
      <contour>
        <pt x="150" y="-8" on="0"/>
        <pt x="81" y="38" on="0"/>
        <pt x="51" y="150" on="0"/>
        <pt x="51" y="254" on="1"/>
        <pt x="51" y="358" on="0"/>
        <pt x="80" y="471" on="0"/>
        <pt x="149" y="518" on="0"/>
        <pt x="211" y="518" on="1"/>
        <pt x="263" y="518" on="0"/>
        <pt x="330" y="488" on="0"/>
        <pt x="348" y="451" on="1"/>
        <pt x="354" y="451" on="1"/>
        <pt x="354" y="743" on="1"/>
        <pt x="451" y="743" on="1"/>
        <pt x="451" y="0" on="1"/>
        <pt x="362" y="0" on="1"/>
        <pt x="358" y="67" on="1"/>
        <pt x="352" y="67" on="1"/>
        <pt x="335" y="23" on="0"/>
        <pt x="263" y="-8" on="0"/>
        <pt x="213" y="-8" on="1"/>
      </contour>
      <contour>
        <pt x="290" y="79" on="0"/>
        <pt x="332" y="103" on="0"/>
        <pt x="341" y="129" on="1"/>
        <pt x="349" y="151" on="0"/>
        <pt x="354" y="210" on="0"/>
        <pt x="354" y="259" on="1"/>
        <pt x="354" y="340" on="0"/>
        <pt x="343" y="374" on="1"/>
        <pt x="334" y="405" on="0"/>
        <pt x="291" y="431" on="0"/>
        <pt x="251" y="431" on="1"/>
        <pt x="203" y="431" on="0"/>
        <pt x="163" y="408" on="0"/>
        <pt x="149" y="338" on="0"/>
        <pt x="149" y="255" on="1"/>
        <pt x="149" y="172" on="0"/>
        <pt x="163" y="101" on="0"/>
        <pt x="204" y="79" on="0"/>
        <pt x="252" y="79" on="1"/>
      </contour>
    </TTGlyph>
    <TTGlyph name="dagger" xMin="53" yMin="0" xMax="364" yMax="688">
      <contour>
        <pt x="168" y="442" on="1"/>
        <pt x="53" y="450" on="1"/>
        <pt x="53" y="512" on="1"/>
        <pt x="168" y="520" on="1"/>
        <pt x="176" y="688" on="1"/>
        <pt x="239" y="688" on="1"/>
        <pt x="247" y="520" on="1"/>
        <pt x="364" y="512" on="1"/>
        <pt x="364" y="450" on="1"/>
        <pt x="247" y="442" on="1"/>
        <pt x="239" y="0" on="1"/>
        <pt x="176" y="0" on="1"/>
      </contour>
    </TTGlyph>
    <TTGlyph name="daggerdbl" xMin="53" yMin="0" xMax="364" yMax="688">
      <contour>
        <pt x="168" y="168" on="1"/>
        <pt x="53" y="175" on="1"/>
        <pt x="53" y="237" on="1"/>
        <pt x="168" y="245" on="1"/>
        <pt x="168" y="442" on="1"/>
        <pt x="53" y="450" on="1"/>
        <pt x="53" y="512" on="1"/>
        <pt x="168" y="520" on="1"/>
        <pt x="176" y="688" on="1"/>
        <pt x="239" y="688" on="1"/>
        <pt x="247" y="520" on="1"/>
        <pt x="364" y="512" on="1"/>
        <pt x="364" y="450" on="1"/>
        <pt x="247" y="442" on="1"/>
        <pt x="247" y="245" on="1"/>
        <pt x="364" y="237" on="1"/>
        <pt x="364" y="175" on="1"/>
        <pt x="247" y="168" on="1"/>
        <pt x="239" y="0" on="1"/>
        <pt x="176" y="0" on="1"/>
      </contour>
    </TTGlyph>
    <TTGlyph name="dcaron" xMin="51" yMin="-8" xMax="590" yMax="743">
      <component glyphName="d" x="0" y="0" flags="0x0"/>
      <component glyphName="caron.loclCSY" x="441" y="0" flags="0x0"/>
    </TTGlyph>
    <TTGlyph name="dcroat" xMin="51" yMin="-8" xMax="510" yMax="743">
      <contour>
        <pt x="510" y="608" on="1"/>
        <pt x="451" y="608" on="1"/>
        <pt x="451" y="0" on="1"/>
        <pt x="362" y="0" on="1"/>
        <pt x="358" y="67" on="1"/>
        <pt x="352" y="67" on="1"/>
        <pt x="335" y="23" on="0"/>
        <pt x="263" y="-8" on="0"/>
        <pt x="213" y="-8" on="1"/>
        <pt x="150" y="-8" on="0"/>
        <pt x="81" y="38" on="0"/>
        <pt x="51" y="150" on="0"/>
        <pt x="51" y="254" on="1"/>
        <pt x="51" y="358" on="0"/>
        <pt x="80" y="471" on="0"/>
        <pt x="149" y="518" on="0"/>
        <pt x="211" y="518" on="1"/>
        <pt x="263" y="518" on="0"/>
        <pt x="330" y="488" on="0"/>
        <pt x="348" y="451" on="1"/>
        <pt x="354" y="451" on="1"/>
        <pt x="354" y="608" on="1"/>
        <pt x="235" y="608" on="1"/>
        <pt x="235" y="688" on="1"/>
        <pt x="354" y="688" on="1"/>
        <pt x="354" y="743" on="1"/>
        <pt x="451" y="743" on="1"/>
        <pt x="451" y="688" on="1"/>
        <pt x="510" y="688" on="1"/>
      </contour>
      <contour>
        <pt x="349" y="151" on="0"/>
        <pt x="354" y="210" on="0"/>
        <pt x="354" y="259" on="1"/>
        <pt x="354" y="340" on="0"/>
        <pt x="343" y="374" on="1"/>
        <pt x="334" y="405" on="0"/>
        <pt x="291" y="431" on="0"/>
        <pt x="251" y="431" on="1"/>
        <pt x="203" y="431" on="0"/>
        <pt x="163" y="408" on="0"/>
        <pt x="149" y="338" on="0"/>
        <pt x="149" y="255" on="1"/>
        <pt x="149" y="172" on="0"/>
        <pt x="163" y="101" on="0"/>
        <pt x="204" y="79" on="0"/>
        <pt x="252" y="79" on="1"/>
        <pt x="290" y="79" on="0"/>
        <pt x="332" y="103" on="0"/>
        <pt x="341" y="129" on="1"/>
      </contour>
    </TTGlyph>
    <TTGlyph name="degree" xMin="53" yMin="397" xMax="302" yMax="696">
      <contour>
        <pt x="119" y="397" on="0"/>
        <pt x="67" y="424" on="0"/>
        <pt x="53" y="482" on="0"/>
        <pt x="53" y="546" on="1"/>
        <pt x="53" y="609" on="0"/>
        <pt x="67" y="668" on="0"/>
        <pt x="119" y="696" on="0"/>
        <pt x="177" y="696" on="1"/>
        <pt x="236" y="696" on="0"/>
        <pt x="288" y="668" on="0"/>
        <pt x="302" y="609" on="0"/>
        <pt x="302" y="546" on="1"/>
        <pt x="302" y="482" on="0"/>
        <pt x="288" y="424" on="0"/>
        <pt x="236" y="397" on="0"/>
        <pt x="177" y="397" on="1"/>
      </contour>
      <contour>
        <pt x="207" y="449" on="0"/>
        <pt x="231" y="464" on="0"/>
        <pt x="236" y="499" on="0"/>
        <pt x="236" y="546" on="1"/>
        <pt x="236" y="593" on="0"/>
        <pt x="231" y="628" on="0"/>
        <pt x="207" y="643" on="0"/>
        <pt x="177" y="643" on="1"/>
        <pt x="148" y="643" on="0"/>
        <pt x="124" y="628" on="0"/>
        <pt x="118" y="592" on="0"/>
        <pt x="118" y="546" on="1"/>
        <pt x="118" y="500" on="0"/>
        <pt x="124" y="464" on="0"/>
        <pt x="148" y="449" on="0"/>
        <pt x="177" y="449" on="1"/>
      </contour>
    </TTGlyph>
    <TTGlyph name="dialog" xMin="59" yMin="-212" xMax="746" yMax="688">
      <contour>
        <pt x="306" y="-127" on="1"/>
        <pt x="494" y="60" on="1"/>
        <pt x="686" y="60" on="1"/>
        <pt x="686" y="628" on="1"/>
        <pt x="119" y="628" on="1"/>
        <pt x="119" y="60" on="1"/>
        <pt x="306" y="60" on="1"/>
        <pt x="306" y="0" on="1"/>
        <pt x="59" y="0" on="1"/>
        <pt x="59" y="688" on="1"/>
        <pt x="746" y="688" on="1"/>
        <pt x="746" y="0" on="1"/>
        <pt x="519" y="0" on="1"/>
        <pt x="306" y="-212" on="1"/>
      </contour>
    </TTGlyph>
    <TTGlyph name="dieresis" xMin="19" yMin="642" xMax="293" yMax="730">
      <contour>
        <pt x="19" y="730" on="1"/>
        <pt x="107" y="730" on="1"/>
        <pt x="107" y="642" on="1"/>
        <pt x="19" y="642" on="1"/>
      </contour>
      <contour>
        <pt x="206" y="730" on="1"/>
        <pt x="293" y="730" on="1"/>
        <pt x="293" y="642" on="1"/>
        <pt x="206" y="642" on="1"/>
      </contour>
    </TTGlyph>
    <TTGlyph name="divide" xMin="66" yMin="34" xMax="446" yMax="470">
      <contour>
        <pt x="215" y="470" on="1"/>
        <pt x="297" y="470" on="1"/>
        <pt x="297" y="390" on="1"/>
        <pt x="215" y="390" on="1"/>
      </contour>
      <contour>
        <pt x="66" y="292" on="1"/>
        <pt x="446" y="292" on="1"/>
        <pt x="446" y="213" on="1"/>
        <pt x="66" y="213" on="1"/>
      </contour>
      <contour>
        <pt x="215" y="116" on="1"/>
        <pt x="297" y="116" on="1"/>
        <pt x="297" y="34" on="1"/>
        <pt x="215" y="34" on="1"/>
      </contour>
    </TTGlyph>
    <TTGlyph name="dollar" xMin="56" yMin="-8" xMax="423" yMax="696">
      <contour>
        <pt x="423" y="173" on="0"/>
        <pt x="395" y="107" on="0"/>
        <pt x="333" y="74" on="0"/>
        <pt x="279" y="69" on="1"/>
        <pt x="279" y="-8" on="1"/>
        <pt x="205" y="-8" on="1"/>
        <pt x="205" y="68" on="1"/>
        <pt x="124" y="72" on="0"/>
        <pt x="70" y="82" on="1"/>
        <pt x="70" y="162" on="1"/>
        <pt x="124" y="155" on="0"/>
        <pt x="205" y="152" on="1"/>
        <pt x="205" y="305" on="1"/>
        <pt x="165" y="311" on="1"/>
        <pt x="101" y="320" on="0"/>
        <pt x="56" y="389" on="0"/>
        <pt x="56" y="461" on="1"/>
        <pt x="56" y="540" on="0"/>
        <pt x="128" y="610" on="0"/>
        <pt x="205" y="617" on="1"/>
        <pt x="205" y="696" on="1"/>
        <pt x="279" y="696" on="1"/>
        <pt x="279" y="618" on="1"/>
        <pt x="349" y="615" on="0"/>
        <pt x="397" y="604" on="1"/>
        <pt x="397" y="524" on="1"/>
        <pt x="355" y="530" on="0"/>
        <pt x="279" y="534" on="1"/>
        <pt x="279" y="386" on="1"/>
        <pt x="320" y="381" on="1"/>
        <pt x="358" y="376" on="0"/>
        <pt x="401" y="349" on="0"/>
        <pt x="423" y="287" on="0"/>
        <pt x="423" y="229" on="1"/>
      </contour>
      <contour>
        <pt x="205" y="396" on="1"/>
        <pt x="205" y="531" on="1"/>
        <pt x="177" y="527" on="0"/>
        <pt x="153" y="497" on="0"/>
        <pt x="153" y="464" on="1"/>
        <pt x="153" y="435" on="0"/>
        <pt x="160" y="409" on="0"/>
        <pt x="180" y="399" on="0"/>
        <pt x="203" y="396" on="1"/>
      </contour>
      <contour>
        <pt x="307" y="161" on="0"/>
        <pt x="325" y="192" on="0"/>
        <pt x="325" y="225" on="1"/>
        <pt x="325" y="255" on="0"/>
        <pt x="318" y="282" on="0"/>
        <pt x="300" y="292" on="0"/>
        <pt x="279" y="295" on="1"/>
        <pt x="279" y="156" on="1"/>
      </contour>
    </TTGlyph>
    <TTGlyph name="dotaccent" xMin="18" yMin="642" xMax="106" yMax="730">
      <contour>
        <pt x="18" y="730" on="1"/>
        <pt x="106" y="730" on="1"/>
        <pt x="106" y="642" on="1"/>
        <pt x="18" y="642" on="1"/>
      </contour>
    </TTGlyph>
    <TTGlyph name="dotbelowcomb" xMin="-169" yMin="-171" xMax="-60" yMax="-62">
      <contour>
        <pt x="-169" y="-62" on="1"/>
        <pt x="-60" y="-62" on="1"/>
        <pt x="-60" y="-171" on="1"/>
        <pt x="-169" y="-171" on="1"/>
      </contour>
    </TTGlyph>
    <TTGlyph name="dotlessi" xMin="69" yMin="0" xMax="166" yMax="510">
      <contour>
        <pt x="69" y="510" on="1"/>
        <pt x="166" y="510" on="1"/>
        <pt x="166" y="0" on="1"/>
        <pt x="69" y="0" on="1"/>
      </contour>
    </TTGlyph>
    <TTGlyph name="e" xMin="51" yMin="-8" xMax="443" yMax="518">
      <contour>
        <pt x="443" y="223" on="1"/>
        <pt x="149" y="223" on="1"/>
        <pt x="149" y="153" on="0"/>
        <pt x="164" y="95" on="0"/>
        <pt x="219" y="73" on="0"/>
        <pt x="284" y="73" on="1"/>
        <pt x="338" y="73" on="0"/>
        <pt x="426" y="83" on="1"/>
        <pt x="426" y="7" on="1"/>
        <pt x="398" y="0" on="0"/>
        <pt x="306" y="-8" on="0"/>
        <pt x="263" y="-8" on="1"/>
        <pt x="168" y="-8" on="0"/>
        <pt x="79" y="41" on="0"/>
        <pt x="51" y="147" on="0"/>
        <pt x="51" y="254" on="1"/>
        <pt x="51" y="359" on="0"/>
        <pt x="77" y="466" on="0"/>
        <pt x="163" y="518" on="0"/>
        <pt x="255" y="518" on="1"/>
        <pt x="344" y="518" on="0"/>
        <pt x="423" y="467" on="0"/>
        <pt x="443" y="364" on="0"/>
        <pt x="443" y="255" on="1"/>
      </contour>
      <contour>
        <pt x="205" y="437" on="0"/>
        <pt x="164" y="415" on="0"/>
        <pt x="150" y="357" on="0"/>
        <pt x="149" y="291" on="1"/>
        <pt x="349" y="291" on="1"/>
        <pt x="349" y="296" on="1"/>
        <pt x="349" y="360" on="0"/>
        <pt x="333" y="418" on="0"/>
        <pt x="294" y="437" on="0"/>
        <pt x="253" y="437" on="1"/>
      </contour>
    </TTGlyph>
    <TTGlyph name="eacute" xMin="51" yMin="-8" xMax="443" yMax="743">
      <component glyphName="e" x="0" y="0" flags="0x0"/>
      <component glyphName="acute" x="197" y="0" flags="0x0"/>
    </TTGlyph>
    <TTGlyph name="ebreve" xMin="51" yMin="-8" xMax="443" yMax="743">
      <component glyphName="e" x="0" y="0" flags="0x0"/>
      <component glyphName="uni0306" x="391" y="0" flags="0x0"/>
    </TTGlyph>
    <TTGlyph name="ecaron" xMin="51" yMin="-8" xMax="443" yMax="743">
      <component glyphName="e" x="0" y="0" flags="0x0"/>
      <component glyphName="uni030C" x="399" y="0" flags="0x0"/>
    </TTGlyph>
    <TTGlyph name="ecircumflex" xMin="51" yMin="-8" xMax="443" yMax="743">
      <component glyphName="e" x="0" y="0" flags="0x0"/>
      <component glyphName="circumflex" x="100" y="0" flags="0x0"/>
    </TTGlyph>
    <TTGlyph name="edieresis" xMin="51" yMin="-8" xMax="443" yMax="728">
      <component glyphName="e" x="0" y="0" flags="0x0"/>
      <component glyphName="dieresis" x="97" y="-2" flags="0x4"/>
    </TTGlyph>
    <TTGlyph name="edotaccent" xMin="51" yMin="-8" xMax="443" yMax="730">
      <component glyphName="e" x="0" y="0" flags="0x0"/>
      <component glyphName="uni0307" x="309" y="0" flags="0x0"/>
    </TTGlyph>
    <TTGlyph name="egrave" xMin="51" yMin="-8" xMax="443" yMax="743">
      <component glyphName="e" x="0" y="0" flags="0x0"/>
      <component glyphName="grave" x="109" y="0" flags="0x0"/>
    </TTGlyph>
    <TTGlyph name="eight" xMin="58" yMin="-8" xMax="532" yMax="696">
      <contour>
        <pt x="199" y="-8" on="0"/>
        <pt x="96" y="35" on="0"/>
        <pt x="58" y="117" on="0"/>
        <pt x="58" y="184" on="1"/>
        <pt x="58" y="241" on="0"/>
        <pt x="82" y="306" on="0"/>
        <pt x="128" y="339" on="0"/>
        <pt x="167" y="349" on="1"/>
        <pt x="167" y="353" on="1"/>
        <pt x="113" y="365" on="0"/>
        <pt x="63" y="441" on="0"/>
        <pt x="63" y="515" on="1"/>
        <pt x="63" y="579" on="0"/>
        <pt x="105" y="658" on="0"/>
        <pt x="206" y="696" on="0"/>
        <pt x="295" y="696" on="1"/>
        <pt x="384" y="696" on="0"/>
        <pt x="484" y="658" on="0"/>
        <pt x="526" y="579" on="0"/>
        <pt x="526" y="515" on="1"/>
        <pt x="526" y="441" on="0"/>
        <pt x="476" y="365" on="0"/>
        <pt x="422" y="353" on="1"/>
        <pt x="422" y="349" on="1"/>
        <pt x="461" y="339" on="0"/>
        <pt x="508" y="306" on="0"/>
        <pt x="532" y="241" on="0"/>
        <pt x="532" y="184" on="1"/>
        <pt x="532" y="117" on="0"/>
        <pt x="494" y="35" on="0"/>
        <pt x="390" y="-8" on="0"/>
        <pt x="295" y="-8" on="1"/>
      </contour>
      <contour>
        <pt x="349" y="391" on="0"/>
        <pt x="402" y="408" on="0"/>
        <pt x="422" y="453" on="0"/>
        <pt x="422" y="499" on="1"/>
        <pt x="422" y="546" on="0"/>
        <pt x="402" y="591" on="0"/>
        <pt x="350" y="608" on="0"/>
        <pt x="295" y="608" on="1"/>
        <pt x="240" y="608" on="0"/>
        <pt x="187" y="591" on="0"/>
        <pt x="168" y="546" on="0"/>
        <pt x="168" y="499" on="1"/>
        <pt x="168" y="453" on="0"/>
        <pt x="188" y="408" on="0"/>
        <pt x="241" y="391" on="0"/>
        <pt x="295" y="391" on="1"/>
      </contour>
      <contour>
        <pt x="350" y="80" on="0"/>
        <pt x="404" y="95" on="0"/>
        <pt x="428" y="141" on="0"/>
        <pt x="428" y="190" on="1"/>
        <pt x="428" y="241" on="0"/>
        <pt x="406" y="289" on="0"/>
        <pt x="352" y="305" on="0"/>
        <pt x="295" y="305" on="1"/>
        <pt x="237" y="305" on="0"/>
        <pt x="183" y="289" on="0"/>
        <pt x="162" y="242" on="0"/>
        <pt x="162" y="190" on="1"/>
        <pt x="162" y="141" on="0"/>
        <pt x="185" y="95" on="0"/>
        <pt x="240" y="80" on="0"/>
        <pt x="295" y="80" on="1"/>
      </contour>
    </TTGlyph>
    <TTGlyph name="eight.dnom" xMin="36" yMin="-4" xMax="312" yMax="383">
      <contour>
        <pt x="119" y="-4" on="0"/>
        <pt x="59" y="18" on="0"/>
        <pt x="36" y="63" on="0"/>
        <pt x="36" y="101" on="1"/>
        <pt x="36" y="146" on="0"/>
        <pt x="66" y="184" on="0"/>
        <pt x="99" y="192" on="1"/>
        <pt x="99" y="194" on="1"/>
        <pt x="68" y="201" on="0"/>
        <pt x="39" y="243" on="0"/>
        <pt x="39" y="284" on="1"/>
        <pt x="39" y="338" on="0"/>
        <pt x="99" y="383" on="0"/>
        <pt x="174" y="383" on="1"/>
        <pt x="249" y="383" on="0"/>
        <pt x="309" y="338" on="0"/>
        <pt x="309" y="284" on="1"/>
        <pt x="309" y="243" on="0"/>
        <pt x="280" y="201" on="0"/>
        <pt x="248" y="194" on="1"/>
        <pt x="248" y="192" on="1"/>
        <pt x="282" y="184" on="0"/>
        <pt x="312" y="146" on="0"/>
        <pt x="312" y="101" on="1"/>
        <pt x="312" y="63" on="0"/>
        <pt x="289" y="18" on="0"/>
        <pt x="229" y="-4" on="0"/>
        <pt x="174" y="-4" on="1"/>
      </contour>
      <contour>
        <pt x="216" y="217" on="0"/>
        <pt x="242" y="238" on="0"/>
        <pt x="242" y="272" on="1"/>
        <pt x="242" y="296" on="0"/>
        <pt x="231" y="320" on="0"/>
        <pt x="203" y="329" on="0"/>
        <pt x="174" y="329" on="1"/>
        <pt x="145" y="329" on="0"/>
        <pt x="117" y="320" on="0"/>
        <pt x="106" y="296" on="0"/>
        <pt x="106" y="272" on="1"/>
        <pt x="106" y="238" on="0"/>
        <pt x="132" y="217" on="0"/>
        <pt x="174" y="217" on="1"/>
      </contour>
      <contour>
        <pt x="204" y="50" on="0"/>
        <pt x="233" y="58" on="0"/>
        <pt x="245" y="82" on="0"/>
        <pt x="245" y="107" on="1"/>
        <pt x="245" y="133" on="0"/>
        <pt x="233" y="158" on="0"/>
        <pt x="204" y="166" on="0"/>
        <pt x="174" y="166" on="1"/>
        <pt x="144" y="166" on="0"/>
        <pt x="115" y="158" on="0"/>
        <pt x="103" y="133" on="0"/>
        <pt x="103" y="107" on="1"/>
        <pt x="103" y="82" on="0"/>
        <pt x="115" y="58" on="0"/>
        <pt x="144" y="50" on="0"/>
        <pt x="174" y="50" on="1"/>
      </contour>
    </TTGlyph>
    <TTGlyph name="eight.numr" xMin="36" yMin="304" xMax="312" yMax="691">
      <component glyphName="eight.dnom" x="0" y="308" flags="0x4"/>
    </TTGlyph>
    <TTGlyph name="eight.tnum" xMin="50" yMin="-8" xMax="524" yMax="696">
      <contour>
        <pt x="191" y="-8" on="0"/>
        <pt x="88" y="35" on="0"/>
        <pt x="50" y="117" on="0"/>
        <pt x="50" y="184" on="1"/>
        <pt x="50" y="241" on="0"/>
        <pt x="74" y="306" on="0"/>
        <pt x="120" y="339" on="0"/>
        <pt x="159" y="349" on="1"/>
        <pt x="159" y="353" on="1"/>
        <pt x="105" y="365" on="0"/>
        <pt x="55" y="441" on="0"/>
        <pt x="55" y="515" on="1"/>
        <pt x="55" y="579" on="0"/>
        <pt x="97" y="658" on="0"/>
        <pt x="198" y="696" on="0"/>
        <pt x="287" y="696" on="1"/>
        <pt x="376" y="696" on="0"/>
        <pt x="477" y="658" on="0"/>
        <pt x="519" y="579" on="0"/>
        <pt x="519" y="515" on="1"/>
        <pt x="519" y="441" on="0"/>
        <pt x="469" y="365" on="0"/>
        <pt x="415" y="353" on="1"/>
        <pt x="415" y="349" on="1"/>
        <pt x="454" y="339" on="0"/>
        <pt x="500" y="306" on="0"/>
        <pt x="524" y="241" on="0"/>
        <pt x="524" y="184" on="1"/>
        <pt x="524" y="117" on="0"/>
        <pt x="486" y="35" on="0"/>
        <pt x="382" y="-8" on="0"/>
        <pt x="287" y="-8" on="1"/>
      </contour>
      <contour>
        <pt x="341" y="391" on="0"/>
        <pt x="394" y="408" on="0"/>
        <pt x="415" y="453" on="0"/>
        <pt x="415" y="499" on="1"/>
        <pt x="415" y="546" on="0"/>
        <pt x="395" y="591" on="0"/>
        <pt x="342" y="608" on="0"/>
        <pt x="287" y="608" on="1"/>
        <pt x="232" y="608" on="0"/>
        <pt x="179" y="591" on="0"/>
        <pt x="160" y="546" on="0"/>
        <pt x="160" y="499" on="1"/>
        <pt x="160" y="453" on="0"/>
        <pt x="180" y="408" on="0"/>
        <pt x="233" y="391" on="0"/>
        <pt x="287" y="391" on="1"/>
      </contour>
      <contour>
        <pt x="342" y="80" on="0"/>
        <pt x="396" y="95" on="0"/>
        <pt x="420" y="141" on="0"/>
        <pt x="420" y="190" on="1"/>
        <pt x="420" y="241" on="0"/>
        <pt x="398" y="289" on="0"/>
        <pt x="344" y="305" on="0"/>
        <pt x="287" y="305" on="1"/>
        <pt x="230" y="305" on="0"/>
        <pt x="176" y="289" on="0"/>
        <pt x="155" y="242" on="0"/>
        <pt x="155" y="190" on="1"/>
        <pt x="155" y="141" on="0"/>
        <pt x="178" y="95" on="0"/>
        <pt x="232" y="80" on="0"/>
        <pt x="287" y="80" on="1"/>
      </contour>
    </TTGlyph>
    <TTGlyph name="ellipsis" xMin="60" yMin="0" xMax="628" yMax="109">
      <contour>
        <pt x="60" y="109" on="1"/>
        <pt x="169" y="109" on="1"/>
        <pt x="169" y="0" on="1"/>
        <pt x="60" y="0" on="1"/>
      </contour>
      <contour>
        <pt x="289" y="109" on="1"/>
        <pt x="399" y="109" on="1"/>
        <pt x="399" y="0" on="1"/>
        <pt x="289" y="0" on="1"/>
      </contour>
      <contour>
        <pt x="518" y="109" on="1"/>
        <pt x="628" y="109" on="1"/>
        <pt x="628" y="0" on="1"/>
        <pt x="518" y="0" on="1"/>
      </contour>
    </TTGlyph>
    <TTGlyph name="emacron" xMin="51" yMin="-8" xMax="443" yMax="742">
      <component glyphName="e" x="0" y="0" flags="0x0"/>
      <component glyphName="uni0304" x="417" y="0" flags="0x0"/>
    </TTGlyph>
    <TTGlyph name="emdash" xMin="52" yMin="264" xMax="797" yMax="344">
      <contour>
        <pt x="52" y="344" on="1"/>
        <pt x="797" y="344" on="1"/>
        <pt x="797" y="264" on="1"/>
        <pt x="52" y="264" on="1"/>
      </contour>
    </TTGlyph>
    <TTGlyph name="endash" xMin="52" yMin="264" xMax="401" yMax="344">
      <contour>
        <pt x="52" y="344" on="1"/>
        <pt x="401" y="344" on="1"/>
        <pt x="401" y="264" on="1"/>
        <pt x="52" y="264" on="1"/>
      </contour>
    </TTGlyph>
    <TTGlyph name="eng" xMin="69" yMin="-197" xMax="458" yMax="518">
      <contour>
        <pt x="373" y="518" on="0"/>
        <pt x="436" y="477" on="0"/>
        <pt x="458" y="395" on="0"/>
        <pt x="458" y="322" on="1"/>
        <pt x="458" y="-42" on="1"/>
        <pt x="458" y="-113" on="0"/>
        <pt x="427" y="-178" on="0"/>
        <pt x="357" y="-197" on="0"/>
        <pt x="281" y="-197" on="1"/>
        <pt x="281" y="-121" on="1"/>
        <pt x="318" y="-121" on="0"/>
        <pt x="351" y="-111" on="0"/>
        <pt x="361" y="-90" on="0"/>
        <pt x="361" y="-67" on="1"/>
        <pt x="361" y="284" on="1"/>
        <pt x="361" y="354" on="0"/>
        <pt x="348" y="413" on="0"/>
        <pt x="312" y="431" on="0"/>
        <pt x="268" y="431" on="1"/>
        <pt x="222" y="431" on="0"/>
        <pt x="178" y="395" on="0"/>
        <pt x="166" y="327" on="0"/>
        <pt x="166" y="264" on="1"/>
        <pt x="166" y="0" on="1"/>
        <pt x="69" y="0" on="1"/>
        <pt x="69" y="510" on="1"/>
        <pt x="157" y="510" on="1"/>
        <pt x="161" y="442" on="1"/>
        <pt x="168" y="442" on="1"/>
        <pt x="184" y="479" on="0"/>
        <pt x="252" y="518" on="0"/>
        <pt x="310" y="518" on="1"/>
      </contour>
    </TTGlyph>
    <TTGlyph name="eogonek" xMin="51" yMin="-196" xMax="443" yMax="518">
      <contour>
        <pt x="443" y="223" on="1"/>
        <pt x="149" y="223" on="1"/>
        <pt x="149" y="153" on="0"/>
        <pt x="164" y="95" on="0"/>
        <pt x="219" y="73" on="0"/>
        <pt x="284" y="73" on="1"/>
        <pt x="338" y="73" on="0"/>
        <pt x="426" y="83" on="1"/>
        <pt x="426" y="7" on="1"/>
        <pt x="397" y="-11" on="0"/>
        <pt x="347" y="-72" on="0"/>
        <pt x="347" y="-99" on="1"/>
        <pt x="347" y="-114" on="0"/>
        <pt x="368" y="-135" on="0"/>
        <pt x="392" y="-135" on="1"/>
        <pt x="406" y="-135" on="0"/>
        <pt x="410" y="-134" on="1"/>
        <pt x="410" y="-193" on="1"/>
        <pt x="389" y="-196" on="0"/>
        <pt x="365" y="-196" on="1"/>
        <pt x="311" y="-196" on="0"/>
        <pt x="265" y="-154" on="0"/>
        <pt x="265" y="-120" on="1"/>
        <pt x="265" y="-62" on="0"/>
        <pt x="329" y="-6" on="1"/>
        <pt x="285" y="-8" on="0"/>
        <pt x="263" y="-8" on="1"/>
        <pt x="168" y="-8" on="0"/>
        <pt x="79" y="41" on="0"/>
        <pt x="51" y="147" on="0"/>
        <pt x="51" y="254" on="1"/>
        <pt x="51" y="359" on="0"/>
        <pt x="77" y="466" on="0"/>
        <pt x="163" y="518" on="0"/>
        <pt x="255" y="518" on="1"/>
        <pt x="344" y="518" on="0"/>
        <pt x="423" y="467" on="0"/>
        <pt x="443" y="364" on="0"/>
        <pt x="443" y="255" on="1"/>
      </contour>
      <contour>
        <pt x="205" y="437" on="0"/>
        <pt x="164" y="415" on="0"/>
        <pt x="150" y="357" on="0"/>
        <pt x="149" y="291" on="1"/>
        <pt x="349" y="291" on="1"/>
        <pt x="349" y="296" on="1"/>
        <pt x="349" y="360" on="0"/>
        <pt x="333" y="418" on="0"/>
        <pt x="294" y="437" on="0"/>
        <pt x="253" y="437" on="1"/>
      </contour>
    </TTGlyph>
    <TTGlyph name="equal" xMin="66" yMin="118" xMax="446" yMax="388">
      <contour>
        <pt x="66" y="388" on="1"/>
        <pt x="446" y="388" on="1"/>
        <pt x="446" y="309" on="1"/>
        <pt x="66" y="309" on="1"/>
      </contour>
      <contour>
        <pt x="66" y="197" on="1"/>
        <pt x="446" y="197" on="1"/>
        <pt x="446" y="118" on="1"/>
        <pt x="66" y="118" on="1"/>
      </contour>
    </TTGlyph>
    <TTGlyph name="estimated" xMin="60" yMin="-8" xMax="557" yMax="696">
      <contour>
        <pt x="163" y="170" on="0"/>
        <pt x="181" y="56" on="0"/>
        <pt x="239" y="26" on="0"/>
        <pt x="318" y="26" on="1"/>
        <pt x="399" y="26" on="0"/>
        <pt x="473" y="47" on="0"/>
        <pt x="507" y="119" on="0"/>
        <pt x="512" y="200" on="1"/>
        <pt x="548" y="200" on="1"/>
        <pt x="543" y="110" on="0"/>
        <pt x="503" y="24" on="0"/>
        <pt x="406" y="-8" on="0"/>
        <pt x="308" y="-8" on="1"/>
        <pt x="189" y="-8" on="0"/>
        <pt x="87" y="48" on="0"/>
        <pt x="60" y="184" on="0"/>
        <pt x="60" y="344" on="1"/>
        <pt x="60" y="504" on="0"/>
        <pt x="87" y="640" on="0"/>
        <pt x="189" y="696" on="0"/>
        <pt x="308" y="696" on="1"/>
        <pt x="427" y="696" on="0"/>
        <pt x="529" y="640" on="0"/>
        <pt x="557" y="503" on="0"/>
        <pt x="557" y="344" on="1"/>
        <pt x="557" y="323" on="1"/>
        <pt x="163" y="323" on="1"/>
      </contour>
      <contour>
        <pt x="234" y="662" on="0"/>
        <pt x="180" y="631" on="0"/>
        <pt x="163" y="514" on="0"/>
        <pt x="163" y="357" on="1"/>
        <pt x="454" y="357" on="1"/>
        <pt x="454" y="514" on="0"/>
        <pt x="436" y="631" on="0"/>
        <pt x="382" y="662" on="0"/>
        <pt x="308" y="662" on="1"/>
      </contour>
    </TTGlyph>
    <TTGlyph name="eth" xMin="51" yMin="-8" xMax="457" yMax="743">
      <contour>
        <pt x="159" y="-8" on="0"/>
        <pt x="75" y="38" on="0"/>
        <pt x="51" y="141" on="0"/>
        <pt x="51" y="254" on="1"/>
        <pt x="51" y="360" on="0"/>
        <pt x="73" y="466" on="0"/>
        <pt x="147" y="517" on="0"/>
        <pt x="228" y="517" on="1"/>
        <pt x="293" y="517" on="0"/>
        <pt x="331" y="495" on="1"/>
        <pt x="334" y="498" on="1"/>
        <pt x="314" y="565" on="0"/>
        <pt x="285" y="614" on="1"/>
        <pt x="179" y="598" on="1"/>
        <pt x="179" y="661" on="1"/>
        <pt x="248" y="672" on="1"/>
        <pt x="220" y="707" on="0"/>
        <pt x="188" y="739" on="1"/>
        <pt x="188" y="743" on="1"/>
        <pt x="292" y="743" on="1"/>
        <pt x="318" y="717" on="0"/>
        <pt x="342" y="686" on="1"/>
        <pt x="441" y="702" on="1"/>
        <pt x="441" y="639" on="1"/>
        <pt x="380" y="629" on="1"/>
        <pt x="423" y="551" on="0"/>
        <pt x="442" y="444" on="1"/>
        <pt x="457" y="368" on="0"/>
        <pt x="457" y="268" on="1"/>
        <pt x="457" y="146" on="0"/>
        <pt x="435" y="39" on="0"/>
        <pt x="351" y="-8" on="0"/>
        <pt x="254" y="-8" on="1"/>
      </contour>
      <contour>
        <pt x="308" y="73" on="0"/>
        <pt x="350" y="98" on="0"/>
        <pt x="360" y="164" on="0"/>
        <pt x="360" y="254" on="1"/>
        <pt x="360" y="336" on="0"/>
        <pt x="350" y="404" on="0"/>
        <pt x="306" y="436" on="0"/>
        <pt x="254" y="436" on="1"/>
        <pt x="200" y="436" on="0"/>
        <pt x="159" y="412" on="0"/>
        <pt x="149" y="345" on="0"/>
        <pt x="149" y="254" on="1"/>
        <pt x="149" y="164" on="0"/>
        <pt x="159" y="98" on="0"/>
        <pt x="200" y="73" on="0"/>
        <pt x="254" y="73" on="1"/>
      </contour>
    </TTGlyph>
    <TTGlyph name="exclam" xMin="72" yMin="0" xMax="186" yMax="688">
      <contour>
        <pt x="89" y="278" on="1"/>
        <pt x="72" y="521" on="0"/>
        <pt x="72" y="604" on="1"/>
        <pt x="72" y="688" on="1"/>
        <pt x="186" y="688" on="1"/>
        <pt x="186" y="604" on="1"/>
        <pt x="186" y="521" on="0"/>
        <pt x="169" y="278" on="1"/>
        <pt x="165" y="205" on="1"/>
        <pt x="93" y="205" on="1"/>
      </contour>
      <contour>
        <pt x="74" y="109" on="1"/>
        <pt x="184" y="109" on="1"/>
        <pt x="184" y="0" on="1"/>
        <pt x="74" y="0" on="1"/>
      </contour>
    </TTGlyph>
    <TTGlyph name="exclam.case" xMin="72" yMin="0" xMax="186" yMax="688">
      <component glyphName="exclam" x="0" y="0" flags="0x0"/>
    </TTGlyph>
    <TTGlyph name="exclam.ss02" xMin="45" yMin="-8" xMax="749" yMax="696">
      <contour>
        <pt x="302" y="-8" on="0"/>
        <pt x="140" y="87" on="0"/>
        <pt x="45" y="249" on="0"/>
        <pt x="45" y="344" on="1"/>
        <pt x="45" y="439" on="0"/>
        <pt x="140" y="601" on="0"/>
        <pt x="302" y="696" on="0"/>
        <pt x="397" y="696" on="1"/>
        <pt x="492" y="696" on="0"/>
        <pt x="654" y="601" on="0"/>
        <pt x="749" y="439" on="0"/>
        <pt x="749" y="344" on="1"/>
        <pt x="749" y="249" on="0"/>
        <pt x="654" y="87" on="0"/>
        <pt x="492" y="-8" on="0"/>
        <pt x="397" y="-8" on="1"/>
      </contour>
      <contour>
        <pt x="480" y="37" on="0"/>
        <pt x="621" y="120" on="0"/>
        <pt x="704" y="261" on="0"/>
        <pt x="704" y="344" on="1"/>
        <pt x="704" y="427" on="0"/>
        <pt x="621" y="568" on="0"/>
        <pt x="480" y="651" on="0"/>
        <pt x="397" y="651" on="1"/>
        <pt x="314" y="651" on="0"/>
        <pt x="173" y="568" on="0"/>
        <pt x="90" y="427" on="0"/>
        <pt x="90" y="344" on="1"/>
        <pt x="90" y="261" on="0"/>
        <pt x="173" y="120" on="0"/>
        <pt x="314" y="37" on="0"/>
        <pt x="397" y="37" on="1"/>
      </contour>
      <contour>
        <pt x="373" y="297" on="0"/>
        <pt x="363" y="418" on="0"/>
        <pt x="363" y="480" on="1"/>
        <pt x="363" y="579" on="1"/>
        <pt x="431" y="579" on="1"/>
        <pt x="431" y="480" on="1"/>
        <pt x="431" y="418" on="0"/>
        <pt x="421" y="297" on="0"/>
        <pt x="417" y="268" on="1"/>
        <pt x="377" y="268" on="1"/>
      </contour>
      <contour>
        <pt x="363" y="191" on="1"/>
        <pt x="431" y="191" on="1"/>
        <pt x="431" y="109" on="1"/>
        <pt x="363" y="109" on="1"/>
      </contour>
    </TTGlyph>
    <TTGlyph name="exclamdbl" xMin="72" yMin="0" xMax="389" yMax="688">
      <component glyphName="exclam" x="203" y="0" flags="0x0"/>
      <component glyphName="exclam" x="0" y="0" flags="0x0"/>
    </TTGlyph>
    <TTGlyph name="exclamdown" xMin="65" yMin="-178" xMax="179" yMax="510">
      <contour>
        <pt x="67" y="510" on="1"/>
        <pt x="177" y="510" on="1"/>
        <pt x="177" y="401" on="1"/>
        <pt x="67" y="401" on="1"/>
      </contour>
      <contour>
        <pt x="65" y="-94" on="1"/>
        <pt x="65" y="-42" on="0"/>
        <pt x="79" y="189" on="1"/>
        <pt x="85" y="301" on="0"/>
        <pt x="85" y="305" on="1"/>
        <pt x="158" y="305" on="1"/>
        <pt x="162" y="232" on="1"/>
        <pt x="179" y="-11" on="0"/>
        <pt x="179" y="-94" on="1"/>
        <pt x="179" y="-178" on="1"/>
        <pt x="65" y="-178" on="1"/>
      </contour>
    </TTGlyph>
    <TTGlyph name="exclamdown.case" xMin="65" yMin="0" xMax="179" yMax="688">
      <component glyphName="exclamdown" x="0" y="178" flags="0x4"/>
    </TTGlyph>
    <TTGlyph name="f" xMin="22" yMin="0" xMax="317" yMax="742">
      <contour>
        <pt x="109" y="428" on="1"/>
        <pt x="22" y="428" on="1"/>
        <pt x="22" y="510" on="1"/>
        <pt x="109" y="510" on="1"/>
        <pt x="109" y="577" on="1"/>
        <pt x="109" y="655" on="0"/>
        <pt x="146" y="723" on="0"/>
        <pt x="227" y="742" on="0"/>
        <pt x="317" y="742" on="1"/>
        <pt x="317" y="668" on="1"/>
        <pt x="267" y="668" on="0"/>
        <pt x="222" y="658" on="0"/>
        <pt x="206" y="628" on="0"/>
        <pt x="206" y="594" on="1"/>
        <pt x="206" y="510" on="1"/>
        <pt x="317" y="510" on="1"/>
        <pt x="317" y="428" on="1"/>
        <pt x="206" y="428" on="1"/>
        <pt x="206" y="0" on="1"/>
        <pt x="109" y="0" on="1"/>
      </contour>
    </TTGlyph>
    <TTGlyph name="f_f" xMin="22" yMin="0" xMax="657" yMax="742">
      <component glyphName="f" x="0" y="0" flags="0x0"/>
      <component glyphName="f" x="340" y="0" flags="0x0"/>
    </TTGlyph>
    <TTGlyph name="fi" xMin="22" yMin="0" xMax="508" yMax="743">
      <component glyphName="f" x="0" y="0" flags="0x0"/>
      <component glyphName="i" x="340" y="0" flags="0x0"/>
    </TTGlyph>
    <TTGlyph name="five" xMin="65" yMin="-8" xMax="482" yMax="688">
      <contour>
        <pt x="159" y="81" on="0"/>
        <pt x="238" y="81" on="1"/>
        <pt x="297" y="81" on="0"/>
        <pt x="356" y="103" on="0"/>
        <pt x="378" y="155" on="0"/>
        <pt x="378" y="206" on="1"/>
        <pt x="378" y="260" on="0"/>
        <pt x="353" y="310" on="0"/>
        <pt x="293" y="327" on="0"/>
        <pt x="229" y="327" on="1"/>
        <pt x="163" y="327" on="0"/>
        <pt x="72" y="315" on="1"/>
        <pt x="72" y="688" on="1"/>
        <pt x="439" y="688" on="1"/>
        <pt x="439" y="599" on="1"/>
        <pt x="166" y="599" on="1"/>
        <pt x="166" y="407" on="1"/>
        <pt x="189" y="411" on="0"/>
        <pt x="258" y="416" on="0"/>
        <pt x="286" y="416" on="1"/>
        <pt x="366" y="416" on="0"/>
        <pt x="451" y="371" on="0"/>
        <pt x="482" y="286" on="0"/>
        <pt x="482" y="216" on="1"/>
        <pt x="482" y="132" on="0"/>
        <pt x="444" y="37" on="0"/>
        <pt x="344" y="-8" on="0"/>
        <pt x="250" y="-8" on="1"/>
        <pt x="207" y="-8" on="0"/>
        <pt x="102" y="2" on="0"/>
        <pt x="65" y="10" on="1"/>
        <pt x="65" y="92" on="1"/>
      </contour>
    </TTGlyph>
    <TTGlyph name="five.dnom" xMin="42" yMin="-4" xMax="286" yMax="378">
      <contour>
        <pt x="94" y="52" on="0"/>
        <pt x="138" y="52" on="1"/>
        <pt x="172" y="52" on="0"/>
        <pt x="206" y="62" on="0"/>
        <pt x="219" y="89" on="0"/>
        <pt x="219" y="115" on="1"/>
        <pt x="219" y="142" on="0"/>
        <pt x="205" y="168" on="0"/>
        <pt x="170" y="177" on="0"/>
        <pt x="134" y="177" on="1"/>
        <pt x="88" y="177" on="0"/>
        <pt x="45" y="171" on="1"/>
        <pt x="45" y="378" on="1"/>
        <pt x="262" y="378" on="1"/>
        <pt x="262" y="322" on="1"/>
        <pt x="106" y="322" on="1"/>
        <pt x="106" y="228" on="1"/>
        <pt x="134" y="233" on="0"/>
        <pt x="174" y="233" on="1"/>
        <pt x="240" y="233" on="0"/>
        <pt x="286" y="179" on="0"/>
        <pt x="286" y="121" on="1"/>
        <pt x="286" y="75" on="0"/>
        <pt x="264" y="22" on="0"/>
        <pt x="205" y="-4" on="0"/>
        <pt x="150" y="-4" on="1"/>
        <pt x="98" y="-4" on="0"/>
        <pt x="42" y="5" on="1"/>
        <pt x="42" y="57" on="1"/>
      </contour>
    </TTGlyph>
    <TTGlyph name="five.numr" xMin="42" yMin="304" xMax="286" yMax="686">
      <contour>
        <pt x="94" y="360" on="0"/>
        <pt x="138" y="360" on="1"/>
        <pt x="172" y="360" on="0"/>
        <pt x="206" y="370" on="0"/>
        <pt x="219" y="397" on="0"/>
        <pt x="219" y="423" on="1"/>
        <pt x="219" y="450" on="0"/>
        <pt x="205" y="476" on="0"/>
        <pt x="170" y="485" on="0"/>
        <pt x="134" y="485" on="1"/>
        <pt x="88" y="485" on="0"/>
        <pt x="45" y="479" on="1"/>
        <pt x="45" y="686" on="1"/>
        <pt x="262" y="686" on="1"/>
        <pt x="262" y="630" on="1"/>
        <pt x="106" y="630" on="1"/>
        <pt x="106" y="536" on="1"/>
        <pt x="134" y="541" on="0"/>
        <pt x="174" y="541" on="1"/>
        <pt x="240" y="541" on="0"/>
        <pt x="286" y="487" on="0"/>
        <pt x="286" y="429" on="1"/>
        <pt x="286" y="383" on="0"/>
        <pt x="264" y="330" on="0"/>
        <pt x="205" y="304" on="0"/>
        <pt x="150" y="304" on="1"/>
        <pt x="98" y="304" on="0"/>
        <pt x="42" y="313" on="1"/>
        <pt x="42" y="365" on="1"/>
      </contour>
    </TTGlyph>
    <TTGlyph name="five.tnum" xMin="86" yMin="-8" xMax="504" yMax="688">
      <contour>
        <pt x="182" y="81" on="0"/>
        <pt x="259" y="81" on="1"/>
        <pt x="318" y="81" on="0"/>
        <pt x="377" y="103" on="0"/>
        <pt x="400" y="155" on="0"/>
        <pt x="400" y="206" on="1"/>
        <pt x="400" y="260" on="0"/>
        <pt x="375" y="310" on="0"/>
        <pt x="314" y="327" on="0"/>
        <pt x="250" y="327" on="1"/>
        <pt x="184" y="327" on="0"/>
        <pt x="93" y="315" on="1"/>
        <pt x="93" y="688" on="1"/>
        <pt x="460" y="688" on="1"/>
        <pt x="460" y="599" on="1"/>
        <pt x="188" y="599" on="1"/>
        <pt x="188" y="407" on="1"/>
        <pt x="210" y="411" on="0"/>
        <pt x="280" y="416" on="0"/>
        <pt x="307" y="416" on="1"/>
        <pt x="387" y="416" on="0"/>
        <pt x="473" y="371" on="0"/>
        <pt x="504" y="286" on="0"/>
        <pt x="504" y="216" on="1"/>
        <pt x="504" y="132" on="0"/>
        <pt x="466" y="37" on="0"/>
        <pt x="365" y="-8" on="0"/>
        <pt x="271" y="-8" on="1"/>
        <pt x="228" y="-8" on="0"/>
        <pt x="124" y="2" on="0"/>
        <pt x="86" y="10" on="1"/>
        <pt x="86" y="92" on="1"/>
      </contour>
    </TTGlyph>
    <TTGlyph name="fiveeighths" xMin="42" yMin="-4" xMax="763" yMax="688">
      <component glyphName="five.numr" x="0" y="0" flags="0x0"/>
      <component glyphName="fraction" x="318" y="0" flags="0x0"/>
      <component glyphName="eight.dnom" x="451" y="0" flags="0x0"/>
    </TTGlyph>
    <TTGlyph name="fl" xMin="22" yMin="0" xMax="506" yMax="743">
      <component glyphName="f" x="0" y="0" flags="0x0"/>
      <component glyphName="l" x="340" y="0" flags="0x0"/>
    </TTGlyph>
    <TTGlyph name="florin" xMin="-114" yMin="-192" xMax="402" yMax="742">
      <contour>
        <pt x="326" y="668" on="0"/>
        <pt x="280" y="650" on="0"/>
        <pt x="259" y="596" on="0"/>
        <pt x="243" y="516" on="1"/>
        <pt x="242" y="510" on="1"/>
        <pt x="352" y="510" on="1"/>
        <pt x="336" y="428" on="1"/>
        <pt x="224" y="428" on="1"/>
        <pt x="136" y="14" on="1"/>
        <pt x="115" y="-86" on="0"/>
        <pt x="66" y="-169" on="0"/>
        <pt x="-18" y="-192" on="0"/>
        <pt x="-114" y="-192" on="1"/>
        <pt x="-98" y="-118" on="1"/>
        <pt x="-49" y="-118" on="0"/>
        <pt x="-3" y="-107" on="0"/>
        <pt x="20" y="-76" on="0"/>
        <pt x="28" y="-40" on="1"/>
        <pt x="128" y="428" on="1"/>
        <pt x="41" y="428" on="1"/>
        <pt x="57" y="510" on="1"/>
        <pt x="144" y="510" on="1"/>
        <pt x="145" y="514" on="1"/>
        <pt x="169" y="625" on="0"/>
        <pt x="218" y="716" on="0"/>
        <pt x="304" y="742" on="0"/>
        <pt x="402" y="742" on="1"/>
        <pt x="387" y="668" on="1"/>
      </contour>
    </TTGlyph>
    <TTGlyph name="four" xMin="36" yMin="0" xMax="524" yMax="688">
      <contour>
        <pt x="338" y="155" on="1"/>
        <pt x="36" y="155" on="1"/>
        <pt x="36" y="233" on="1"/>
        <pt x="256" y="688" on="1"/>
        <pt x="367" y="688" on="1"/>
        <pt x="147" y="243" on="1"/>
        <pt x="338" y="243" on="1"/>
        <pt x="362" y="468" on="1"/>
        <pt x="441" y="468" on="1"/>
        <pt x="441" y="243" on="1"/>
        <pt x="524" y="243" on="1"/>
        <pt x="524" y="155" on="1"/>
        <pt x="441" y="155" on="1"/>
        <pt x="441" y="0" on="1"/>
        <pt x="338" y="0" on="1"/>
      </contour>
    </TTGlyph>
    <TTGlyph name="four.dnom" xMin="22" yMin="0" xMax="307" yMax="378">
      <contour>
        <pt x="195" y="82" on="1"/>
        <pt x="22" y="82" on="1"/>
        <pt x="22" y="131" on="1"/>
        <pt x="139" y="378" on="1"/>
        <pt x="210" y="378" on="1"/>
        <pt x="92" y="137" on="1"/>
        <pt x="195" y="137" on="1"/>
        <pt x="212" y="250" on="1"/>
        <pt x="261" y="250" on="1"/>
        <pt x="261" y="137" on="1"/>
        <pt x="307" y="137" on="1"/>
        <pt x="307" y="82" on="1"/>
        <pt x="261" y="82" on="1"/>
        <pt x="261" y="0" on="1"/>
        <pt x="195" y="0" on="1"/>
      </contour>
    </TTGlyph>
    <TTGlyph name="four.numr" xMin="22" yMin="308" xMax="307" yMax="686">
      <component glyphName="four.dnom" x="0" y="308" flags="0x4"/>
    </TTGlyph>
    <TTGlyph name="four.ss01" xMin="36" yMin="0" xMax="524" yMax="688">
      <contour>
        <pt x="338" y="154" on="1"/>
        <pt x="36" y="154" on="1"/>
        <pt x="36" y="235" on="1"/>
        <pt x="298" y="688" on="1"/>
        <pt x="441" y="688" on="1"/>
        <pt x="441" y="244" on="1"/>
        <pt x="524" y="244" on="1"/>
        <pt x="524" y="154" on="1"/>
        <pt x="441" y="154" on="1"/>
        <pt x="441" y="0" on="1"/>
        <pt x="338" y="0" on="1"/>
      </contour>
      <contour>
        <pt x="338" y="244" on="1"/>
        <pt x="338" y="585" on="1"/>
        <pt x="336" y="585" on="1"/>
        <pt x="138" y="244" on="1"/>
      </contour>
    </TTGlyph>
    <TTGlyph name="four.tnum" xMin="40" yMin="0" xMax="533" yMax="688">
      <contour>
        <pt x="347" y="155" on="1"/>
        <pt x="40" y="155" on="1"/>
        <pt x="40" y="233" on="1"/>
        <pt x="265" y="688" on="1"/>
        <pt x="376" y="688" on="1"/>
        <pt x="151" y="243" on="1"/>
        <pt x="347" y="243" on="1"/>
        <pt x="371" y="468" on="1"/>
        <pt x="450" y="468" on="1"/>
        <pt x="450" y="243" on="1"/>
        <pt x="533" y="243" on="1"/>
        <pt x="533" y="155" on="1"/>
        <pt x="450" y="155" on="1"/>
        <pt x="450" y="0" on="1"/>
        <pt x="347" y="0" on="1"/>
      </contour>
    </TTGlyph>
    <TTGlyph name="fraction" xMin="-165" yMin="0" xMax="298" yMax="688">
      <contour>
        <pt x="229" y="688" on="1"/>
        <pt x="298" y="688" on="1"/>
        <pt x="-96" y="0" on="1"/>
        <pt x="-165" y="0" on="1"/>
      </contour>
    </TTGlyph>
    <TTGlyph name="g" xMin="51" yMin="-203" xMax="451" yMax="518">
      <contour>
        <pt x="142" y="-203" on="0"/>
        <pt x="80" y="-193" on="1"/>
        <pt x="80" y="-117" on="1"/>
        <pt x="164" y="-121" on="0"/>
        <pt x="214" y="-121" on="1"/>
        <pt x="279" y="-121" on="0"/>
        <pt x="337" y="-96" on="0"/>
        <pt x="354" y="-31" on="0"/>
        <pt x="354" y="42" on="1"/>
        <pt x="354" y="64" on="1"/>
        <pt x="348" y="64" on="1"/>
        <pt x="332" y="27" on="0"/>
        <pt x="264" y="-4" on="0"/>
        <pt x="213" y="-4" on="1"/>
        <pt x="149" y="-4" on="0"/>
        <pt x="80" y="41" on="0"/>
        <pt x="51" y="152" on="0"/>
        <pt x="51" y="255" on="1"/>
        <pt x="51" y="359" on="0"/>
        <pt x="81" y="472" on="0"/>
        <pt x="151" y="518" on="0"/>
        <pt x="214" y="518" on="1"/>
        <pt x="262" y="518" on="0"/>
        <pt x="334" y="486" on="0"/>
        <pt x="352" y="442" on="1"/>
        <pt x="358" y="442" on="1"/>
        <pt x="362" y="510" on="1"/>
        <pt x="451" y="510" on="1"/>
        <pt x="451" y="67" on="1"/>
        <pt x="451" y="-40" on="0"/>
        <pt x="423" y="-150" on="0"/>
        <pt x="331" y="-203" on="0"/>
        <pt x="235" y="-203" on="1"/>
      </contour>
      <contour>
        <pt x="289" y="82" on="0"/>
        <pt x="330" y="105" on="0"/>
        <pt x="340" y="130" on="1"/>
        <pt x="348" y="150" on="0"/>
        <pt x="354" y="208" on="0"/>
        <pt x="354" y="256" on="1"/>
        <pt x="354" y="301" on="0"/>
        <pt x="349" y="358" on="0"/>
        <pt x="341" y="378" on="1"/>
        <pt x="331" y="406" on="0"/>
        <pt x="289" y="431" on="0"/>
        <pt x="252" y="431" on="1"/>
        <pt x="203" y="431" on="0"/>
        <pt x="162" y="409" on="0"/>
        <pt x="149" y="339" on="0"/>
        <pt x="149" y="256" on="1"/>
        <pt x="149" y="174" on="0"/>
        <pt x="163" y="105" on="0"/>
        <pt x="204" y="82" on="0"/>
        <pt x="252" y="82" on="1"/>
      </contour>
    </TTGlyph>
    <TTGlyph name="g_tilde.loclGUA" xMin="51" yMin="-203" xMax="451" yMax="744">
      <component glyphName="g" x="0" y="0" flags="0x0"/>
      <component glyphName="tildecomb" x="439" y="0" flags="0x0"/>
    </TTGlyph>
    <TTGlyph name="gbreve" xMin="51" yMin="-203" xMax="451" yMax="743">
      <component glyphName="g" x="0" y="0" flags="0x0"/>
      <component glyphName="uni0306" x="403" y="0" flags="0x0"/>
    </TTGlyph>
    <TTGlyph name="gcaron" xMin="51" yMin="-203" xMax="451" yMax="743">
      <component glyphName="g" x="0" y="0" flags="0x0"/>
      <component glyphName="uni030C" x="411" y="0" flags="0x0"/>
    </TTGlyph>
    <TTGlyph name="gcircumflex" xMin="51" yMin="-203" xMax="451" yMax="743">
      <component glyphName="g" x="0" y="0" flags="0x0"/>
      <component glyphName="uni0302" x="411" y="0" flags="0x0"/>
    </TTGlyph>
    <TTGlyph name="gcommaaccent" xMin="51" yMin="-203" xMax="451" yMax="813">
      <component glyphName="g" x="0" y="0" flags="0x0"/>
      <component glyphName="uni0312" x="630" y="0" flags="0x0"/>
    </TTGlyph>
    <TTGlyph name="gdotaccent" xMin="51" yMin="-203" xMax="451" yMax="730">
      <component glyphName="g" x="0" y="0" flags="0x0"/>
      <component glyphName="uni0307" x="321" y="0" flags="0x0"/>
    </TTGlyph>
    <TTGlyph name="germandbls" xMin="69" yMin="0" xMax="483" yMax="750">
      <contour>
        <pt x="238" y="0" on="1"/>
        <pt x="238" y="81" on="1"/>
        <pt x="274" y="81" on="1"/>
        <pt x="328" y="81" on="0"/>
        <pt x="371" y="99" on="0"/>
        <pt x="385" y="162" on="0"/>
        <pt x="385" y="241" on="1"/>
        <pt x="385" y="307" on="0"/>
        <pt x="367" y="370" on="0"/>
        <pt x="323" y="392" on="0"/>
        <pt x="279" y="392" on="1"/>
        <pt x="256" y="392" on="1"/>
        <pt x="256" y="474" on="1"/>
        <pt x="279" y="474" on="1"/>
        <pt x="337" y="474" on="0"/>
        <pt x="378" y="514" on="0"/>
        <pt x="378" y="567" on="1"/>
        <pt x="378" y="609" on="0"/>
        <pt x="359" y="652" on="0"/>
        <pt x="314" y="668" on="0"/>
        <pt x="271" y="668" on="1"/>
        <pt x="231" y="668" on="0"/>
        <pt x="187" y="649" on="0"/>
        <pt x="166" y="596" on="0"/>
        <pt x="166" y="543" on="1"/>
        <pt x="166" y="0" on="1"/>
        <pt x="69" y="0" on="1"/>
        <pt x="69" y="551" on="1"/>
        <pt x="69" y="623" on="0"/>
        <pt x="108" y="709" on="0"/>
        <pt x="198" y="750" on="0"/>
        <pt x="274" y="750" on="1"/>
        <pt x="351" y="750" on="0"/>
        <pt x="439" y="713" on="0"/>
        <pt x="475" y="639" on="0"/>
        <pt x="475" y="578" on="1"/>
        <pt x="475" y="514" on="0"/>
        <pt x="425" y="449" on="0"/>
        <pt x="371" y="439" on="1"/>
        <pt x="371" y="435" on="1"/>
        <pt x="429" y="423" on="0"/>
        <pt x="483" y="336" on="0"/>
        <pt x="483" y="241" on="1"/>
        <pt x="483" y="148" on="0"/>
        <pt x="455" y="47" on="0"/>
        <pt x="373" y="0" on="0"/>
        <pt x="291" y="0" on="1"/>
      </contour>
    </TTGlyph>
    <TTGlyph name="grave" xMin="13" yMin="601" xMax="190" yMax="743">
      <contour>
        <pt x="13" y="738" on="1"/>
        <pt x="13" y="743" on="1"/>
        <pt x="114" y="743" on="1"/>
        <pt x="190" y="606" on="1"/>
        <pt x="190" y="601" on="1"/>
        <pt x="118" y="601" on="1"/>
      </contour>
    </TTGlyph>
    <TTGlyph name="gravecomb" xMin="-190" yMin="601" xMax="-13" yMax="743">
      <contour>
        <pt x="-190" y="738" on="1"/>
        <pt x="-190" y="743" on="1"/>
        <pt x="-89" y="743" on="1"/>
        <pt x="-13" y="606" on="1"/>
        <pt x="-13" y="601" on="1"/>
        <pt x="-85" y="601" on="1"/>
      </contour>
    </TTGlyph>
    <TTGlyph name="gravecomb.case" xMin="-190" yMin="746" xMax="-13" yMax="888">
      <contour>
        <pt x="-190" y="883" on="1"/>
        <pt x="-190" y="888" on="1"/>
        <pt x="-89" y="888" on="1"/>
        <pt x="-13" y="751" on="1"/>
        <pt x="-13" y="746" on="1"/>
        <pt x="-85" y="746" on="1"/>
      </contour>
    </TTGlyph>
    <TTGlyph name="greater" xMin="66" yMin="55" xMax="446" yMax="451">
      <contour>
        <pt x="66" y="137" on="1"/>
        <pt x="359" y="253" on="1"/>
        <pt x="66" y="369" on="1"/>
        <pt x="66" y="451" on="1"/>
        <pt x="446" y="296" on="1"/>
        <pt x="446" y="209" on="1"/>
        <pt x="66" y="55" on="1"/>
      </contour>
    </TTGlyph>
    <TTGlyph name="greaterequal" xMin="66" yMin="14" xMax="446" yMax="576">
      <contour>
        <pt x="66" y="262" on="1"/>
        <pt x="360" y="378" on="1"/>
        <pt x="66" y="494" on="1"/>
        <pt x="66" y="576" on="1"/>
        <pt x="446" y="421" on="1"/>
        <pt x="446" y="334" on="1"/>
        <pt x="66" y="180" on="1"/>
      </contour>
      <contour>
        <pt x="66" y="94" on="1"/>
        <pt x="446" y="94" on="1"/>
        <pt x="446" y="14" on="1"/>
        <pt x="66" y="14" on="1"/>
      </contour>
    </TTGlyph>
    <TTGlyph name="guillemotleft" xMin="34" yMin="102" xMax="374" yMax="510">
      <contour>
        <pt x="34" y="305" on="1"/>
        <pt x="148" y="510" on="1"/>
        <pt x="216" y="510" on="1"/>
        <pt x="121" y="305" on="1"/>
        <pt x="216" y="102" on="1"/>
        <pt x="148" y="102" on="1"/>
      </contour>
      <contour>
        <pt x="192" y="305" on="1"/>
        <pt x="306" y="510" on="1"/>
        <pt x="374" y="510" on="1"/>
        <pt x="279" y="305" on="1"/>
        <pt x="374" y="102" on="1"/>
        <pt x="306" y="102" on="1"/>
      </contour>
    </TTGlyph>
    <TTGlyph name="guillemotright" xMin="56" yMin="102" xMax="396" yMax="510">
      <contour>
        <pt x="151" y="305" on="1"/>
        <pt x="56" y="510" on="1"/>
        <pt x="124" y="510" on="1"/>
        <pt x="238" y="305" on="1"/>
        <pt x="124" y="102" on="1"/>
        <pt x="56" y="102" on="1"/>
      </contour>
      <contour>
        <pt x="310" y="305" on="1"/>
        <pt x="214" y="510" on="1"/>
        <pt x="282" y="510" on="1"/>
        <pt x="396" y="305" on="1"/>
        <pt x="282" y="102" on="1"/>
        <pt x="214" y="102" on="1"/>
      </contour>
    </TTGlyph>
    <TTGlyph name="guilsinglleft" xMin="33" yMin="102" xMax="215" yMax="510">
      <contour>
        <pt x="33" y="305" on="1"/>
        <pt x="147" y="510" on="1"/>
        <pt x="215" y="510" on="1"/>
        <pt x="120" y="305" on="1"/>
        <pt x="215" y="102" on="1"/>
        <pt x="147" y="102" on="1"/>
      </contour>
    </TTGlyph>
    <TTGlyph name="guilsinglright" xMin="56" yMin="102" xMax="239" yMax="510">
      <contour>
        <pt x="151" y="305" on="1"/>
        <pt x="56" y="510" on="1"/>
        <pt x="124" y="510" on="1"/>
        <pt x="239" y="305" on="1"/>
        <pt x="124" y="102" on="1"/>
        <pt x="56" y="102" on="1"/>
      </contour>
    </TTGlyph>
    <TTGlyph name="h" xMin="69" yMin="0" xMax="458" yMax="743">
      <contour>
        <pt x="361" y="284" on="1"/>
        <pt x="361" y="354" on="0"/>
        <pt x="348" y="413" on="0"/>
        <pt x="312" y="431" on="0"/>
        <pt x="268" y="431" on="1"/>
        <pt x="222" y="431" on="0"/>
        <pt x="178" y="395" on="0"/>
        <pt x="166" y="327" on="0"/>
        <pt x="166" y="264" on="1"/>
        <pt x="166" y="0" on="1"/>
        <pt x="69" y="0" on="1"/>
        <pt x="69" y="743" on="1"/>
        <pt x="166" y="743" on="1"/>
        <pt x="166" y="448" on="1"/>
        <pt x="172" y="448" on="1"/>
        <pt x="188" y="482" on="0"/>
        <pt x="254" y="517" on="0"/>
        <pt x="310" y="517" on="1"/>
        <pt x="372" y="517" on="0"/>
        <pt x="436" y="476" on="0"/>
        <pt x="458" y="394" on="0"/>
        <pt x="458" y="322" on="1"/>
        <pt x="458" y="0" on="1"/>
        <pt x="361" y="0" on="1"/>
      </contour>
    </TTGlyph>
    <TTGlyph name="hbar" xMin="10" yMin="0" xMax="458" yMax="743">
      <contour>
        <pt x="372" y="517" on="0"/>
        <pt x="436" y="476" on="0"/>
        <pt x="458" y="394" on="0"/>
        <pt x="458" y="322" on="1"/>
        <pt x="458" y="0" on="1"/>
        <pt x="361" y="0" on="1"/>
        <pt x="361" y="284" on="1"/>
        <pt x="361" y="354" on="0"/>
        <pt x="348" y="413" on="0"/>
        <pt x="312" y="431" on="0"/>
        <pt x="268" y="431" on="1"/>
        <pt x="222" y="431" on="0"/>
        <pt x="178" y="395" on="0"/>
        <pt x="166" y="327" on="0"/>
        <pt x="166" y="264" on="1"/>
        <pt x="166" y="0" on="1"/>
        <pt x="69" y="0" on="1"/>
        <pt x="69" y="608" on="1"/>
        <pt x="10" y="608" on="1"/>
        <pt x="10" y="688" on="1"/>
        <pt x="69" y="688" on="1"/>
        <pt x="69" y="743" on="1"/>
        <pt x="166" y="743" on="1"/>
        <pt x="166" y="688" on="1"/>
        <pt x="285" y="688" on="1"/>
        <pt x="285" y="608" on="1"/>
        <pt x="166" y="608" on="1"/>
        <pt x="166" y="448" on="1"/>
        <pt x="172" y="448" on="1"/>
        <pt x="188" y="482" on="0"/>
        <pt x="254" y="517" on="0"/>
        <pt x="310" y="517" on="1"/>
      </contour>
    </TTGlyph>
    <TTGlyph name="hcircumflex" xMin="-20" yMin="0" xMax="458" yMax="921">
      <component glyphName="h" x="0" y="0" flags="0x0"/>
      <component glyphName="uni0302" x="269" y="178" flags="0x4"/>
    </TTGlyph>
    <TTGlyph name="hookabovecomb" xMin="-251" yMin="609" xMax="-22" yMax="806">
      <contour>
        <pt x="-191" y="619" on="1"/>
        <pt x="-191" y="646" on="0"/>
        <pt x="-173" y="667" on="0"/>
        <pt x="-147" y="675" on="1"/>
        <pt x="-130" y="680" on="1"/>
        <pt x="-104" y="689" on="0"/>
        <pt x="-89" y="702" on="0"/>
        <pt x="-89" y="717" on="1"/>
        <pt x="-89" y="738" on="0"/>
        <pt x="-114" y="749" on="0"/>
        <pt x="-156" y="749" on="1"/>
        <pt x="-199" y="749" on="0"/>
        <pt x="-251" y="744" on="1"/>
        <pt x="-251" y="797" on="1"/>
        <pt x="-197" y="806" on="0"/>
        <pt x="-144" y="806" on="1"/>
        <pt x="-79" y="806" on="0"/>
        <pt x="-22" y="772" on="0"/>
        <pt x="-22" y="724" on="1"/>
        <pt x="-22" y="691" on="0"/>
        <pt x="-45" y="659" on="0"/>
        <pt x="-78" y="649" on="1"/>
        <pt x="-96" y="642" on="1"/>
        <pt x="-121" y="634" on="0"/>
        <pt x="-132" y="624" on="0"/>
        <pt x="-132" y="609" on="1"/>
        <pt x="-191" y="609" on="1"/>
      </contour>
    </TTGlyph>
    <TTGlyph name="hookabovecomb.case" xMin="-251" yMin="732" xMax="-22" yMax="929">
      <contour>
        <pt x="-191" y="742" on="1"/>
        <pt x="-191" y="769" on="0"/>
        <pt x="-173" y="790" on="0"/>
        <pt x="-147" y="798" on="1"/>
        <pt x="-130" y="804" on="1"/>
        <pt x="-104" y="812" on="0"/>
        <pt x="-89" y="825" on="0"/>
        <pt x="-89" y="840" on="1"/>
        <pt x="-89" y="861" on="0"/>
        <pt x="-114" y="872" on="0"/>
        <pt x="-156" y="872" on="1"/>
        <pt x="-199" y="872" on="0"/>
        <pt x="-251" y="867" on="1"/>
        <pt x="-251" y="920" on="1"/>
        <pt x="-197" y="929" on="0"/>
        <pt x="-144" y="929" on="1"/>
        <pt x="-79" y="929" on="0"/>
        <pt x="-22" y="895" on="0"/>
        <pt x="-22" y="847" on="1"/>
        <pt x="-22" y="814" on="0"/>
        <pt x="-45" y="782" on="0"/>
        <pt x="-78" y="772" on="1"/>
        <pt x="-96" y="765" on="1"/>
        <pt x="-121" y="757" on="0"/>
        <pt x="-132" y="747" on="0"/>
        <pt x="-132" y="732" on="1"/>
        <pt x="-191" y="732" on="1"/>
      </contour>
    </TTGlyph>
    <TTGlyph name="house" xMin="41" yMin="0" xMax="597" yMax="696">
      <contour>
        <pt x="41" y="397" on="1"/>
        <pt x="282" y="696" on="1"/>
        <pt x="356" y="696" on="1"/>
        <pt x="597" y="397" on="1"/>
        <pt x="596" y="0" on="1"/>
        <pt x="42" y="0" on="1"/>
      </contour>
      <contour>
        <pt x="518" y="66" on="1"/>
        <pt x="519" y="377" on="1"/>
        <pt x="319" y="626" on="1"/>
        <pt x="119" y="377" on="1"/>
        <pt x="120" y="66" on="1"/>
      </contour>
    </TTGlyph>
    <TTGlyph name="hungarumlaut" xMin="19" yMin="609" xMax="338" yMax="734">
      <contour>
        <pt x="19" y="613" on="1"/>
        <pt x="88" y="734" on="1"/>
        <pt x="174" y="734" on="1"/>
        <pt x="174" y="729" on="1"/>
        <pt x="80" y="609" on="1"/>
        <pt x="19" y="609" on="1"/>
      </contour>
      <contour>
        <pt x="183" y="613" on="1"/>
        <pt x="252" y="734" on="1"/>
        <pt x="338" y="734" on="1"/>
        <pt x="338" y="729" on="1"/>
        <pt x="244" y="609" on="1"/>
        <pt x="183" y="609" on="1"/>
      </contour>
    </TTGlyph>
    <TTGlyph name="hyphen" xMin="55" yMin="242" xMax="283" yMax="329">
      <contour>
        <pt x="55" y="329" on="1"/>
        <pt x="283" y="329" on="1"/>
        <pt x="283" y="242" on="1"/>
        <pt x="55" y="242" on="1"/>
      </contour>
    </TTGlyph>
    <TTGlyph name="i" xMin="67" yMin="0" xMax="168" yMax="743">
      <contour>
        <pt x="67" y="743" on="1"/>
        <pt x="168" y="743" on="1"/>
        <pt x="168" y="644" on="1"/>
        <pt x="67" y="644" on="1"/>
      </contour>
      <contour>
        <pt x="69" y="510" on="1"/>
        <pt x="166" y="510" on="1"/>
        <pt x="166" y="0" on="1"/>
        <pt x="69" y="0" on="1"/>
      </contour>
    </TTGlyph>
    <TTGlyph name="i.loclTRK" xMin="69" yMin="0" xMax="166" yMax="730">
      <component glyphName="dotlessi" x="0" y="0" flags="0x0"/>
      <component glyphName="uni0307" x="179" y="0" flags="0x0"/>
    </TTGlyph>
    <TTGlyph name="iacute" xMin="69" yMin="0" xMax="247" yMax="743">
      <component glyphName="dotlessi" x="0" y="0" flags="0x0"/>
      <component glyphName="acute" x="57" y="0" flags="0x0"/>
    </TTGlyph>
    <TTGlyph name="iacute_j.loclNLD" xMin="69" yMin="-197" xMax="486" yMax="743">
      <component glyphName="dotlessi" x="0" y="0" flags="0x0"/>
      <component glyphName="acutecomb" x="264" y="0" flags="0x0"/>
      <component glyphName="uni0237" x="235" y="0" flags="0x0"/>
      <component glyphName="acutecomb" x="499" y="0" flags="0x0"/>
    </TTGlyph>
    <TTGlyph name="ibreve" xMin="-13" yMin="0" xMax="247" yMax="743">
      <component glyphName="dotlessi" x="0" y="0" flags="0x0"/>
      <component glyphName="uni0306" x="261" y="0" flags="0x0"/>
    </TTGlyph>
    <TTGlyph name="icircumflex" xMin="-20" yMin="0" xMax="256" yMax="743">
      <component glyphName="dotlessi" x="0" y="0" flags="0x0"/>
      <component glyphName="circumflex" x="-33" y="0" flags="0x0"/>
    </TTGlyph>
    <TTGlyph name="idieresis" xMin="-19" yMin="0" xMax="255" yMax="728">
      <component glyphName="dotlessi" x="0" y="0" flags="0x0"/>
      <component glyphName="dieresis" x="-38" y="-2" flags="0x4"/>
    </TTGlyph>
    <TTGlyph name="igrave" xMin="-11" yMin="0" xMax="166" yMax="743">
      <component glyphName="dotlessi" x="0" y="0" flags="0x0"/>
      <component glyphName="grave" x="-24" y="0" flags="0x0"/>
    </TTGlyph>
    <TTGlyph name="ij" xMin="67" yMin="-197" xMax="403" yMax="743">
      <component glyphName="i" x="0" y="0" flags="0x0"/>
      <component glyphName="j" x="235" y="0" flags="0x0"/>
    </TTGlyph>
    <TTGlyph name="imacron" xMin="4" yMin="0" xMax="232" yMax="742">
      <component glyphName="dotlessi" x="0" y="0" flags="0x0"/>
      <component glyphName="uni0304" x="287" y="0" flags="0x0"/>
    </TTGlyph>
    <TTGlyph name="infinity" xMin="55" yMin="47" xMax="861" yMax="465">
      <contour>
        <pt x="175" y="47" on="0"/>
        <pt x="89" y="94" on="0"/>
        <pt x="55" y="185" on="0"/>
        <pt x="55" y="256" on="1"/>
        <pt x="55" y="327" on="0"/>
        <pt x="89" y="417" on="0"/>
        <pt x="175" y="465" on="0"/>
        <pt x="252" y="465" on="1"/>
        <pt x="336" y="465" on="0"/>
        <pt x="430" y="394" on="0"/>
        <pt x="459" y="331" on="1"/>
        <pt x="488" y="394" on="0"/>
        <pt x="582" y="465" on="0"/>
        <pt x="667" y="465" on="1"/>
        <pt x="744" y="465" on="0"/>
        <pt x="828" y="417" on="0"/>
        <pt x="861" y="327" on="0"/>
        <pt x="861" y="256" on="1"/>
        <pt x="861" y="184" on="0"/>
        <pt x="828" y="94" on="0"/>
        <pt x="744" y="47" on="0"/>
        <pt x="667" y="47" on="1"/>
        <pt x="582" y="47" on="0"/>
        <pt x="488" y="118" on="0"/>
        <pt x="459" y="180" on="1"/>
        <pt x="430" y="118" on="0"/>
        <pt x="336" y="47" on="0"/>
        <pt x="252" y="47" on="1"/>
      </contour>
      <contour>
        <pt x="326" y="120" on="0"/>
        <pt x="396" y="192" on="0"/>
        <pt x="417" y="256" on="1"/>
        <pt x="396" y="320" on="0"/>
        <pt x="326" y="392" on="0"/>
        <pt x="256" y="392" on="1"/>
        <pt x="207" y="392" on="0"/>
        <pt x="154" y="363" on="0"/>
        <pt x="134" y="304" on="0"/>
        <pt x="134" y="256" on="1"/>
        <pt x="134" y="208" on="0"/>
        <pt x="154" y="149" on="0"/>
        <pt x="207" y="120" on="0"/>
        <pt x="256" y="120" on="1"/>
      </contour>
      <contour>
        <pt x="711" y="120" on="0"/>
        <pt x="763" y="149" on="0"/>
        <pt x="783" y="207" on="0"/>
        <pt x="783" y="256" on="1"/>
        <pt x="783" y="305" on="0"/>
        <pt x="763" y="363" on="0"/>
        <pt x="711" y="392" on="0"/>
        <pt x="663" y="392" on="1"/>
        <pt x="592" y="392" on="0"/>
        <pt x="522" y="320" on="0"/>
        <pt x="502" y="256" on="1"/>
        <pt x="522" y="192" on="0"/>
        <pt x="592" y="120" on="0"/>
        <pt x="663" y="120" on="1"/>
      </contour>
    </TTGlyph>
    <TTGlyph name="integral" xMin="42" yMin="-190" xMax="324" yMax="696">
      <contour>
        <pt x="42" y="-116" on="1"/>
        <pt x="89" y="-116" on="0"/>
        <pt x="136" y="-108" on="0"/>
        <pt x="155" y="-86" on="0"/>
        <pt x="155" y="-63" on="1"/>
        <pt x="151" y="3" on="1"/>
        <pt x="114" y="527" on="1"/>
        <pt x="112" y="568" on="1"/>
        <pt x="112" y="627" on="0"/>
        <pt x="155" y="681" on="0"/>
        <pt x="239" y="696" on="0"/>
        <pt x="324" y="696" on="1"/>
        <pt x="324" y="622" on="1"/>
        <pt x="276" y="622" on="0"/>
        <pt x="230" y="614" on="0"/>
        <pt x="211" y="591" on="0"/>
        <pt x="211" y="567" on="1"/>
        <pt x="213" y="528" on="1"/>
        <pt x="250" y="0" on="1"/>
        <pt x="253" y="-39" on="0"/>
        <pt x="253" y="-62" on="1"/>
        <pt x="253" y="-121" on="0"/>
        <pt x="210" y="-176" on="0"/>
        <pt x="127" y="-190" on="0"/>
        <pt x="42" y="-190" on="1"/>
      </contour>
    </TTGlyph>
    <TTGlyph name="iogonek" xMin="22" yMin="-196" xMax="167" yMax="730">
      <contour>
        <pt x="161" y="642" on="1"/>
        <pt x="73" y="642" on="1"/>
        <pt x="73" y="730" on="1"/>
        <pt x="161" y="730" on="1"/>
      </contour>
      <contour>
        <pt x="161" y="-135" on="0"/>
        <pt x="167" y="-134" on="1"/>
        <pt x="167" y="-193" on="1"/>
        <pt x="138" y="-196" on="0"/>
        <pt x="123" y="-196" on="1"/>
        <pt x="69" y="-196" on="0"/>
        <pt x="22" y="-154" on="0"/>
        <pt x="22" y="-119" on="1"/>
        <pt x="22" y="-89" on="0"/>
        <pt x="56" y="-27" on="0"/>
        <pt x="84" y="0" on="1"/>
        <pt x="69" y="0" on="1"/>
        <pt x="69" y="510" on="1"/>
        <pt x="166" y="510" on="1"/>
        <pt x="166" y="0" on="1"/>
        <pt x="144" y="-16" on="0"/>
        <pt x="105" y="-73" on="0"/>
        <pt x="105" y="-98" on="1"/>
        <pt x="105" y="-135" on="0"/>
        <pt x="149" y="-135" on="1"/>
      </contour>
    </TTGlyph>
    <TTGlyph name="itilde" xMin="-48" yMin="0" xMax="283" yMax="744">
      <component glyphName="dotlessi" x="0" y="0" flags="0x0"/>
      <component glyphName="tildecomb" x="297" y="0" flags="0x0"/>
    </TTGlyph>
    <TTGlyph name="j" xMin="-11" yMin="-197" xMax="168" yMax="743">
      <contour>
        <pt x="67" y="743" on="1"/>
        <pt x="168" y="743" on="1"/>
        <pt x="168" y="644" on="1"/>
        <pt x="67" y="644" on="1"/>
      </contour>
      <contour>
        <pt x="-11" y="-121" on="1"/>
        <pt x="26" y="-121" on="0"/>
        <pt x="59" y="-111" on="0"/>
        <pt x="69" y="-90" on="0"/>
        <pt x="69" y="-67" on="1"/>
        <pt x="69" y="510" on="1"/>
        <pt x="166" y="510" on="1"/>
        <pt x="166" y="-42" on="1"/>
        <pt x="166" y="-113" on="0"/>
        <pt x="135" y="-178" on="0"/>
        <pt x="65" y="-197" on="0"/>
        <pt x="-11" y="-197" on="1"/>
      </contour>
    </TTGlyph>
    <TTGlyph name="jcircumflex" xMin="-20" yMin="-197" xMax="256" yMax="743">
      <component glyphName="uni0237" x="0" y="0" flags="0x0"/>
      <component glyphName="uni0302" x="269" y="0" flags="0x0"/>
    </TTGlyph>
    <TTGlyph name="k" xMin="69" yMin="0" xMax="462" yMax="743">
      <contour>
        <pt x="216" y="216" on="1"/>
        <pt x="166" y="216" on="1"/>
        <pt x="166" y="0" on="1"/>
        <pt x="69" y="0" on="1"/>
        <pt x="69" y="743" on="1"/>
        <pt x="166" y="743" on="1"/>
        <pt x="166" y="298" on="1"/>
        <pt x="216" y="298" on="1"/>
        <pt x="353" y="510" on="1"/>
        <pt x="458" y="510" on="1"/>
        <pt x="294" y="264" on="1"/>
        <pt x="462" y="0" on="1"/>
        <pt x="353" y="0" on="1"/>
      </contour>
    </TTGlyph>
    <TTGlyph name="kcommaaccent" xMin="69" yMin="-273" xMax="462" yMax="743">
      <component glyphName="k" x="0" y="0" flags="0x0"/>
      <component glyphName="uni0326" x="356" y="0" flags="0x0"/>
    </TTGlyph>
    <TTGlyph name="kgreenlandic" xMin="69" yMin="0" xMax="462" yMax="510">
      <contour>
        <pt x="216" y="216" on="1"/>
        <pt x="166" y="216" on="1"/>
        <pt x="166" y="0" on="1"/>
        <pt x="69" y="0" on="1"/>
        <pt x="69" y="510" on="1"/>
        <pt x="166" y="510" on="1"/>
        <pt x="166" y="298" on="1"/>
        <pt x="216" y="298" on="1"/>
        <pt x="353" y="510" on="1"/>
        <pt x="458" y="510" on="1"/>
        <pt x="294" y="264" on="1"/>
        <pt x="462" y="0" on="1"/>
        <pt x="353" y="0" on="1"/>
      </contour>
    </TTGlyph>
    <TTGlyph name="l" xMin="69" yMin="0" xMax="166" yMax="743">
      <contour>
        <pt x="69" y="743" on="1"/>
        <pt x="166" y="743" on="1"/>
        <pt x="166" y="0" on="1"/>
        <pt x="69" y="0" on="1"/>
      </contour>
    </TTGlyph>
    <TTGlyph name="lacute" xMin="69" yMin="0" xMax="251" yMax="921">
      <component glyphName="l" x="0" y="0" flags="0x0"/>
      <component glyphName="acutecomb" x="264" y="178" flags="0x4"/>
    </TTGlyph>
    <TTGlyph name="lcaron" xMin="69" yMin="0" xMax="305" yMax="743">
      <component glyphName="l" x="0" y="0" flags="0x0"/>
      <component glyphName="caron.loclCSY" x="156" y="0" flags="0x0"/>
    </TTGlyph>
    <TTGlyph name="lcommaaccent" xMin="57" yMin="-273" xMax="178" yMax="743">
      <component glyphName="l" x="0" y="0" flags="0x0"/>
      <component glyphName="uni0326" x="233" y="0" flags="0x0"/>
    </TTGlyph>
    <TTGlyph name="ldot" xMin="69" yMin="0" xMax="317" yMax="743">
      <contour>
        <pt x="69" y="743" on="1"/>
        <pt x="166" y="743" on="1"/>
        <pt x="166" y="0" on="1"/>
        <pt x="69" y="0" on="1"/>
      </contour>
      <contour>
        <pt x="209" y="354" on="1"/>
        <pt x="317" y="354" on="1"/>
        <pt x="317" y="245" on="1"/>
        <pt x="209" y="245" on="1"/>
      </contour>
    </TTGlyph>
    <TTGlyph name="leftOpenDialog" xMin="0" yMin="0" xMax="626" yMax="688">
      <contour>
        <pt x="60" y="628" on="1"/>
        <pt x="60" y="60" on="1"/>
        <pt x="626" y="60" on="1"/>
        <pt x="626" y="0" on="1"/>
        <pt x="0" y="0" on="1"/>
        <pt x="0" y="688" on="1"/>
        <pt x="626" y="688" on="1"/>
        <pt x="626" y="628" on="1"/>
      </contour>
    </TTGlyph>
</ttFont>
